{
copyright = "Copyright (c) 2015, Cadson Demak (info@cadsondemak.com), Copyright (c) 2014, Pablo Impallari (www.impallari.com|impallari@gmail.com)";
customParameters = (
{
name = description;
value = "Copyright (c) 2015, Cadson Demak (info@cadsondemak.com), Copyright (c) 2014, Pablo Impallari (www.impallari.com|impallari@gmail.com)";
},
{
name = license;

glyphs = (
{
glyphname = A;
layers = (
{
layerId = "88A9C6FE-0426-4B07-A0DF-A933171F58B2";
name = Regular;
paths = (
{
closed = 1;
nodes = (
"538 2 OFFCURVE",
"552 -5 OFFCURVE",
"572 -5 CURVE SMOOTH",
"600 -5 OFFCURVE",
"624 10 OFFCURVE",
"624 44 CURVE SMOOTH",
"624 52 OFFCURVE",
"616 67 OFFCURVE",
"608 80 CURVE SMOOTH",
"562 157 OFFCURVE",
"526 260 OFFCURVE",
"493 342 CURVE SMOOTH",
"457 435 OFFCURVE",
"423 526 OFFCURVE",
"372 606 CURVE SMOOTH",
"355 634 OFFCURVE",
"354 639 OFFCURVE",
"316 639 CURVE SMOOTH",
"292 639 OFFCURVE",
"273 625 OFFCURVE",
"265 610 CURVE SMOOTH",
"176 450 OFFCURVE",
"153 372 OFFCURVE",
"92 226 CURVE",
"60 157 OFFCURVE",
"28 89 OFFCURVE",
"16 32 CURVE",
"16 8 OFFCURVE",
"49 -4 OFFCURVE",
"75 -4 CURVE SMOOTH",
"92 -4 OFFCURVE",
"104 1 OFFCURVE",
"110 11 CURVE SMOOTH",
"140 60 OFFCURVE",
"148 130 OFFCURVE",
"183 173 CURVE",
"247 172 OFFCURVE",
"290 166 OFFCURVE",
"351 166 CURVE SMOOTH",
"382 166 OFFCURVE",
"412 169 OFFCURVE",
"454 175 CURVE",
"485 129 OFFCURVE",
"491 64 OFFCURVE",
"528 15 CURVE SMOOTH"
);
},
{
closed = 1;
nodes = (
"393 249 OFFCURVE",
"359 250 OFFCURVE",
"319 250 CURVE SMOOTH",
"280 250 OFFCURVE",
"244 253 OFFCURVE",
"204 258 CURVE",
"224 313 OFFCURVE",
"240 354 OFFCURVE",
"261 394 CURVE SMOOTH",
"280 433 OFFCURVE",
"300 475 OFFCURVE",
"317 518 CURVE",
"342 475 OFFCURVE",
"362 424 OFFCURVE",
"379 375 CURVE SMOOTH",
"392 338 OFFCURVE",
"407 294 OFFCURVE",
"425 257 CURVE"
);
}
);
width = 640;
}
);
leftKerningGroup = A;
rightKerningGroup = A;
unicode = 0041;
},
{
glyphname = Aacute;
layers = (
{
layerId = "88A9C6FE-0426-4B07-A0DF-A933171F58B2";
name = Regular;
paths = (
{
closed = 1;
nodes = (
"538 2 OFFCURVE",
"552 -5 OFFCURVE",
"572 -5 CURVE SMOOTH",
"600 -5 OFFCURVE",
"624 10 OFFCURVE",
"624 44 CURVE SMOOTH",
"624 52 OFFCURVE",
"616 67 OFFCURVE",
"608 80 CURVE SMOOTH",
"562 157 OFFCURVE",
"526 260 OFFCURVE",
"493 342 CURVE SMOOTH",
"457 435 OFFCURVE",
"423 526 OFFCURVE",
"372 606 CURVE SMOOTH",
"355 634 OFFCURVE",
"354 639 OFFCURVE",
"316 639 CURVE SMOOTH",
"292 639 OFFCURVE",
"273 625 OFFCURVE",
"265 610 CURVE SMOOTH",
"176 450 OFFCURVE",
"153 372 OFFCURVE",
"92 226 CURVE",
"60 157 OFFCURVE",
"28 89 OFFCURVE",
"16 32 CURVE",
"16 8 OFFCURVE",
"49 -4 OFFCURVE",
"75 -4 CURVE SMOOTH",
"92 -4 OFFCURVE",
"104 1 OFFCURVE",
"110 11 CURVE SMOOTH",
"140 60 OFFCURVE",
"148 130 OFFCURVE",
"183 173 CURVE",
"247 172 OFFCURVE",
"290 166 OFFCURVE",
"351 166 CURVE SMOOTH",
"382 166 OFFCURVE",
"412 169 OFFCURVE",
"454 175 CURVE",
"485 129 OFFCURVE",
"491 64 OFFCURVE",
"528 15 CURVE SMOOTH"
);
},
{
closed = 1;
nodes = (
"393 249 OFFCURVE",
"359 250 OFFCURVE",
"319 250 CURVE SMOOTH",
"280 250 OFFCURVE",
"244 253 OFFCURVE",
"204 258 CURVE",
"224 313 OFFCURVE",
"240 354 OFFCURVE",
"261 394 CURVE SMOOTH",
"280 433 OFFCURVE",
"300 475 OFFCURVE",
"317 518 CURVE",
"342 475 OFFCURVE",
"362 424 OFFCURVE",
"379 375 CURVE SMOOTH",
"392 338 OFFCURVE",
"407 294 OFFCURVE",
"425 257 CURVE"
);
},
{
closed = 1;
nodes = (
"344 842 OFFCURVE",
"325 832 OFFCURVE",
"309 799 CURVE SMOOTH",
"291 760 OFFCURVE",
"277 754 OFFCURVE",
"264 741 CURVE",
"249 729 OFFCURVE",
"243 724 OFFCURVE",
"243 715 CURVE SMOOTH",
"243 704 OFFCURVE",
"249 695 OFFCURVE",
"264 695 CURVE SMOOTH",
"276 695 OFFCURVE",
"316 702 OFFCURVE",
"338 716 CURVE",
"362 730 OFFCURVE",
"417 768 OFFCURVE",
"417 810 CURVE SMOOTH",
"417 829 OFFCURVE",
"399 842 OFFCURVE",
"371 842 CURVE SMOOTH"
);
}
);
width = 640;
}
);
leftKerningGroup = A;
rightKerningGroup = A;
unicode = 00C1;
},
{
glyphname = Abreve;
layers = (
{
layerId = "88A9C6FE-0426-4B07-A0DF-A933171F58B2";
name = Regular;
paths = (
{
closed = 1;
nodes = (
"491 64 OFFCURVE",
"485 129 OFFCURVE",
"454 175 CURVE",
"412 169 OFFCURVE",
"382 166 OFFCURVE",
"351 166 CURVE SMOOTH",
"290 166 OFFCURVE",
"247 172 OFFCURVE",
"183 173 CURVE",
"148 130 OFFCURVE",
"140 60 OFFCURVE",
"110 11 CURVE SMOOTH",
"104 1 OFFCURVE",
"92 -4 OFFCURVE",
"75 -4 CURVE SMOOTH",
"49 -4 OFFCURVE",
"16 8 OFFCURVE",
"16 32 CURVE",
"28 89 OFFCURVE",
"60 157 OFFCURVE",
"92 226 CURVE",
"153 372 OFFCURVE",
"176 450 OFFCURVE",
"265 610 CURVE SMOOTH",
"273 625 OFFCURVE",
"292 639 OFFCURVE",
"316 639 CURVE SMOOTH",
"354 639 OFFCURVE",
"355 634 OFFCURVE",
"372 606 CURVE SMOOTH",
"423 526 OFFCURVE",
"457 435 OFFCURVE",
"493 342 CURVE SMOOTH",
"526 260 OFFCURVE",
"562 157 OFFCURVE",
"608 80 CURVE SMOOTH",
"616 67 OFFCURVE",
"624 52 OFFCURVE",
"624 44 CURVE SMOOTH",
"624 10 OFFCURVE",
"600 -5 OFFCURVE",
"572 -5 CURVE SMOOTH",
"552 -5 OFFCURVE",
"538 2 OFFCURVE",
"528 15 CURVE SMOOTH"
);
},
{
closed = 1;
nodes = (
"407 294 OFFCURVE",
"392 338 OFFCURVE",
"379 375 CURVE SMOOTH",
"362 424 OFFCURVE",
"342 475 OFFCURVE",
"317 518 CURVE",
"300 475 OFFCURVE",
"280 433 OFFCURVE",
"261 394 CURVE SMOOTH",
"240 354 OFFCURVE",
"224 313 OFFCURVE",
"204 258 CURVE",
"244 253 OFFCURVE",
"280 250 OFFCURVE",
"319 250 CURVE SMOOTH",
"359 250 OFFCURVE",
"393 249 OFFCURVE",
"425 257 CURVE"
);
},
{
closed = 1;
nodes = (
"216 747 OFFCURVE",
"259 714 OFFCURVE",
"320 714 CURVE SMOOTH",
"408 714 OFFCURVE",
"438 770 OFFCURVE",
"452 800 CURVE SMOOTH",
"456 808 OFFCURVE",
"458 818 OFFCURVE",
"458 823 CURVE SMOOTH",
"458 836 OFFCURVE",
"438 845 OFFCURVE",
"429 845 CURVE SMOOTH",
"416 845 OFFCURVE",
"407 841 OFFCURVE",
"395 826 CURVE",
"374 802 OFFCURVE",
"352 787 OFFCURVE",
"318 787 CURVE SMOOTH",
"279 787 OFFCURVE",
"258 809 OFFCURVE",
"245 823 CURVE",
"234 833 OFFCURVE",
"224 841 OFFCURVE",
"213 841 CURVE SMOOTH",
"196 841 OFFCURVE",
"179 830 OFFCURVE",
"179 822 CURVE SMOOTH",
"179 814 OFFCURVE",
"184 801 OFFCURVE",
"187 796 CURVE SMOOTH"
);
}
);
width = 640;
}
);
leftKerningGroup = A;
rightKerningGroup = A;
unicode = 0102;
},
{
glyphname = Abreveacute;
layers = (
{
layerId = "88A9C6FE-0426-4B07-A0DF-A933171F58B2";
name = Regular;
paths = (
{
closed = 1;
nodes = (
"538 2 OFFCURVE",
"552 -5 OFFCURVE",
"572 -5 CURVE SMOOTH",
"600 -5 OFFCURVE",
"624 10 OFFCURVE",
"624 44 CURVE SMOOTH",
"624 52 OFFCURVE",
"616 67 OFFCURVE",
"608 80 CURVE SMOOTH",
"562 157 OFFCURVE",
"526 260 OFFCURVE",
"493 342 CURVE SMOOTH",
"457 435 OFFCURVE",
"423 526 OFFCURVE",
"372 606 CURVE SMOOTH",
"355 634 OFFCURVE",
"354 639 OFFCURVE",
"316 639 CURVE SMOOTH",
"292 639 OFFCURVE",
"273 625 OFFCURVE",
"265 610 CURVE SMOOTH",
"176 450 OFFCURVE",
"153 372 OFFCURVE",
"92 226 CURVE",
"60 157 OFFCURVE",
"28 89 OFFCURVE",
"16 32 CURVE",
"16 8 OFFCURVE",
"49 -4 OFFCURVE",
"75 -4 CURVE SMOOTH",
"92 -4 OFFCURVE",
"104 1 OFFCURVE",
"110 11 CURVE SMOOTH",
"140 60 OFFCURVE",
"148 130 OFFCURVE",
"183 173 CURVE",
"247 172 OFFCURVE",
"290 166 OFFCURVE",
"351 166 CURVE SMOOTH",
"382 166 OFFCURVE",
"412 169 OFFCURVE",
"454 175 CURVE",
"485 129 OFFCURVE",
"491 64 OFFCURVE",
"528 15 CURVE SMOOTH"
);
},
{
closed = 1;
nodes = (
"393 249 OFFCURVE",
"359 250 OFFCURVE",
"319 250 CURVE SMOOTH",
"280 250 OFFCURVE",
"244 253 OFFCURVE",
"204 258 CURVE",
"224 313 OFFCURVE",
"240 354 OFFCURVE",
"261 394 CURVE SMOOTH",
"280 433 OFFCURVE",
"300 475 OFFCURVE",
"317 518 CURVE",
"342 475 OFFCURVE",
"362 424 OFFCURVE",
"379 375 CURVE SMOOTH",
"392 338 OFFCURVE",
"407 294 OFFCURVE",
"425 257 CURVE"
);
},
{
closed = 1;
nodes = (
"218 711 OFFCURVE",
"260 683 OFFCURVE",
"322 683 CURVE SMOOTH",
"410 683 OFFCURVE",
"440 735 OFFCURVE",
"454 765 CURVE SMOOTH",
"458 773 OFFCURVE",
"459 783 OFFCURVE",
"459 788 CURVE SMOOTH",
"459 801 OFFCURVE",
"447 810 OFFCURVE",
"438 810 CURVE SMOOTH",
"425 810 OFFCURVE",
"416 805 OFFCURVE",
"404 791 CURVE SMOOTH",
"383 766 OFFCURVE",
"354 751 OFFCURVE",
"320 751 CURVE SMOOTH",
"281 751 OFFCURVE",
"252 774 OFFCURVE",
"240 787 CURVE",
"229 798 OFFCURVE",
"222 805 OFFCURVE",
"211 805 CURVE SMOOTH",
"194 805 OFFCURVE",
"181 794 OFFCURVE",
"181 786 CURVE SMOOTH",
"181 778 OFFCURVE",
"186 765 OFFCURVE",
"188 761 CURVE"
);
},
{
closed = 1;
nodes = (
"359 916 OFFCURVE",
"346 908 OFFCURVE",
"332 876 CURVE",
"325 863 OFFCURVE",
"316 849 OFFCURVE",
"304 837 CURVE",
"290 825 OFFCURVE",
"285 821 OFFCURVE",
"285 814 CURVE SMOOTH",
"285 803 OFFCURVE",
"291 794 OFFCURVE",
"305 794 CURVE SMOOTH",
"346 794 OFFCURVE",
"423 850 OFFCURVE",
"423 885 CURVE SMOOTH",
"423 904 OFFCURVE",
"412 916 OFFCURVE",
"385 916 CURVE SMOOTH"
);
}
);
width = 640;
}
);
unicode = 1EAE;
},
{
glyphname = Abrevedotbelow;
layers = (
{
layerId = "88A9C6FE-0426-4B07-A0DF-A933171F58B2";
name = Regular;
paths = (
{
closed = 1;
nodes = (
"538 2 OFFCURVE",
"552 -5 OFFCURVE",
"572 -5 CURVE SMOOTH",
"600 -5 OFFCURVE",
"624 10 OFFCURVE",
"624 44 CURVE SMOOTH",
"624 52 OFFCURVE",
"616 67 OFFCURVE",
"608 80 CURVE SMOOTH",
"562 157 OFFCURVE",
"526 260 OFFCURVE",
"493 342 CURVE SMOOTH",
"457 435 OFFCURVE",
"423 526 OFFCURVE",
"372 606 CURVE SMOOTH",
"355 634 OFFCURVE",
"354 639 OFFCURVE",
"316 639 CURVE SMOOTH",
"292 639 OFFCURVE",
"273 625 OFFCURVE",
"265 610 CURVE SMOOTH",
"176 450 OFFCURVE",
"153 372 OFFCURVE",
"92 226 CURVE",
"60 157 OFFCURVE",
"28 89 OFFCURVE",
"16 32 CURVE",
"16 8 OFFCURVE",
"49 -4 OFFCURVE",
"75 -4 CURVE SMOOTH",
"92 -4 OFFCURVE",
"104 1 OFFCURVE",
"110 11 CURVE SMOOTH",
"140 60 OFFCURVE",
"148 130 OFFCURVE",
"183 173 CURVE",
"247 172 OFFCURVE",
"290 166 OFFCURVE",
"351 166 CURVE SMOOTH",
"382 166 OFFCURVE",
"412 169 OFFCURVE",
"454 175 CURVE",
"485 129 OFFCURVE",
"491 64 OFFCURVE",
"528 15 CURVE SMOOTH"
);
},
{
closed = 1;
nodes = (
"393 249 OFFCURVE",
"359 250 OFFCURVE",
"319 250 CURVE SMOOTH",
"280 250 OFFCURVE",
"244 253 OFFCURVE",
"204 258 CURVE",
"224 313 OFFCURVE",
"240 354 OFFCURVE",
"261 394 CURVE SMOOTH",
"280 433 OFFCURVE",
"300 475 OFFCURVE",
"317 518 CURVE",
"342 475 OFFCURVE",
"362 424 OFFCURVE",
"379 375 CURVE SMOOTH",
"392 338 OFFCURVE",
"407 294 OFFCURVE",
"425 257 CURVE"
);
},
{
closed = 1;
nodes = (
"370 -77 OFFCURVE",
"357 -59 OFFCURVE",
"322 -59 CURVE SMOOTH",
"292 -59 OFFCURVE",
"263 -75 OFFCURVE",
"263 -116 CURVE SMOOTH",
"263 -142 OFFCURVE",
"285 -158 OFFCURVE",
"312 -158 CURVE SMOOTH",
"336 -158 OFFCURVE",
"370 -141 OFFCURVE",
"370 -106 CURVE SMOOTH"
);
},
{
closed = 1;
nodes = (
"215 719 OFFCURVE",
"258 686 OFFCURVE",
"319 686 CURVE SMOOTH",
"407 686 OFFCURVE",
"437 742 OFFCURVE",
"451 772 CURVE SMOOTH",
"455 780 OFFCURVE",
"457 790 OFFCURVE",
"457 795 CURVE SMOOTH",
"457 808 OFFCURVE",
"437 817 OFFCURVE",
"428 817 CURVE SMOOTH",
"415 817 OFFCURVE",
"406 813 OFFCURVE",
"394 798 CURVE",
"373 774 OFFCURVE",
"351 759 OFFCURVE",
"317 759 CURVE SMOOTH",
"278 759 OFFCURVE",
"257 781 OFFCURVE",
"244 795 CURVE",
"233 805 OFFCURVE",
"223 813 OFFCURVE",
"212 813 CURVE SMOOTH",
"195 813 OFFCURVE",
"178 802 OFFCURVE",
"178 794 CURVE SMOOTH",
"178 786 OFFCURVE",
"183 773 OFFCURVE",
"186 768 CURVE SMOOTH"
);
}
);
width = 640;
}
);
unicode = 1EB6;
},
{
glyphname = Abrevegrave;
layers = (
{
layerId = "88A9C6FE-0426-4B07-A0DF-A933171F58B2";
name = Regular;
paths = (
{
closed = 1;
nodes = (
"538 2 OFFCURVE",
"552 -5 OFFCURVE",
"572 -5 CURVE SMOOTH",
"600 -5 OFFCURVE",
"624 10 OFFCURVE",
"624 44 CURVE SMOOTH",
"624 52 OFFCURVE",
"616 67 OFFCURVE",
"608 80 CURVE SMOOTH",
"562 157 OFFCURVE",
"526 260 OFFCURVE",
"493 342 CURVE SMOOTH",
"457 435 OFFCURVE",
"423 526 OFFCURVE",
"372 606 CURVE SMOOTH",
"355 634 OFFCURVE",
"354 639 OFFCURVE",
"316 639 CURVE SMOOTH",
"292 639 OFFCURVE",
"273 625 OFFCURVE",
"265 610 CURVE SMOOTH",
"176 450 OFFCURVE",
"153 372 OFFCURVE",
"92 226 CURVE",
"60 157 OFFCURVE",
"28 89 OFFCURVE",
"16 32 CURVE",
"16 8 OFFCURVE",
"49 -4 OFFCURVE",
"75 -4 CURVE SMOOTH",
"92 -4 OFFCURVE",
"104 1 OFFCURVE",
"110 11 CURVE SMOOTH",
"140 60 OFFCURVE",
"148 130 OFFCURVE",
"183 173 CURVE",
"247 172 OFFCURVE",
"290 166 OFFCURVE",
"351 166 CURVE SMOOTH",
"382 166 OFFCURVE",
"412 169 OFFCURVE",
"454 175 CURVE",
"485 129 OFFCURVE",
"491 64 OFFCURVE",
"528 15 CURVE SMOOTH"
);
},
{
closed = 1;
nodes = (
"393 249 OFFCURVE",
"359 250 OFFCURVE",
"319 250 CURVE SMOOTH",
"280 250 OFFCURVE",
"244 253 OFFCURVE",
"204 258 CURVE",
"224 313 OFFCURVE",
"240 354 OFFCURVE",
"261 394 CURVE SMOOTH",
"280 433 OFFCURVE",
"300 475 OFFCURVE",
"317 518 CURVE",
"342 475 OFFCURVE",
"362 424 OFFCURVE",
"379 375 CURVE SMOOTH",
"392 338 OFFCURVE",
"407 294 OFFCURVE",
"425 257 CURVE"
);
},
{
closed = 1;
nodes = (
"217 713 OFFCURVE",
"259 685 OFFCURVE",
"321 685 CURVE SMOOTH",
"409 685 OFFCURVE",
"439 737 OFFCURVE",
"453 767 CURVE SMOOTH",
"457 775 OFFCURVE",
"458 785 OFFCURVE",
"458 790 CURVE SMOOTH",
"458 803 OFFCURVE",
"446 812 OFFCURVE",
"437 812 CURVE SMOOTH",
"424 812 OFFCURVE",
"415 807 OFFCURVE",
"403 793 CURVE SMOOTH",
"382 768 OFFCURVE",
"353 753 OFFCURVE",
"319 753 CURVE SMOOTH",
"280 753 OFFCURVE",
"251 776 OFFCURVE",
"239 789 CURVE",
"228 800 OFFCURVE",
"221 807 OFFCURVE",
"210 807 CURVE SMOOTH",
"193 807 OFFCURVE",
"180 796 OFFCURVE",
"180 788 CURVE SMOOTH",
"180 780 OFFCURVE",
"185 767 OFFCURVE",
"187 763 CURVE"
);
},
{
closed = 1;
nodes = (
"227 918 OFFCURVE",
"215 906 OFFCURVE",
"215 887 CURVE SMOOTH",
"215 852 OFFCURVE",
"293 796 OFFCURVE",
"334 796 CURVE SMOOTH",
"348 796 OFFCURVE",
"354 805 OFFCURVE",
"354 816 CURVE SMOOTH",
"354 823 OFFCURVE",
"349 827 OFFCURVE",
"335 839 CURVE",
"322 851 OFFCURVE",
"313 865 OFFCURVE",
"307 878 CURVE SMOOTH",
"293 910 OFFCURVE",
"279 918 OFFCURVE",
"254 918 CURVE SMOOTH"
);
}
);
width = 640;
}
);
unicode = 1EB0;
},
{
glyphname = Abrevehookabove;
layers = (
{
layerId = "88A9C6FE-0426-4B07-A0DF-A933171F58B2";
name = Regular;
paths = (
{
closed = 1;
nodes = (
"538 2 OFFCURVE",
"552 -5 OFFCURVE",
"572 -5 CURVE SMOOTH",
"600 -5 OFFCURVE",
"624 10 OFFCURVE",
"624 44 CURVE SMOOTH",
"624 52 OFFCURVE",
"616 67 OFFCURVE",
"608 80 CURVE SMOOTH",
"562 157 OFFCURVE",
"526 260 OFFCURVE",
"493 342 CURVE SMOOTH",
"457 435 OFFCURVE",
"423 526 OFFCURVE",
"372 606 CURVE SMOOTH",
"355 634 OFFCURVE",
"354 639 OFFCURVE",
"316 639 CURVE SMOOTH",
"292 639 OFFCURVE",
"273 625 OFFCURVE",
"265 610 CURVE SMOOTH",
"176 450 OFFCURVE",
"153 372 OFFCURVE",
"92 226 CURVE",
"60 157 OFFCURVE",
"28 89 OFFCURVE",
"16 32 CURVE",
"16 8 OFFCURVE",
"49 -4 OFFCURVE",
"75 -4 CURVE SMOOTH",
"92 -4 OFFCURVE",
"104 1 OFFCURVE",
"110 11 CURVE SMOOTH",
"140 60 OFFCURVE",
"148 130 OFFCURVE",
"183 173 CURVE",
"247 172 OFFCURVE",
"290 166 OFFCURVE",
"351 166 CURVE SMOOTH",
"382 166 OFFCURVE",
"412 169 OFFCURVE",
"454 175 CURVE",
"485 129 OFFCURVE",
"491 64 OFFCURVE",
"528 15 CURVE SMOOTH"
);
},
{
closed = 1;
nodes = (
"393 249 OFFCURVE",
"359 250 OFFCURVE",
"319 250 CURVE SMOOTH",
"280 250 OFFCURVE",
"244 253 OFFCURVE",
"204 258 CURVE",
"224 313 OFFCURVE",
"240 354 OFFCURVE",
"261 394 CURVE SMOOTH",
"280 433 OFFCURVE",
"300 475 OFFCURVE",
"317 518 CURVE",
"342 475 OFFCURVE",
"362 424 OFFCURVE",
"379 375 CURVE SMOOTH",
"392 338 OFFCURVE",
"407 294 OFFCURVE",
"425 257 CURVE"
);
},
{
closed = 1;
nodes = (
"216 710 OFFCURVE",
"259 682 OFFCURVE",
"320 682 CURVE SMOOTH",
"408 682 OFFCURVE",
"438 734 OFFCURVE",
"452 764 CURVE SMOOTH",
"456 772 OFFCURVE",
"458 782 OFFCURVE",
"458 787 CURVE SMOOTH",
"458 800 OFFCURVE",
"445 809 OFFCURVE",
"436 809 CURVE SMOOTH",
"423 809 OFFCURVE",
"414 804 OFFCURVE",
"402 790 CURVE SMOOTH",
"381 765 OFFCURVE",
"352 750 OFFCURVE",
"318 750 CURVE SMOOTH",
"279 750 OFFCURVE",
"251 773 OFFCURVE",
"238 786 CURVE SMOOTH",
"227 797 OFFCURVE",
"220 804 OFFCURVE",
"209 804 CURVE SMOOTH",
"192 804 OFFCURVE",
"179 793 OFFCURVE",
"179 785 CURVE SMOOTH",
"179 777 OFFCURVE",
"184 764 OFFCURVE",
"187 760 CURVE"
);
},
{
closed = 1;
nodes = (
"268 890 OFFCURVE",
"292 903 OFFCURVE",
"308 903 CURVE SMOOTH",
"324 903 OFFCURVE",
"339 900 OFFCURVE",
"339 883 CURVE SMOOTH",
"339 859 OFFCURVE",
"307 854 OFFCURVE",
"292 842 CURVE",
"287 839 OFFCURVE",
"278 831 OFFCURVE",
"278 818 CURVE SMOOTH",
"278 811 OFFCURVE",
"284 798 OFFCURVE",
"284 798 CURVE",
"290 779 OFFCURVE",
"303 776 OFFCURVE",
"324 776 CURVE SMOOTH",
"338 776 OFFCURVE",
"348 785 OFFCURVE",
"348 793 CURVE SMOOTH",
"348 799 OFFCURVE",
"329 815 OFFCURVE",
"350 824 CURVE",
"384 836 OFFCURVE",
"401 848 OFFCURVE",
"401 890 CURVE SMOOTH",
"401 908 OFFCURVE",
"391 926 OFFCURVE",
"383 930 CURVE",
"365 943 OFFCURVE",
"345 953 OFFCURVE",
"326 953 CURVE SMOOTH",
"304 953 OFFCURVE",
"241 944 OFFCURVE",
"241 914 CURVE SMOOTH",
"241 900 OFFCURVE",
"250 890 OFFCURVE",
"262 890 CURVE SMOOTH"
);
}
);
width = 640;
}
);
unicode = 1EB2;
},
{
glyphname = Abrevetilde;
layers = (
{
layerId = "88A9C6FE-0426-4B07-A0DF-A933171F58B2";
name = Regular;
paths = (
{
closed = 1;
nodes = (
"538 2 OFFCURVE",
"552 -5 OFFCURVE",
"572 -5 CURVE SMOOTH",
"600 -5 OFFCURVE",
"624 10 OFFCURVE",
"624 44 CURVE SMOOTH",
"624 52 OFFCURVE",
"616 67 OFFCURVE",
"608 80 CURVE SMOOTH",
"562 157 OFFCURVE",
"526 260 OFFCURVE",
"493 342 CURVE SMOOTH",
"457 435 OFFCURVE",
"423 526 OFFCURVE",
"372 606 CURVE SMOOTH",
"355 634 OFFCURVE",
"354 639 OFFCURVE",
"316 639 CURVE SMOOTH",
"292 639 OFFCURVE",
"273 625 OFFCURVE",
"265 610 CURVE SMOOTH",
"176 450 OFFCURVE",
"153 372 OFFCURVE",
"92 226 CURVE",
"60 157 OFFCURVE",
"28 89 OFFCURVE",
"16 32 CURVE",
"16 8 OFFCURVE",
"49 -4 OFFCURVE",
"75 -4 CURVE SMOOTH",
"92 -4 OFFCURVE",
"104 1 OFFCURVE",
"110 11 CURVE SMOOTH",
"140 60 OFFCURVE",
"148 130 OFFCURVE",
"183 173 CURVE",
"247 172 OFFCURVE",
"290 166 OFFCURVE",
"351 166 CURVE SMOOTH",
"382 166 OFFCURVE",
"412 169 OFFCURVE",
"454 175 CURVE",
"485 129 OFFCURVE",
"491 64 OFFCURVE",
"528 15 CURVE SMOOTH"
);
},
{
closed = 1;
nodes = (
"393 249 OFFCURVE",
"359 250 OFFCURVE",
"319 250 CURVE SMOOTH",
"280 250 OFFCURVE",
"244 253 OFFCURVE",
"204 258 CURVE",
"224 313 OFFCURVE",
"240 354 OFFCURVE",
"261 394 CURVE SMOOTH",
"280 433 OFFCURVE",
"300 475 OFFCURVE",
"317 518 CURVE",
"342 475 OFFCURVE",
"362 424 OFFCURVE",
"379 375 CURVE SMOOTH",
"392 338 OFFCURVE",
"407 294 OFFCURVE",
"425 257 CURVE"
);
},
{
closed = 1;
nodes = (
"219 712 OFFCURVE",
"262 684 OFFCURVE",
"323 684 CURVE SMOOTH",
"411 684 OFFCURVE",
"441 736 OFFCURVE",
"455 766 CURVE SMOOTH",
"459 774 OFFCURVE",
"461 784 OFFCURVE",
"461 789 CURVE SMOOTH",
"461 802 OFFCURVE",
"448 811 OFFCURVE",
"439 811 CURVE SMOOTH",
"426 811 OFFCURVE",
"417 806 OFFCURVE",
"405 792 CURVE SMOOTH",
"384 767 OFFCURVE",
"355 752 OFFCURVE",
"321 752 CURVE SMOOTH",
"282 752 OFFCURVE",
"254 775 OFFCURVE",
"241 788 CURVE SMOOTH",
"230 799 OFFCURVE",
"223 806 OFFCURVE",
"212 806 CURVE SMOOTH",
"195 806 OFFCURVE",
"182 795 OFFCURVE",
"182 787 CURVE SMOOTH",
"182 779 OFFCURVE",
"187 766 OFFCURVE",
"190 762 CURVE"
);
},
{
closed = 1;
nodes = (
"170 844 OFFCURVE",
"191 834 OFFCURVE",
"200 834 CURVE SMOOTH",
"215 834 OFFCURVE",
"228 840 OFFCURVE",
"238 856 CURVE SMOOTH",
"249 874 OFFCURVE",
"259 877 OFFCURVE",
"273 877 CURVE SMOOTH",
"305 877 OFFCURVE",
"327 837 OFFCURVE",
"378 837 CURVE SMOOTH",
"421 837 OFFCURVE",
"467 877 OFFCURVE",
"467 916 CURVE SMOOTH",
"467 937 OFFCURVE",
"450 946 OFFCURVE",
"437 946 CURVE SMOOTH",
"422 946 OFFCURVE",
"414 938 OFFCURVE",
"407 928 CURVE",
"400 917 OFFCURVE",
"396 905 OFFCURVE",
"379 905 CURVE SMOOTH",
"369 905 OFFCURVE",
"355 910 OFFCURVE",
"338 924 CURVE",
"318 938 OFFCURVE",
"293 947 OFFCURVE",
"270 947 CURVE SMOOTH",
"225 947 OFFCURVE",
"170 912 OFFCURVE",
"170 862 CURVE SMOOTH"
);
}
);
width = 640;
}
);
unicode = 1EB4;
},
{
glyphname = Acaron;
layers = (
{
layerId = "88A9C6FE-0426-4B07-A0DF-A933171F58B2";
name = Regular;
paths = (
{
closed = 1;
nodes = (
"538 2 OFFCURVE",
"552 -5 OFFCURVE",
"572 -5 CURVE SMOOTH",
"600 -5 OFFCURVE",
"624 10 OFFCURVE",
"624 44 CURVE SMOOTH",
"624 52 OFFCURVE",
"616 67 OFFCURVE",
"608 80 CURVE SMOOTH",
"562 157 OFFCURVE",
"526 260 OFFCURVE",
"493 342 CURVE SMOOTH",
"457 435 OFFCURVE",
"423 526 OFFCURVE",
"372 606 CURVE SMOOTH",
"355 634 OFFCURVE",
"354 639 OFFCURVE",
"316 639 CURVE SMOOTH",
"292 639 OFFCURVE",
"273 625 OFFCURVE",
"265 610 CURVE SMOOTH",
"176 450 OFFCURVE",
"153 372 OFFCURVE",
"92 226 CURVE",
"60 157 OFFCURVE",
"28 89 OFFCURVE",
"16 32 CURVE",
"16 8 OFFCURVE",
"49 -4 OFFCURVE",
"75 -4 CURVE SMOOTH",
"92 -4 OFFCURVE",
"104 1 OFFCURVE",
"110 11 CURVE SMOOTH",
"140 60 OFFCURVE",
"148 130 OFFCURVE",
"183 173 CURVE",
"247 172 OFFCURVE",
"290 166 OFFCURVE",
"351 166 CURVE SMOOTH",
"382 166 OFFCURVE",
"412 169 OFFCURVE",
"454 175 CURVE",
"485 129 OFFCURVE",
"491 64 OFFCURVE",
"528 15 CURVE SMOOTH"
);
},
{
closed = 1;
nodes = (
"393 249 OFFCURVE",
"359 250 OFFCURVE",
"319 250 CURVE SMOOTH",
"280 250 OFFCURVE",
"244 253 OFFCURVE",
"204 258 CURVE",
"224 313 OFFCURVE",
"240 354 OFFCURVE",
"261 394 CURVE SMOOTH",
"280 433 OFFCURVE",
"300 475 OFFCURVE",
"317 518 CURVE",
"342 475 OFFCURVE",
"362 424 OFFCURVE",
"379 375 CURVE SMOOTH",
"392 338 OFFCURVE",
"407 294 OFFCURVE",
"425 257 CURVE"
);
},
{
closed = 1;
nodes = (
"347 702 OFFCURVE",
"365 713 OFFCURVE",
"372 722 CURVE SMOOTH",
"379 731 OFFCURVE",
"396 751 OFFCURVE",
"424 778 CURVE SMOOTH",
"441 794 OFFCURVE",
"464 818 OFFCURVE",
"464 829 CURVE SMOOTH",
"464 839 OFFCURVE",
"437 856 OFFCURVE",
"414 856 CURVE SMOOTH",
"386 856 OFFCURVE",
"362 811 OFFCURVE",
"317 773 CURVE",
"279 807 OFFCURVE",
"260 856 OFFCURVE",
"210 856 CURVE SMOOTH",
"192 856 OFFCURVE",
"171 839 OFFCURVE",
"171 829 CURVE SMOOTH",
"171 821 OFFCURVE",
"178 814 OFFCURVE",
"193 797 CURVE SMOOTH",
"215 773 OFFCURVE",
"244 742 OFFCURVE",
"257 730 CURVE",
"274 713 OFFCURVE",
"287 702 OFFCURVE",
"319 702 CURVE SMOOTH"
);
}
);
width = 640;
}
);
unicode = 01CD;
},
{
glyphname = Acircumflex;
layers = (
{
layerId = "88A9C6FE-0426-4B07-A0DF-A933171F58B2";
name = Regular;
paths = (
{
closed = 1;
nodes = (
"538 2 OFFCURVE",
"552 -5 OFFCURVE",
"572 -5 CURVE SMOOTH",
"600 -5 OFFCURVE",
"624 10 OFFCURVE",
"624 44 CURVE SMOOTH",
"624 52 OFFCURVE",
"616 67 OFFCURVE",
"608 80 CURVE SMOOTH",
"562 157 OFFCURVE",
"526 260 OFFCURVE",
"493 342 CURVE SMOOTH",
"457 435 OFFCURVE",
"423 526 OFFCURVE",
"372 606 CURVE SMOOTH",
"355 634 OFFCURVE",
"354 639 OFFCURVE",
"316 639 CURVE SMOOTH",
"292 639 OFFCURVE",
"273 625 OFFCURVE",
"265 610 CURVE SMOOTH",
"176 450 OFFCURVE",
"153 372 OFFCURVE",
"92 226 CURVE",
"60 157 OFFCURVE",
"28 89 OFFCURVE",
"16 32 CURVE",
"16 8 OFFCURVE",
"49 -4 OFFCURVE",
"75 -4 CURVE SMOOTH",
"92 -4 OFFCURVE",
"104 1 OFFCURVE",
"110 11 CURVE SMOOTH",
"140 60 OFFCURVE",
"148 130 OFFCURVE",
"183 173 CURVE",
"247 172 OFFCURVE",
"290 166 OFFCURVE",
"351 166 CURVE SMOOTH",
"382 166 OFFCURVE",
"412 169 OFFCURVE",
"454 175 CURVE",
"485 129 OFFCURVE",
"491 64 OFFCURVE",
"528 15 CURVE SMOOTH"
);
},
{
closed = 1;
nodes = (
"393 249 OFFCURVE",
"359 250 OFFCURVE",
"319 250 CURVE SMOOTH",
"280 250 OFFCURVE",
"244 253 OFFCURVE",
"204 258 CURVE",
"224 313 OFFCURVE",
"240 354 OFFCURVE",
"261 394 CURVE SMOOTH",
"280 433 OFFCURVE",
"300 475 OFFCURVE",
"317 518 CURVE",
"342 475 OFFCURVE",
"362 424 OFFCURVE",
"379 375 CURVE SMOOTH",
"392 338 OFFCURVE",
"407 294 OFFCURVE",
"425 257 CURVE"
);
},
{
closed = 1;
nodes = (
"282 838 OFFCURVE",
"269 821 OFFCURVE",
"262 812 CURVE SMOOTH",
"255 803 OFFCURVE",
"242 786 OFFCURVE",
"213 762 CURVE SMOOTH",
"195 747 OFFCURVE",
"173 722 OFFCURVE",
"173 711 CURVE SMOOTH",
"173 701 OFFCURVE",
"179 684 OFFCURVE",
"203 684 CURVE SMOOTH",
"244 684 OFFCURVE",
"297 735 OFFCURVE",
"320 768 CURVE",
"348 729 OFFCURVE",
"386 684 OFFCURVE",
"436 684 CURVE SMOOTH",
"454 684 OFFCURVE",
"466 701 OFFCURVE",
"466 711 CURVE SMOOTH",
"466 719 OFFCURVE",
"463 729 OFFCURVE",
"444 743 CURVE SMOOTH",
"421 759 OFFCURVE",
"391 788 OFFCURVE",
"377 808 CURVE SMOOTH",
"364 828 OFFCURVE",
"350 838 OFFCURVE",
"318 838 CURVE SMOOTH"
);
}
);
width = 640;
}
);
leftKerningGroup = A;
rightKerningGroup = A;
unicode = 00C2;
},
{
glyphname = Acircumflexacute;
layers = (
{
layerId = "88A9C6FE-0426-4B07-A0DF-A933171F58B2";
name = Regular;
paths = (
{
closed = 1;
nodes = (
"538 2 OFFCURVE",
"552 -5 OFFCURVE",
"572 -5 CURVE SMOOTH",
"600 -5 OFFCURVE",
"624 10 OFFCURVE",
"624 44 CURVE SMOOTH",
"624 52 OFFCURVE",
"616 67 OFFCURVE",
"608 80 CURVE SMOOTH",
"562 157 OFFCURVE",
"526 260 OFFCURVE",
"493 342 CURVE SMOOTH",
"457 435 OFFCURVE",
"423 526 OFFCURVE",
"372 606 CURVE SMOOTH",
"355 634 OFFCURVE",
"354 639 OFFCURVE",
"316 639 CURVE SMOOTH",
"292 639 OFFCURVE",
"273 625 OFFCURVE",
"265 610 CURVE SMOOTH",
"176 450 OFFCURVE",
"153 372 OFFCURVE",
"92 226 CURVE",
"60 157 OFFCURVE",
"28 89 OFFCURVE",
"16 32 CURVE",
"16 8 OFFCURVE",
"49 -4 OFFCURVE",
"75 -4 CURVE SMOOTH",
"92 -4 OFFCURVE",
"104 1 OFFCURVE",
"110 11 CURVE SMOOTH",
"140 60 OFFCURVE",
"148 130 OFFCURVE",
"183 173 CURVE",
"247 172 OFFCURVE",
"290 166 OFFCURVE",
"351 166 CURVE SMOOTH",
"382 166 OFFCURVE",
"412 169 OFFCURVE",
"454 175 CURVE",
"485 129 OFFCURVE",
"491 64 OFFCURVE",
"528 15 CURVE SMOOTH"
);
},
{
closed = 1;
nodes = (
"393 249 OFFCURVE",
"359 250 OFFCURVE",
"319 250 CURVE SMOOTH",
"280 250 OFFCURVE",
"244 253 OFFCURVE",
"204 258 CURVE",
"224 313 OFFCURVE",
"240 354 OFFCURVE",
"261 394 CURVE SMOOTH",
"280 433 OFFCURVE",
"300 475 OFFCURVE",
"317 518 CURVE",
"342 475 OFFCURVE",
"362 424 OFFCURVE",
"379 375 CURVE SMOOTH",
"392 338 OFFCURVE",
"407 294 OFFCURVE",
"425 257 CURVE"
);
},
{
closed = 1;
nodes = (
"282 830 OFFCURVE",
"269 814 OFFCURVE",
"262 806 CURVE",
"256 798 OFFCURVE",
"243 782 OFFCURVE",
"214 758 CURVE SMOOTH",
"197 744 OFFCURVE",
"175 722 OFFCURVE",
"175 711 CURVE SMOOTH",
"175 702 OFFCURVE",
"181 686 OFFCURVE",
"203 686 CURVE SMOOTH",
"245 686 OFFCURVE",
"297 734 OFFCURVE",
"319 765 CURVE",
"348 729 OFFCURVE",
"385 686 OFFCURVE",
"435 686 CURVE SMOOTH",
"452 686 OFFCURVE",
"464 702 OFFCURVE",
"464 711 CURVE SMOOTH",
"464 719 OFFCURVE",
"461 729 OFFCURVE",
"442 742 CURVE SMOOTH",
"420 756 OFFCURVE",
"390 783 OFFCURVE",
"377 801 CURVE SMOOTH",
"364 820 OFFCURVE",
"350 830 OFFCURVE",
"318 830 CURVE SMOOTH"
);
},
{
closed = 1;
nodes = (
"494 899 OFFCURVE",
"481 891 OFFCURVE",
"466 859 CURVE SMOOTH",
"460 846 OFFCURVE",
"451 832 OFFCURVE",
"438 820 CURVE SMOOTH",
"425 808 OFFCURVE",
"419 804 OFFCURVE",
"419 797 CURVE SMOOTH",
"419 786 OFFCURVE",
"426 777 OFFCURVE",
"439 777 CURVE SMOOTH",
"481 777 OFFCURVE",
"558 833 OFFCURVE",
"558 868 CURVE SMOOTH",
"558 887 OFFCURVE",
"546 899 OFFCURVE",
"519 899 CURVE SMOOTH"
);
}
);
width = 640;
}
);
unicode = 1EA4;
},
{
glyphname = Acircumflexdotbelow;
layers = (
{
layerId = "88A9C6FE-0426-4B07-A0DF-A933171F58B2";
name = Regular;
paths = (
{
closed = 1;
nodes = (
"538 2 OFFCURVE",
"552 -5 OFFCURVE",
"572 -5 CURVE SMOOTH",
"600 -5 OFFCURVE",
"624 10 OFFCURVE",
"624 44 CURVE SMOOTH",
"624 52 OFFCURVE",
"616 67 OFFCURVE",
"608 80 CURVE SMOOTH",
"562 157 OFFCURVE",
"526 260 OFFCURVE",
"493 342 CURVE SMOOTH",
"457 435 OFFCURVE",
"423 526 OFFCURVE",
"372 606 CURVE SMOOTH",
"355 634 OFFCURVE",
"354 639 OFFCURVE",
"316 639 CURVE SMOOTH",
"292 639 OFFCURVE",
"273 625 OFFCURVE",
"265 610 CURVE SMOOTH",
"176 450 OFFCURVE",
"153 372 OFFCURVE",
"92 226 CURVE",
"60 157 OFFCURVE",
"28 89 OFFCURVE",
"16 32 CURVE",
"16 8 OFFCURVE",
"49 -4 OFFCURVE",
"75 -4 CURVE SMOOTH",
"92 -4 OFFCURVE",
"104 1 OFFCURVE",
"110 11 CURVE SMOOTH",
"140 60 OFFCURVE",
"148 130 OFFCURVE",
"183 173 CURVE",
"247 172 OFFCURVE",
"290 166 OFFCURVE",
"351 166 CURVE SMOOTH",
"382 166 OFFCURVE",
"412 169 OFFCURVE",
"454 175 CURVE",
"485 129 OFFCURVE",
"491 64 OFFCURVE",
"528 15 CURVE SMOOTH"
);
},
{
closed = 1;
nodes = (
"393 249 OFFCURVE",
"359 250 OFFCURVE",
"319 250 CURVE SMOOTH",
"280 250 OFFCURVE",
"244 253 OFFCURVE",
"204 258 CURVE",
"224 313 OFFCURVE",
"240 354 OFFCURVE",
"261 394 CURVE SMOOTH",
"280 433 OFFCURVE",
"300 475 OFFCURVE",
"317 518 CURVE",
"342 475 OFFCURVE",
"362 424 OFFCURVE",
"379 375 CURVE SMOOTH",
"392 338 OFFCURVE",
"407 294 OFFCURVE",
"425 257 CURVE"
);
},
{
closed = 1;
nodes = (
"371 -77 OFFCURVE",
"358 -59 OFFCURVE",
"323 -59 CURVE SMOOTH",
"293 -59 OFFCURVE",
"264 -75 OFFCURVE",
"264 -116 CURVE SMOOTH",
"264 -142 OFFCURVE",
"286 -158 OFFCURVE",
"313 -158 CURVE SMOOTH",
"337 -158 OFFCURVE",
"371 -141 OFFCURVE",
"371 -106 CURVE SMOOTH"
);
},
{
closed = 1;
nodes = (
"280 838 OFFCURVE",
"267 821 OFFCURVE",
"260 812 CURVE SMOOTH",
"253 803 OFFCURVE",
"240 786 OFFCURVE",
"211 762 CURVE SMOOTH",
"193 747 OFFCURVE",
"171 722 OFFCURVE",
"171 711 CURVE SMOOTH",
"171 701 OFFCURVE",
"177 684 OFFCURVE",
"201 684 CURVE SMOOTH",
"242 684 OFFCURVE",
"295 735 OFFCURVE",
"318 768 CURVE",
"346 729 OFFCURVE",
"384 684 OFFCURVE",
"434 684 CURVE SMOOTH",
"452 684 OFFCURVE",
"464 701 OFFCURVE",
"464 711 CURVE SMOOTH",
"464 719 OFFCURVE",
"461 729 OFFCURVE",
"442 743 CURVE SMOOTH",
"419 759 OFFCURVE",
"389 788 OFFCURVE",
"375 808 CURVE SMOOTH",
"362 828 OFFCURVE",
"348 838 OFFCURVE",
"316 838 CURVE SMOOTH"
);
}
);
width = 640;
}
);
unicode = 1EAC;
},
{
glyphname = Acircumflexgrave;
layers = (
{
layerId = "88A9C6FE-0426-4B07-A0DF-A933171F58B2";
name = Regular;
paths = (
{
closed = 1;
nodes = (
"538 2 OFFCURVE",
"552 -5 OFFCURVE",
"572 -5 CURVE SMOOTH",
"600 -5 OFFCURVE",
"624 10 OFFCURVE",
"624 44 CURVE SMOOTH",
"624 52 OFFCURVE",
"616 67 OFFCURVE",
"608 80 CURVE SMOOTH",
"562 157 OFFCURVE",
"526 260 OFFCURVE",
"493 342 CURVE SMOOTH",
"457 435 OFFCURVE",
"423 526 OFFCURVE",
"372 606 CURVE SMOOTH",
"355 634 OFFCURVE",
"354 639 OFFCURVE",
"316 639 CURVE SMOOTH",
"292 639 OFFCURVE",
"273 625 OFFCURVE",
"265 610 CURVE SMOOTH",
"176 450 OFFCURVE",
"153 372 OFFCURVE",
"92 226 CURVE",
"60 157 OFFCURVE",
"28 89 OFFCURVE",
"16 32 CURVE",
"16 8 OFFCURVE",
"49 -4 OFFCURVE",
"75 -4 CURVE SMOOTH",
"92 -4 OFFCURVE",
"104 1 OFFCURVE",
"110 11 CURVE SMOOTH",
"140 60 OFFCURVE",
"148 130 OFFCURVE",
"183 173 CURVE",
"247 172 OFFCURVE",
"290 166 OFFCURVE",
"351 166 CURVE SMOOTH",
"382 166 OFFCURVE",
"412 169 OFFCURVE",
"454 175 CURVE",
"485 129 OFFCURVE",
"491 64 OFFCURVE",
"528 15 CURVE SMOOTH"
);
},
{
closed = 1;
nodes = (
"393 249 OFFCURVE",
"359 250 OFFCURVE",
"319 250 CURVE SMOOTH",
"280 250 OFFCURVE",
"244 253 OFFCURVE",
"204 258 CURVE",
"224 313 OFFCURVE",
"240 354 OFFCURVE",
"261 394 CURVE SMOOTH",
"280 433 OFFCURVE",
"300 475 OFFCURVE",
"317 518 CURVE",
"342 475 OFFCURVE",
"362 424 OFFCURVE",
"379 375 CURVE SMOOTH",
"392 338 OFFCURVE",
"407 294 OFFCURVE",
"425 257 CURVE"
);
},
{
closed = 1;
nodes = (
"284 830 OFFCURVE",
"271 816 OFFCURVE",
"265 806 CURVE",
"259 797 OFFCURVE",
"246 782 OFFCURVE",
"217 758 CURVE SMOOTH",
"200 744 OFFCURVE",
"177 722 OFFCURVE",
"177 711 CURVE SMOOTH",
"177 702 OFFCURVE",
"184 686 OFFCURVE",
"206 686 CURVE SMOOTH",
"247 686 OFFCURVE",
"300 734 OFFCURVE",
"322 765 CURVE",
"351 729 OFFCURVE",
"388 686 OFFCURVE",
"437 686 CURVE SMOOTH",
"454 686 OFFCURVE",
"467 702 OFFCURVE",
"467 711 CURVE SMOOTH",
"467 719 OFFCURVE",
"463 729 OFFCURVE",
"445 742 CURVE",
"423 756 OFFCURVE",
"392 783 OFFCURVE",
"380 801 CURVE",
"366 820 OFFCURVE",
"353 830 OFFCURVE",
"320 830 CURVE SMOOTH"
);
},
{
closed = 1;
nodes = (
"94 899 OFFCURVE",
"82 887 OFFCURVE",
"82 868 CURVE SMOOTH",
"82 833 OFFCURVE",
"159 777 OFFCURVE",
"201 777 CURVE SMOOTH",
"214 777 OFFCURVE",
"220 786 OFFCURVE",
"220 797 CURVE SMOOTH",
"220 804 OFFCURVE",
"215 808 OFFCURVE",
"202 820 CURVE SMOOTH",
"189 832 OFFCURVE",
"180 846 OFFCURVE",
"174 859 CURVE SMOOTH",
"159 891 OFFCURVE",
"146 899 OFFCURVE",
"121 899 CURVE SMOOTH"
);
}
);
width = 640;
}
);
unicode = 1EA6;
},
{
glyphname = Acircumflexhookabove;
layers = (
{
layerId = "88A9C6FE-0426-4B07-A0DF-A933171F58B2";
name = Regular;
paths = (
{
closed = 1;
nodes = (
"538 2 OFFCURVE",
"552 -5 OFFCURVE",
"572 -5 CURVE SMOOTH",
"600 -5 OFFCURVE",
"624 10 OFFCURVE",
"624 44 CURVE SMOOTH",
"624 52 OFFCURVE",
"616 67 OFFCURVE",
"608 80 CURVE SMOOTH",
"562 157 OFFCURVE",
"526 260 OFFCURVE",
"493 342 CURVE SMOOTH",
"457 435 OFFCURVE",
"423 526 OFFCURVE",
"372 606 CURVE SMOOTH",
"355 634 OFFCURVE",
"354 639 OFFCURVE",
"316 639 CURVE SMOOTH",
"292 639 OFFCURVE",
"273 625 OFFCURVE",
"265 610 CURVE SMOOTH",
"176 450 OFFCURVE",
"153 372 OFFCURVE",
"92 226 CURVE",
"60 157 OFFCURVE",
"28 89 OFFCURVE",
"16 32 CURVE",
"16 8 OFFCURVE",
"49 -4 OFFCURVE",
"75 -4 CURVE SMOOTH",
"92 -4 OFFCURVE",
"104 1 OFFCURVE",
"110 11 CURVE SMOOTH",
"140 60 OFFCURVE",
"148 130 OFFCURVE",
"183 173 CURVE",
"247 172 OFFCURVE",
"290 166 OFFCURVE",
"351 166 CURVE SMOOTH",
"382 166 OFFCURVE",
"412 169 OFFCURVE",
"454 175 CURVE",
"485 129 OFFCURVE",
"491 64 OFFCURVE",
"528 15 CURVE SMOOTH"
);
},
{
closed = 1;
nodes = (
"393 249 OFFCURVE",
"359 250 OFFCURVE",
"319 250 CURVE SMOOTH",
"280 250 OFFCURVE",
"244 253 OFFCURVE",
"204 258 CURVE",
"224 313 OFFCURVE",
"240 354 OFFCURVE",
"261 394 CURVE SMOOTH",
"280 433 OFFCURVE",
"300 475 OFFCURVE",
"317 518 CURVE",
"342 475 OFFCURVE",
"362 424 OFFCURVE",
"379 375 CURVE SMOOTH",
"392 338 OFFCURVE",
"407 294 OFFCURVE",
"425 257 CURVE"
);
},
{
closed = 1;
nodes = (
"285 830 OFFCURVE",
"271 816 OFFCURVE",
"265 806 CURVE",
"259 797 OFFCURVE",
"246 782 OFFCURVE",
"217 758 CURVE SMOOTH",
"200 744 OFFCURVE",
"177 722 OFFCURVE",
"177 711 CURVE SMOOTH",
"177 702 OFFCURVE",
"184 686 OFFCURVE",
"206 686 CURVE SMOOTH",
"248 686 OFFCURVE",
"300 734 OFFCURVE",
"322 765 CURVE",
"351 729 OFFCURVE",
"388 686 OFFCURVE",
"438 686 CURVE SMOOTH",
"455 686 OFFCURVE",
"467 702 OFFCURVE",
"467 711 CURVE SMOOTH",
"467 719 OFFCURVE",
"464 729 OFFCURVE",
"445 742 CURVE SMOOTH",
"423 756 OFFCURVE",
"393 783 OFFCURVE",
"380 801 CURVE SMOOTH",
"366 820 OFFCURVE",
"353 830 OFFCURVE",
"321 830 CURVE SMOOTH"
);
},
{
closed = 1;
nodes = (
"418 887 OFFCURVE",
"442 900 OFFCURVE",
"458 900 CURVE SMOOTH",
"474 900 OFFCURVE",
"489 898 OFFCURVE",
"489 881 CURVE SMOOTH",
"489 855 OFFCURVE",
"457 851 OFFCURVE",
"442 839 CURVE",
"437 836 OFFCURVE",
"429 828 OFFCURVE",
"429 814 CURVE SMOOTH",
"429 808 OFFCURVE",
"434 793 OFFCURVE",
"434 793 CURVE",
"440 775 OFFCURVE",
"453 772 OFFCURVE",
"474 772 CURVE SMOOTH",
"488 772 OFFCURVE",
"499 781 OFFCURVE",
"499 790 CURVE SMOOTH",
"499 795 OFFCURVE",
"479 811 OFFCURVE",
"500 820 CURVE",
"535 833 OFFCURVE",
"552 845 OFFCURVE",
"552 888 CURVE SMOOTH",
"552 906 OFFCURVE",
"542 923 OFFCURVE",
"534 928 CURVE",
"516 941 OFFCURVE",
"496 952 OFFCURVE",
"476 952 CURVE SMOOTH",
"454 952 OFFCURVE",
"390 943 OFFCURVE",
"390 911 CURVE SMOOTH",
"390 898 OFFCURVE",
"399 887 OFFCURVE",
"411 887 CURVE SMOOTH"
);
}
);
width = 640;
}
);
unicode = 1EA8;
},
{
glyphname = Acircumflextilde;
layers = (
{
layerId = "88A9C6FE-0426-4B07-A0DF-A933171F58B2";
name = Regular;
paths = (
{
closed = 1;
nodes = (
"538 2 OFFCURVE",
"552 -5 OFFCURVE",
"572 -5 CURVE SMOOTH",
"600 -5 OFFCURVE",
"624 10 OFFCURVE",
"624 44 CURVE SMOOTH",
"624 52 OFFCURVE",
"616 67 OFFCURVE",
"608 80 CURVE SMOOTH",
"562 157 OFFCURVE",
"526 260 OFFCURVE",
"493 342 CURVE SMOOTH",
"457 435 OFFCURVE",
"423 526 OFFCURVE",
"372 606 CURVE SMOOTH",
"355 634 OFFCURVE",
"354 639 OFFCURVE",
"316 639 CURVE SMOOTH",
"292 639 OFFCURVE",
"273 625 OFFCURVE",
"265 610 CURVE SMOOTH",
"176 450 OFFCURVE",
"153 372 OFFCURVE",
"92 226 CURVE",
"60 157 OFFCURVE",
"28 89 OFFCURVE",
"16 32 CURVE",
"16 8 OFFCURVE",
"49 -4 OFFCURVE",
"75 -4 CURVE SMOOTH",
"92 -4 OFFCURVE",
"104 1 OFFCURVE",
"110 11 CURVE SMOOTH",
"140 60 OFFCURVE",
"148 130 OFFCURVE",
"183 173 CURVE",
"247 172 OFFCURVE",
"290 166 OFFCURVE",
"351 166 CURVE SMOOTH",
"382 166 OFFCURVE",
"412 169 OFFCURVE",
"454 175 CURVE",
"485 129 OFFCURVE",
"491 64 OFFCURVE",
"528 15 CURVE SMOOTH"
);
},
{
closed = 1;
nodes = (
"393 249 OFFCURVE",
"359 250 OFFCURVE",
"319 250 CURVE SMOOTH",
"280 250 OFFCURVE",
"244 253 OFFCURVE",
"204 258 CURVE",
"224 313 OFFCURVE",
"240 354 OFFCURVE",
"261 394 CURVE SMOOTH",
"280 433 OFFCURVE",
"300 475 OFFCURVE",
"317 518 CURVE",
"342 475 OFFCURVE",
"362 424 OFFCURVE",
"379 375 CURVE SMOOTH",
"392 338 OFFCURVE",
"407 294 OFFCURVE",
"425 257 CURVE"
);
},
{
closed = 1;
nodes = (
"281 830 OFFCURVE",
"268 816 OFFCURVE",
"262 806 CURVE",
"256 797 OFFCURVE",
"243 782 OFFCURVE",
"214 758 CURVE SMOOTH",
"197 744 OFFCURVE",
"174 722 OFFCURVE",
"174 711 CURVE SMOOTH",
"174 702 OFFCURVE",
"181 686 OFFCURVE",
"203 686 CURVE SMOOTH",
"244 686 OFFCURVE",
"297 734 OFFCURVE",
"319 765 CURVE",
"348 729 OFFCURVE",
"385 686 OFFCURVE",
"434 686 CURVE SMOOTH",
"451 686 OFFCURVE",
"464 702 OFFCURVE",
"464 711 CURVE SMOOTH",
"464 719 OFFCURVE",
"460 729 OFFCURVE",
"442 742 CURVE",
"420 756 OFFCURVE",
"389 783 OFFCURVE",
"377 801 CURVE",
"363 820 OFFCURVE",
"350 830 OFFCURVE",
"317 830 CURVE SMOOTH"
);
},
{
closed = 1;
nodes = (
"171 852 OFFCURVE",
"191 842 OFFCURVE",
"200 842 CURVE SMOOTH",
"216 842 OFFCURVE",
"229 848 OFFCURVE",
"239 864 CURVE SMOOTH",
"250 882 OFFCURVE",
"260 885 OFFCURVE",
"274 885 CURVE SMOOTH",
"306 885 OFFCURVE",
"328 845 OFFCURVE",
"379 845 CURVE SMOOTH",
"422 845 OFFCURVE",
"468 885 OFFCURVE",
"468 924 CURVE SMOOTH",
"468 945 OFFCURVE",
"451 954 OFFCURVE",
"438 954 CURVE SMOOTH",
"423 954 OFFCURVE",
"415 946 OFFCURVE",
"408 936 CURVE",
"401 925 OFFCURVE",
"397 913 OFFCURVE",
"379 913 CURVE SMOOTH",
"370 913 OFFCURVE",
"356 918 OFFCURVE",
"339 932 CURVE",
"319 946 OFFCURVE",
"294 955 OFFCURVE",
"271 955 CURVE SMOOTH",
"226 955 OFFCURVE",
"171 920 OFFCURVE",
"171 870 CURVE SMOOTH"
);
}
);
width = 640;
}
);
unicode = 1EAA;
},
{
glyphname = Adblgrave;
layers = (
{
layerId = "88A9C6FE-0426-4B07-A0DF-A933171F58B2";
name = Regular;
paths = (
{
closed = 1;
nodes = (
"538 2 OFFCURVE",
"552 -5 OFFCURVE",
"572 -5 CURVE SMOOTH",
"600 -5 OFFCURVE",
"624 10 OFFCURVE",
"624 44 CURVE SMOOTH",
"624 52 OFFCURVE",
"616 67 OFFCURVE",
"608 80 CURVE SMOOTH",
"562 157 OFFCURVE",
"526 260 OFFCURVE",
"493 342 CURVE SMOOTH",
"457 435 OFFCURVE",
"423 526 OFFCURVE",
"372 606 CURVE SMOOTH",
"355 634 OFFCURVE",
"354 639 OFFCURVE",
"316 639 CURVE SMOOTH",
"292 639 OFFCURVE",
"273 625 OFFCURVE",
"265 610 CURVE SMOOTH",
"176 450 OFFCURVE",
"153 372 OFFCURVE",
"92 226 CURVE",
"60 157 OFFCURVE",
"28 89 OFFCURVE",
"16 32 CURVE",
"16 8 OFFCURVE",
"49 -4 OFFCURVE",
"75 -4 CURVE SMOOTH",
"92 -4 OFFCURVE",
"104 1 OFFCURVE",
"110 11 CURVE SMOOTH",
"140 60 OFFCURVE",
"148 130 OFFCURVE",
"183 173 CURVE",
"247 172 OFFCURVE",
"290 166 OFFCURVE",
"351 166 CURVE SMOOTH",
"382 166 OFFCURVE",
"412 169 OFFCURVE",
"454 175 CURVE",
"485 129 OFFCURVE",
"491 64 OFFCURVE",
"528 15 CURVE SMOOTH"
);
},
{
closed = 1;
nodes = (
"393 249 OFFCURVE",
"359 250 OFFCURVE",
"319 250 CURVE SMOOTH",
"280 250 OFFCURVE",
"244 253 OFFCURVE",
"204 258 CURVE",
"224 313 OFFCURVE",
"240 354 OFFCURVE",
"261 394 CURVE SMOOTH",
"280 433 OFFCURVE",
"300 475 OFFCURVE",
"317 518 CURVE",
"342 475 OFFCURVE",
"362 424 OFFCURVE",
"379 375 CURVE SMOOTH",
"392 338 OFFCURVE",
"407 294 OFFCURVE",
"425 257 CURVE"
);
},
{
closed = 1;
nodes = (
"292 864 OFFCURVE",
"276 860 OFFCURVE",
"276 841 CURVE SMOOTH",
"276 820 OFFCURVE",
"325 771 OFFCURVE",
"350 746 CURVE SMOOTH",
"371 725 OFFCURVE",
"381 721 OFFCURVE",
"393 721 CURVE SMOOTH",
"407 721 OFFCURVE",
"420 725 OFFCURVE",
"420 735 CURVE SMOOTH",
"420 744 OFFCURVE",
"418 750 OFFCURVE",
"410 766 CURVE SMOOTH",
"400 785 OFFCURVE",
"388 798 OFFCURVE",
"371 822 CURVE SMOOTH",
"350 852 OFFCURVE",
"346 864 OFFCURVE",
"319 864 CURVE SMOOTH"
);
},
{
closed = 1;
nodes = (
"146 864 OFFCURVE",
"130 860 OFFCURVE",
"130 841 CURVE SMOOTH",
"130 820 OFFCURVE",
"178 771 OFFCURVE",
"203 746 CURVE SMOOTH",
"224 725 OFFCURVE",
"234 721 OFFCURVE",
"247 721 CURVE SMOOTH",
"260 721 OFFCURVE",
"274 725 OFFCURVE",
"274 735 CURVE SMOOTH",
"274 744 OFFCURVE",
"272 750 OFFCURVE",
"264 766 CURVE SMOOTH",
"254 785 OFFCURVE",
"241 798 OFFCURVE",
"224 822 CURVE SMOOTH",
"203 852 OFFCURVE",
"199 864 OFFCURVE",
"173 864 CURVE SMOOTH"
);
}
);
width = 640;
}
);
unicode = 0200;
},
{
glyphname = Adieresis;
layers = (
{
layerId = "88A9C6FE-0426-4B07-A0DF-A933171F58B2";
name = Regular;
paths = (
{
closed = 1;
nodes = (
"538 2 OFFCURVE",
"552 -5 OFFCURVE",
"572 -5 CURVE SMOOTH",
"600 -5 OFFCURVE",
"624 10 OFFCURVE",
"624 44 CURVE SMOOTH",
"624 52 OFFCURVE",
"616 67 OFFCURVE",
"608 80 CURVE SMOOTH",
"562 157 OFFCURVE",
"526 260 OFFCURVE",
"493 342 CURVE SMOOTH",
"457 435 OFFCURVE",
"423 526 OFFCURVE",
"372 606 CURVE SMOOTH",
"355 634 OFFCURVE",
"354 639 OFFCURVE",
"316 639 CURVE SMOOTH",
"292 639 OFFCURVE",
"273 625 OFFCURVE",
"265 610 CURVE SMOOTH",
"176 450 OFFCURVE",
"153 372 OFFCURVE",
"92 226 CURVE",
"60 157 OFFCURVE",
"28 89 OFFCURVE",
"16 32 CURVE",
"16 8 OFFCURVE",
"49 -4 OFFCURVE",
"75 -4 CURVE SMOOTH",
"92 -4 OFFCURVE",
"104 1 OFFCURVE",
"110 11 CURVE SMOOTH",
"140 60 OFFCURVE",
"148 130 OFFCURVE",
"183 173 CURVE",
"247 172 OFFCURVE",
"290 166 OFFCURVE",
"351 166 CURVE SMOOTH",
"382 166 OFFCURVE",
"412 169 OFFCURVE",
"454 175 CURVE",
"485 129 OFFCURVE",
"491 64 OFFCURVE",
"528 15 CURVE SMOOTH"
);
},
{
closed = 1;
nodes = (
"393 249 OFFCURVE",
"359 250 OFFCURVE",
"319 250 CURVE SMOOTH",
"280 250 OFFCURVE",
"244 253 OFFCURVE",
"204 258 CURVE",
"224 313 OFFCURVE",
"240 354 OFFCURVE",
"261 394 CURVE SMOOTH",
"280 433 OFFCURVE",
"300 475 OFFCURVE",
"317 518 CURVE",
"342 475 OFFCURVE",
"362 424 OFFCURVE",
"379 375 CURVE SMOOTH",
"392 338 OFFCURVE",
"407 294 OFFCURVE",
"425 257 CURVE"
);
},
{
closed = 1;
nodes = (
"185 812 OFFCURVE",
"184 774 OFFCURVE",
"184 754 CURVE SMOOTH",
"184 741 OFFCURVE",
"190 715 OFFCURVE",
"227 715 CURVE SMOOTH",
"259 715 OFFCURVE",
"285 730 OFFCURVE",
"285 756 CURVE SMOOTH",
"285 795 OFFCURVE",
"248 809 OFFCURVE",
"216 810 CURVE SMOOTH"
);
},
{
closed = 1;
nodes = (
"353 812 OFFCURVE",
"352 774 OFFCURVE",
"352 754 CURVE SMOOTH",
"352 741 OFFCURVE",
"358 715 OFFCURVE",
"395 715 CURVE SMOOTH",
"428 715 OFFCURVE",
"453 730 OFFCURVE",
"453 756 CURVE SMOOTH",
"453 795 OFFCURVE",
"416 809 OFFCURVE",
"385 810 CURVE SMOOTH"
);
}
);
width = 640;
}
);
leftKerningGroup = A;
rightKerningGroup = A;
unicode = 00C4;
},
{
glyphname = Adotbelow;
layers = (
{
layerId = "88A9C6FE-0426-4B07-A0DF-A933171F58B2";
name = Regular;
paths = (
{
closed = 1;
nodes = (
"538 2 OFFCURVE",
"552 -5 OFFCURVE",
"572 -5 CURVE SMOOTH",
"600 -5 OFFCURVE",
"624 10 OFFCURVE",
"624 44 CURVE SMOOTH",
"624 52 OFFCURVE",
"616 67 OFFCURVE",
"608 80 CURVE SMOOTH",
"562 157 OFFCURVE",
"526 260 OFFCURVE",
"493 342 CURVE SMOOTH",
"457 435 OFFCURVE",
"423 526 OFFCURVE",
"372 606 CURVE SMOOTH",
"355 634 OFFCURVE",
"354 639 OFFCURVE",
"316 639 CURVE SMOOTH",
"292 639 OFFCURVE",
"273 625 OFFCURVE",
"265 610 CURVE SMOOTH",
"176 450 OFFCURVE",
"153 372 OFFCURVE",
"92 226 CURVE",
"60 157 OFFCURVE",
"28 89 OFFCURVE",
"16 32 CURVE",
"16 8 OFFCURVE",
"49 -4 OFFCURVE",
"75 -4 CURVE SMOOTH",
"92 -4 OFFCURVE",
"104 1 OFFCURVE",
"110 11 CURVE SMOOTH",
"140 60 OFFCURVE",
"148 130 OFFCURVE",
"183 173 CURVE",
"247 172 OFFCURVE",
"290 166 OFFCURVE",
"351 166 CURVE SMOOTH",
"382 166 OFFCURVE",
"412 169 OFFCURVE",
"454 175 CURVE",
"485 129 OFFCURVE",
"491 64 OFFCURVE",
"528 15 CURVE SMOOTH"
);
},
{
closed = 1;
nodes = (
"393 249 OFFCURVE",
"359 250 OFFCURVE",
"319 250 CURVE SMOOTH",
"280 250 OFFCURVE",
"244 253 OFFCURVE",
"204 258 CURVE",
"224 313 OFFCURVE",
"240 354 OFFCURVE",
"261 394 CURVE SMOOTH",
"280 433 OFFCURVE",
"300 475 OFFCURVE",
"317 518 CURVE",
"342 475 OFFCURVE",
"362 424 OFFCURVE",
"379 375 CURVE SMOOTH",
"392 338 OFFCURVE",
"407 294 OFFCURVE",
"425 257 CURVE"
);
},
{
closed = 1;
nodes = (
"372 -77 OFFCURVE",
"359 -59 OFFCURVE",
"324 -59 CURVE SMOOTH",
"294 -59 OFFCURVE",
"265 -75 OFFCURVE",
"265 -116 CURVE SMOOTH",
"265 -142 OFFCURVE",
"287 -158 OFFCURVE",
"314 -158 CURVE SMOOTH",
"338 -158 OFFCURVE",
"372 -141 OFFCURVE",
"372 -106 CURVE SMOOTH"
);
}
);
width = 640;
}
);
unicode = 1EA0;
},
{
glyphname = Agrave;
layers = (
{
layerId = "88A9C6FE-0426-4B07-A0DF-A933171F58B2";
name = Regular;
paths = (
{
closed = 1;
nodes = (
"538 2 OFFCURVE",
"552 -5 OFFCURVE",
"572 -5 CURVE SMOOTH",
"600 -5 OFFCURVE",
"624 10 OFFCURVE",
"624 44 CURVE SMOOTH",
"624 52 OFFCURVE",
"616 67 OFFCURVE",
"608 80 CURVE SMOOTH",
"562 157 OFFCURVE",
"526 260 OFFCURVE",
"493 342 CURVE SMOOTH",
"457 435 OFFCURVE",
"423 526 OFFCURVE",
"372 606 CURVE SMOOTH",
"355 634 OFFCURVE",
"354 639 OFFCURVE",
"316 639 CURVE SMOOTH",
"292 639 OFFCURVE",
"273 625 OFFCURVE",
"265 610 CURVE SMOOTH",
"176 450 OFFCURVE",
"153 372 OFFCURVE",
"92 226 CURVE",
"60 157 OFFCURVE",
"28 89 OFFCURVE",
"16 32 CURVE",
"16 8 OFFCURVE",
"49 -4 OFFCURVE",
"75 -4 CURVE SMOOTH",
"92 -4 OFFCURVE",
"104 1 OFFCURVE",
"110 11 CURVE SMOOTH",
"140 60 OFFCURVE",
"148 130 OFFCURVE",
"183 173 CURVE",
"247 172 OFFCURVE",
"290 166 OFFCURVE",
"351 166 CURVE SMOOTH",
"382 166 OFFCURVE",
"412 169 OFFCURVE",
"454 175 CURVE",
"485 129 OFFCURVE",
"491 64 OFFCURVE",
"528 15 CURVE SMOOTH"
);
},
{
closed = 1;
nodes = (
"393 249 OFFCURVE",
"359 250 OFFCURVE",
"319 250 CURVE SMOOTH",
"280 250 OFFCURVE",
"244 253 OFFCURVE",
"204 258 CURVE",
"224 313 OFFCURVE",
"240 354 OFFCURVE",
"261 394 CURVE SMOOTH",
"280 433 OFFCURVE",
"300 475 OFFCURVE",
"317 518 CURVE",
"342 475 OFFCURVE",
"362 424 OFFCURVE",
"379 375 CURVE SMOOTH",
"392 338 OFFCURVE",
"407 294 OFFCURVE",
"425 257 CURVE"
);
},
{
closed = 1;
nodes = (
"231 842 OFFCURVE",
"212 829 OFFCURVE",
"212 810 CURVE SMOOTH",
"212 768 OFFCURVE",
"268 730 OFFCURVE",
"291 716 CURVE SMOOTH",
"313 702 OFFCURVE",
"353 695 OFFCURVE",
"366 695 CURVE SMOOTH",
"380 695 OFFCURVE",
"386 704 OFFCURVE",
"386 715 CURVE SMOOTH",
"386 724 OFFCURVE",
"380 729 OFFCURVE",
"366 741 CURVE",
"352 754 OFFCURVE",
"339 760 OFFCURVE",
"320 799 CURVE SMOOTH",
"304 832 OFFCURVE",
"286 842 OFFCURVE",
"259 842 CURVE SMOOTH"
);
}
);
width = 640;
}
);
leftKerningGroup = A;
rightKerningGroup = A;
unicode = 00C0;
},
{
glyphname = Ahookabove;
layers = (
{
layerId = "88A9C6FE-0426-4B07-A0DF-A933171F58B2";
name = Regular;
paths = (
{
closed = 1;
nodes = (
"538 2 OFFCURVE",
"552 -5 OFFCURVE",
"572 -5 CURVE SMOOTH",
"600 -5 OFFCURVE",
"624 10 OFFCURVE",
"624 44 CURVE SMOOTH",
"624 52 OFFCURVE",
"616 67 OFFCURVE",
"608 80 CURVE SMOOTH",
"562 157 OFFCURVE",
"526 260 OFFCURVE",
"493 342 CURVE SMOOTH",
"457 435 OFFCURVE",
"423 526 OFFCURVE",
"372 606 CURVE SMOOTH",
"355 634 OFFCURVE",
"354 639 OFFCURVE",
"316 639 CURVE SMOOTH",
"292 639 OFFCURVE",
"273 625 OFFCURVE",
"265 610 CURVE SMOOTH",
"176 450 OFFCURVE",
"153 372 OFFCURVE",
"92 226 CURVE",
"60 157 OFFCURVE",
"28 89 OFFCURVE",
"16 32 CURVE",
"16 8 OFFCURVE",
"49 -4 OFFCURVE",
"75 -4 CURVE SMOOTH",
"92 -4 OFFCURVE",
"104 1 OFFCURVE",
"110 11 CURVE SMOOTH",
"140 60 OFFCURVE",
"148 130 OFFCURVE",
"183 173 CURVE",
"247 172 OFFCURVE",
"290 166 OFFCURVE",
"351 166 CURVE SMOOTH",
"382 166 OFFCURVE",
"412 169 OFFCURVE",
"454 175 CURVE",
"485 129 OFFCURVE",
"491 64 OFFCURVE",
"528 15 CURVE SMOOTH"
);
},
{
closed = 1;
nodes = (
"393 249 OFFCURVE",
"359 250 OFFCURVE",
"319 250 CURVE SMOOTH",
"280 250 OFFCURVE",
"244 253 OFFCURVE",
"204 258 CURVE",
"224 313 OFFCURVE",
"240 354 OFFCURVE",
"261 394 CURVE SMOOTH",
"280 433 OFFCURVE",
"300 475 OFFCURVE",
"317 518 CURVE",
"342 475 OFFCURVE",
"362 424 OFFCURVE",
"379 375 CURVE SMOOTH",
"392 338 OFFCURVE",
"407 294 OFFCURVE",
"425 257 CURVE"
);
},
{
closed = 1;
nodes = (
"265 826 OFFCURVE",
"294 846 OFFCURVE",
"313 846 CURVE SMOOTH",
"332 846 OFFCURVE",
"354 847 OFFCURVE",
"354 815 CURVE SMOOTH",
"354 782 OFFCURVE",
"311 779 OFFCURVE",
"294 764 CURVE SMOOTH",
"288 759 OFFCURVE",
"278 750 OFFCURVE",
"278 732 CURVE SMOOTH",
"278 723 OFFCURVE",
"284 705 OFFCURVE",
"284 705 CURVE",
"290 684 OFFCURVE",
"309 677 OFFCURVE",
"335 677 CURVE SMOOTH",
"351 677 OFFCURVE",
"357 690 OFFCURVE",
"357 699 CURVE SMOOTH",
"357 707 OFFCURVE",
"329 728 OFFCURVE",
"354 738 CURVE SMOOTH",
"395 755 OFFCURVE",
"423 771 OFFCURVE",
"423 825 CURVE SMOOTH",
"423 848 OFFCURVE",
"410 869 OFFCURVE",
"402 875 CURVE SMOOTH",
"381 891 OFFCURVE",
"357 905 OFFCURVE",
"334 905 CURVE SMOOTH",
"308 905 OFFCURVE",
"232 894 OFFCURVE",
"232 853 CURVE SMOOTH",
"232 838 OFFCURVE",
"244 826 OFFCURVE",
"258 826 CURVE SMOOTH"
);
}
);
width = 640;
}
);
unicode = 1EA2;
},
{
glyphname = Ainvertedbreve;
layers = (
{
layerId = "88A9C6FE-0426-4B07-A0DF-A933171F58B2";
name = Regular;
paths = (
{
closed = 1;
nodes = (
"538 2 OFFCURVE",
"552 -5 OFFCURVE",
"572 -5 CURVE SMOOTH",
"600 -5 OFFCURVE",
"624 10 OFFCURVE",
"624 44 CURVE SMOOTH",
"624 52 OFFCURVE",
"616 67 OFFCURVE",
"608 80 CURVE SMOOTH",
"562 157 OFFCURVE",
"526 260 OFFCURVE",
"493 342 CURVE SMOOTH",
"457 435 OFFCURVE",
"423 526 OFFCURVE",
"372 606 CURVE SMOOTH",
"355 634 OFFCURVE",
"354 639 OFFCURVE",
"316 639 CURVE SMOOTH",
"292 639 OFFCURVE",
"273 625 OFFCURVE",
"265 610 CURVE SMOOTH",
"176 450 OFFCURVE",
"153 372 OFFCURVE",
"92 226 CURVE",
"60 157 OFFCURVE",
"28 89 OFFCURVE",
"16 32 CURVE",
"16 8 OFFCURVE",
"49 -4 OFFCURVE",
"75 -4 CURVE SMOOTH",
"92 -4 OFFCURVE",
"104 1 OFFCURVE",
"110 11 CURVE SMOOTH",
"140 60 OFFCURVE",
"148 130 OFFCURVE",
"183 173 CURVE",
"247 172 OFFCURVE",
"290 166 OFFCURVE",
"351 166 CURVE SMOOTH",
"382 166 OFFCURVE",
"412 169 OFFCURVE",
"454 175 CURVE",
"485 129 OFFCURVE",
"491 64 OFFCURVE",
"528 15 CURVE SMOOTH"
);
},
{
closed = 1;
nodes = (
"393 249 OFFCURVE",
"359 250 OFFCURVE",
"319 250 CURVE SMOOTH",
"280 250 OFFCURVE",
"244 253 OFFCURVE",
"204 258 CURVE",
"224 313 OFFCURVE",
"240 354 OFFCURVE",
"261 394 CURVE SMOOTH",
"280 433 OFFCURVE",
"300 475 OFFCURVE",
"317 518 CURVE",
"342 475 OFFCURVE",
"362 424 OFFCURVE",
"379 375 CURVE SMOOTH",
"392 338 OFFCURVE",
"407 294 OFFCURVE",
"425 257 CURVE"
);
},
{
closed = 1;
nodes = (
"418 803 OFFCURVE",
"376 831 OFFCURVE",
"314 831 CURVE SMOOTH",
"226 831 OFFCURVE",
"196 779 OFFCURVE",
"182 749 CURVE SMOOTH",
"178 741 OFFCURVE",
"177 731 OFFCURVE",
"177 726 CURVE SMOOTH",
"177 713 OFFCURVE",
"189 704 OFFCURVE",
"198 704 CURVE SMOOTH",
"211 704 OFFCURVE",
"220 709 OFFCURVE",
"232 723 CURVE SMOOTH",
"253 748 OFFCURVE",
"282 763 OFFCURVE",
"316 763 CURVE SMOOTH",
"355 763 OFFCURVE",
"384 740 OFFCURVE",
"396 727 CURVE",
"407 716 OFFCURVE",
"414 709 OFFCURVE",
"425 709 CURVE SMOOTH",
"442 709 OFFCURVE",
"455 720 OFFCURVE",
"455 728 CURVE SMOOTH",
"455 736 OFFCURVE",
"450 749 OFFCURVE",
"448 753 CURVE"
);
}
);
width = 640;
}
);
unicode = 0202;
},
{
glyphname = Amacron;
layers = (
{
layerId = "88A9C6FE-0426-4B07-A0DF-A933171F58B2";
name = Regular;
paths = (
{
closed = 1;
nodes = (
"538 2 OFFCURVE",
"552 -5 OFFCURVE",
"572 -5 CURVE SMOOTH",
"600 -5 OFFCURVE",
"624 10 OFFCURVE",
"624 44 CURVE SMOOTH",
"624 52 OFFCURVE",
"616 67 OFFCURVE",
"608 80 CURVE SMOOTH",
"562 157 OFFCURVE",
"526 260 OFFCURVE",
"493 342 CURVE SMOOTH",
"457 435 OFFCURVE",
"423 526 OFFCURVE",
"372 606 CURVE SMOOTH",
"355 634 OFFCURVE",
"354 639 OFFCURVE",
"316 639 CURVE SMOOTH",
"292 639 OFFCURVE",
"273 625 OFFCURVE",
"265 610 CURVE SMOOTH",
"176 450 OFFCURVE",
"153 372 OFFCURVE",
"92 226 CURVE",
"60 157 OFFCURVE",
"28 89 OFFCURVE",
"16 32 CURVE",
"16 8 OFFCURVE",
"49 -4 OFFCURVE",
"75 -4 CURVE SMOOTH",
"92 -4 OFFCURVE",
"104 1 OFFCURVE",
"110 11 CURVE SMOOTH",
"140 60 OFFCURVE",
"148 130 OFFCURVE",
"183 173 CURVE",
"247 172 OFFCURVE",
"290 166 OFFCURVE",
"351 166 CURVE SMOOTH",
"382 166 OFFCURVE",
"412 169 OFFCURVE",
"454 175 CURVE",
"485 129 OFFCURVE",
"491 64 OFFCURVE",
"528 15 CURVE SMOOTH"
);
},
{
closed = 1;
nodes = (
"393 249 OFFCURVE",
"359 250 OFFCURVE",
"319 250 CURVE SMOOTH",
"280 250 OFFCURVE",
"244 253 OFFCURVE",
"204 258 CURVE",
"224 313 OFFCURVE",
"240 354 OFFCURVE",
"261 394 CURVE SMOOTH",
"280 433 OFFCURVE",
"300 475 OFFCURVE",
"317 518 CURVE",
"342 475 OFFCURVE",
"362 424 OFFCURVE",
"379 375 CURVE SMOOTH",
"392 338 OFFCURVE",
"407 294 OFFCURVE",
"425 257 CURVE"
);
},
{
closed = 1;
nodes = (
"396 720 LINE SMOOTH",
"443 720 OFFCURVE",
"457 727 OFFCURVE",
"457 769 CURVE SMOOTH",
"457 788 OFFCURVE",
"364 787 OFFCURVE",
"304 787 CURVE SMOOTH",
"237 787 OFFCURVE",
"184 783 OFFCURVE",
"184 749 CURVE SMOOTH",
"184 719 OFFCURVE",
"190 714 OFFCURVE",
"214 714 CURVE SMOOTH",
"222 714 OFFCURVE",
"254 717 OFFCURVE",
"284 717 CURVE SMOOTH"
);
}
);
width = 640;
}
);
leftKerningGroup = A;
rightKerningGroup = A;
unicode = 0100;
},
{
glyphname = Aogonek;
layers = (
{
layerId = "88A9C6FE-0426-4B07-A0DF-A933171F58B2";
name = Regular;
paths = (
{
closed = 1;
nodes = (
"531 12 LINE",
"515 2 OFFCURVE",
"497 -16 OFFCURVE",
"484 -31 CURVE SMOOTH",
"467 -50 OFFCURVE",
"448 -80 OFFCURVE",
"448 -135 CURVE SMOOTH",
"448 -184 OFFCURVE",
"487 -212 OFFCURVE",
"541 -212 CURVE SMOOTH",
"583 -212 OFFCURVE",
"613 -193 OFFCURVE",
"613 -167 CURVE SMOOTH",
"613 -145 OFFCURVE",
"607 -138 OFFCURVE",
"592 -138 CURVE SMOOTH",
"583 -138 OFFCURVE",
"574 -146 OFFCURVE",
"553 -146 CURVE SMOOTH",
"535 -146 OFFCURVE",
"518 -140 OFFCURVE",
"518 -120 CURVE SMOOTH",
"518 -104 OFFCURVE",
"522 -93 OFFCURVE",
"532 -78 CURVE SMOOTH",
"541 -64 OFFCURVE",
"591 -5 OFFCURVE",
"607 6 CURVE SMOOTH",
"617 13 OFFCURVE",
"624 26 OFFCURVE",
"624 44 CURVE SMOOTH",
"624 52 OFFCURVE",
"616 67 OFFCURVE",
"608 80 CURVE SMOOTH",
"562 157 OFFCURVE",
"526 260 OFFCURVE",
"493 342 CURVE SMOOTH",
"457 435 OFFCURVE",
"423 526 OFFCURVE",
"372 606 CURVE SMOOTH",
"355 634 OFFCURVE",
"354 639 OFFCURVE",
"316 639 CURVE SMOOTH",
"292 639 OFFCURVE",
"273 625 OFFCURVE",
"265 610 CURVE SMOOTH",
"176 450 OFFCURVE",
"153 372 OFFCURVE",
"92 226 CURVE",
"60 157 OFFCURVE",
"28 89 OFFCURVE",
"16 32 CURVE",
"16 8 OFFCURVE",
"49 -4 OFFCURVE",
"75 -4 CURVE SMOOTH",
"92 -4 OFFCURVE",
"104 1 OFFCURVE",
"110 11 CURVE SMOOTH",
"140 60 OFFCURVE",
"148 130 OFFCURVE",
"183 173 CURVE",
"247 172 OFFCURVE",
"290 166 OFFCURVE",
"351 166 CURVE SMOOTH",
"382 166 OFFCURVE",
"412 169 OFFCURVE",
"454 175 CURVE",
"485 129 OFFCURVE",
"491 64 OFFCURVE",
"528 15 CURVE"
);
},
{
closed = 1;
nodes = (
"393 249 OFFCURVE",
"359 250 OFFCURVE",
"319 250 CURVE SMOOTH",
"280 250 OFFCURVE",
"244 253 OFFCURVE",
"204 258 CURVE",
"224 313 OFFCURVE",
"240 354 OFFCURVE",
"261 394 CURVE SMOOTH",
"280 433 OFFCURVE",
"300 475 OFFCURVE",
"317 518 CURVE",
"342 475 OFFCURVE",
"362 424 OFFCURVE",
"379 375 CURVE SMOOTH",
"392 338 OFFCURVE",
"407 294 OFFCURVE",
"425 257 CURVE"
);
}
);
width = 640;
}
);
leftKerningGroup = A;
rightKerningGroup = A;
unicode = 0104;
},
{
glyphname = Aring;
layers = (
{
layerId = "88A9C6FE-0426-4B07-A0DF-A933171F58B2";
name = Regular;
paths = (
{
closed = 1;
nodes = (
"539 6 OFFCURVE",
"553 0 OFFCURVE",
"573 0 CURVE SMOOTH",
"601 0 OFFCURVE",
"625 14 OFFCURVE",
"625 49 CURVE SMOOTH",
"625 57 OFFCURVE",
"616 72 OFFCURVE",
"609 85 CURVE",
"609 85 LINE",
"563 162 OFFCURVE",
"526 260 OFFCURVE",
"493 342 CURVE SMOOTH",
"457 435 OFFCURVE",
"423 526 OFFCURVE",
"372 606 CURVE SMOOTH",
"355 634 OFFCURVE",
"354 639 OFFCURVE",
"316 639 CURVE SMOOTH",
"292 639 OFFCURVE",
"273 625 OFFCURVE",
"265 610 CURVE SMOOTH",
"176 450 OFFCURVE",
"153 372 OFFCURVE",
"92 226 CURVE",
"60 157 OFFCURVE",
"28 89 OFFCURVE",
"16 32 CURVE",
"18 8 OFFCURVE",
"49 -4 OFFCURVE",
"75 -4 CURVE SMOOTH",
"92 -4 OFFCURVE",
"104 1 OFFCURVE",
"110 11 CURVE SMOOTH",
"140 60 OFFCURVE",
"148 130 OFFCURVE",
"183 173 CURVE",
"247 172 OFFCURVE",
"290 166 OFFCURVE",
"351 166 CURVE SMOOTH",
"382 166 OFFCURVE",
"412 169 OFFCURVE",
"454 175 CURVE",
"485 129 OFFCURVE",
"492 68 OFFCURVE",
"529 20 CURVE"
);
},
{
closed = 1;
nodes = (
"393 246 OFFCURVE",
"359 247 OFFCURVE",
"319 247 CURVE SMOOTH",
"280 247 OFFCURVE",
"244 249 OFFCURVE",
"204 255 CURVE",
"224 310 OFFCURVE",
"240 354 OFFCURVE",
"261 394 CURVE SMOOTH",
"280 433 OFFCURVE",
"300 475 OFFCURVE",
"317 518 CURVE",
"342 475 OFFCURVE",
"362 424 OFFCURVE",
"379 375 CURVE SMOOTH",
"392 338 OFFCURVE",
"407 291 OFFCURVE",
"425 254 CURVE"
);
},
{
closed = 1;
nodes = (
"338 793 OFFCURVE",
"359 770 OFFCURVE",
"359 745 CURVE SMOOTH",
"359 718 OFFCURVE",
"337 709 OFFCURVE",
"310 709 CURVE SMOOTH",
"288 709 OFFCURVE",
"272 726 OFFCURVE",
"272 749 CURVE SMOOTH",
"272 772 OFFCURVE",
"296 793 OFFCURVE",
"310 793 CURVE SMOOTH"
);
},
{
closed = 1;
nodes = (
"365 659 OFFCURVE",
"418 706 OFFCURVE",
"418 744 CURVE SMOOTH",
"418 813 OFFCURVE",
"377 843 OFFCURVE",
"309 843 CURVE SMOOTH",
"257 843 OFFCURVE",
"211 790 OFFCURVE",
"211 751 CURVE SMOOTH",
"211 723 OFFCURVE",
"226 701 OFFCURVE",
"247 679 CURVE",
"264 663 OFFCURVE",
"303 659 OFFCURVE",
"328 659 CURVE SMOOTH"
);
}
);
width = 641;
}
);
leftKerningGroup = A;
rightKerningGroup = A;
unicode = 00C5;
},
{
glyphname = Aringacute;
layers = (
{
layerId = "88A9C6FE-0426-4B07-A0DF-A933171F58B2";
name = Regular;
paths = (
{
closed = 1;
nodes = (
"539 6 OFFCURVE",
"553 0 OFFCURVE",
"573 0 CURVE SMOOTH",
"601 0 OFFCURVE",
"625 14 OFFCURVE",
"625 49 CURVE SMOOTH",
"625 57 OFFCURVE",
"616 72 OFFCURVE",
"609 85 CURVE",
"609 85 LINE",
"563 162 OFFCURVE",
"526 260 OFFCURVE",
"493 342 CURVE SMOOTH",
"457 435 OFFCURVE",
"423 526 OFFCURVE",
"372 606 CURVE SMOOTH",
"355 634 OFFCURVE",
"354 639 OFFCURVE",
"316 639 CURVE SMOOTH",
"292 639 OFFCURVE",
"273 625 OFFCURVE",
"265 610 CURVE SMOOTH",
"176 450 OFFCURVE",
"153 372 OFFCURVE",
"92 226 CURVE",
"60 157 OFFCURVE",
"28 89 OFFCURVE",
"16 32 CURVE",
"18 8 OFFCURVE",
"49 -4 OFFCURVE",
"75 -4 CURVE SMOOTH",
"92 -4 OFFCURVE",
"104 1 OFFCURVE",
"110 11 CURVE SMOOTH",
"140 60 OFFCURVE",
"148 130 OFFCURVE",
"183 173 CURVE",
"247 172 OFFCURVE",
"290 166 OFFCURVE",
"351 166 CURVE SMOOTH",
"382 166 OFFCURVE",
"412 169 OFFCURVE",
"454 175 CURVE",
"485 129 OFFCURVE",
"492 68 OFFCURVE",
"529 20 CURVE"
);
},
{
closed = 1;
nodes = (
"393 246 OFFCURVE",
"359 247 OFFCURVE",
"319 247 CURVE SMOOTH",
"280 247 OFFCURVE",
"244 249 OFFCURVE",
"204 255 CURVE",
"224 310 OFFCURVE",
"240 354 OFFCURVE",
"261 394 CURVE SMOOTH",
"280 433 OFFCURVE",
"300 475 OFFCURVE",
"317 518 CURVE",
"342 475 OFFCURVE",
"362 424 OFFCURVE",
"379 375 CURVE SMOOTH",
"392 338 OFFCURVE",
"407 291 OFFCURVE",
"425 254 CURVE"
);
},
{
closed = 1;
nodes = (
"338 793 OFFCURVE",
"359 770 OFFCURVE",
"359 745 CURVE SMOOTH",
"359 718 OFFCURVE",
"337 709 OFFCURVE",
"310 709 CURVE SMOOTH",
"288 709 OFFCURVE",
"272 726 OFFCURVE",
"272 749 CURVE SMOOTH",
"272 772 OFFCURVE",
"296 793 OFFCURVE",
"310 793 CURVE SMOOTH"
);
},
{
closed = 1;
nodes = (
"365 659 OFFCURVE",
"418 706 OFFCURVE",
"418 744 CURVE SMOOTH",
"418 813 OFFCURVE",
"377 843 OFFCURVE",
"309 843 CURVE SMOOTH",
"257 843 OFFCURVE",
"211 790 OFFCURVE",
"211 751 CURVE SMOOTH",
"211 723 OFFCURVE",
"226 701 OFFCURVE",
"247 679 CURVE",
"264 663 OFFCURVE",
"303 659 OFFCURVE",
"328 659 CURVE SMOOTH"
);
},
{
closed = 1;
nodes = (
"363 978 OFFCURVE",
"344 970 OFFCURVE",
"328 944 CURVE SMOOTH",
"310 913 OFFCURVE",
"296 908 OFFCURVE",
"283 898 CURVE",
"268 888 OFFCURVE",
"262 884 OFFCURVE",
"262 877 CURVE SMOOTH",
"262 868 OFFCURVE",
"268 861 OFFCURVE",
"283 861 CURVE SMOOTH",
"295 861 OFFCURVE",
"335 866 OFFCURVE",
"357 878 CURVE",
"381 889 OFFCURVE",
"436 919 OFFCURVE",
"436 953 CURVE SMOOTH",
"436 968 OFFCURVE",
"418 978 OFFCURVE",
"390 978 CURVE SMOOTH"
);
}
);
width = 641;
}
);
leftKerningGroup = A;
rightKerningGroup = A;
unicode = 01FA;
},
{
glyphname = Atilde;
layers = (
{
layerId = "88A9C6FE-0426-4B07-A0DF-A933171F58B2";
name = Regular;
paths = (
{
closed = 1;
nodes = (
"491 64 OFFCURVE",
"485 129 OFFCURVE",
"454 175 CURVE",
"412 169 OFFCURVE",
"382 166 OFFCURVE",
"351 166 CURVE SMOOTH",
"290 166 OFFCURVE",
"247 172 OFFCURVE",
"183 173 CURVE",
"148 130 OFFCURVE",
"140 60 OFFCURVE",
"110 11 CURVE SMOOTH",
"104 1 OFFCURVE",
"92 -4 OFFCURVE",
"75 -4 CURVE SMOOTH",
"49 -4 OFFCURVE",
"16 8 OFFCURVE",
"16 32 CURVE",
"28 89 OFFCURVE",
"60 157 OFFCURVE",
"92 226 CURVE",
"153 372 OFFCURVE",
"176 450 OFFCURVE",
"265 610 CURVE SMOOTH",
"273 625 OFFCURVE",
"292 639 OFFCURVE",
"316 639 CURVE SMOOTH",
"354 639 OFFCURVE",
"355 634 OFFCURVE",
"372 606 CURVE SMOOTH",
"423 526 OFFCURVE",
"457 435 OFFCURVE",
"493 342 CURVE SMOOTH",
"526 260 OFFCURVE",
"562 157 OFFCURVE",
"608 80 CURVE SMOOTH",
"616 67 OFFCURVE",
"624 52 OFFCURVE",
"624 44 CURVE SMOOTH",
"624 10 OFFCURVE",
"600 -5 OFFCURVE",
"572 -5 CURVE SMOOTH",
"552 -5 OFFCURVE",
"538 2 OFFCURVE",
"528 15 CURVE SMOOTH"
);
},
{
closed = 1;
nodes = (
"407 294 OFFCURVE",
"392 338 OFFCURVE",
"379 375 CURVE SMOOTH",
"362 424 OFFCURVE",
"342 475 OFFCURVE",
"317 518 CURVE",
"300 475 OFFCURVE",
"280 433 OFFCURVE",
"261 394 CURVE SMOOTH",
"240 354 OFFCURVE",
"224 313 OFFCURVE",
"204 258 CURVE",
"244 253 OFFCURVE",
"280 250 OFFCURVE",
"319 250 CURVE SMOOTH",
"359 250 OFFCURVE",
"393 249 OFFCURVE",
"425 257 CURVE"
);
},
{
closed = 1;
nodes = (
"151 704 OFFCURVE",
"172 694 OFFCURVE",
"183 694 CURVE SMOOTH",
"199 694 OFFCURVE",
"213 701 OFFCURVE",
"224 717 CURVE SMOOTH",
"236 735 OFFCURVE",
"254 741 OFFCURVE",
"270 741 CURVE SMOOTH",
"303 741 OFFCURVE",
"316 696 OFFCURVE",
"383 696 CURVE SMOOTH",
"429 696 OFFCURVE",
"480 739 OFFCURVE",
"480 780 CURVE SMOOTH",
"480 801 OFFCURVE",
"461 810 OFFCURVE",
"446 810 CURVE SMOOTH",
"430 810 OFFCURVE",
"422 802 OFFCURVE",
"415 792 CURVE",
"408 781 OFFCURVE",
"402 768 OFFCURVE",
"385 768 CURVE",
"372 767 OFFCURVE",
"357 774 OFFCURVE",
"339 787 CURVE SMOOTH",
"317 802 OFFCURVE",
"291 811 OFFCURVE",
"266 811 CURVE SMOOTH",
"218 811 OFFCURVE",
"151 776 OFFCURVE",
"151 723 CURVE SMOOTH"
);
}
);
width = 640;
}
);
leftKerningGroup = A;
rightKerningGroup = A;
unicode = 00C3;
},
{
glyphname = AE;
layers = (
{
layerId = "88A9C6FE-0426-4B07-A0DF-A933171F58B2";
name = Regular;
paths = (
{
closed = 1;
nodes = (
"552 538 OFFCURVE",
"601 540 OFFCURVE",
"638 539 CURVE SMOOTH",
"700 538 OFFCURVE",
"742 532 OFFCURVE",
"758 532 CURVE SMOOTH",
"786 532 OFFCURVE",
"805 548 OFFCURVE",
"805 580 CURVE SMOOTH",
"805 609 OFFCURVE",
"779 619 OFFCURVE",
"744 625 CURVE SMOOTH",
"681 634 OFFCURVE",
"606 635 OFFCURVE",
"528 635 CURVE SMOOTH",
"475 635 OFFCURVE",
"415 632 OFFCURVE",
"363 626 CURVE",
"337 624 OFFCURVE",
"310 610 OFFCURVE",
"301 597 CURVE",
"201 441 OFFCURVE",
"56 146 OFFCURVE",
"18 51 CURVE",
"10 21 OFFCURVE",
"40 -4 OFFCURVE",
"67 -4 CURVE SMOOTH",
"84 -4 OFFCURVE",
"100 1 OFFCURVE",
"106 12 CURVE",
"133 54 OFFCURVE",
"157 150 OFFCURVE",
"187 181 CURVE",
"247 175 OFFCURVE",
"331 167 OFFCURVE",
"384 174 CURVE",
"384 64 OFFCURVE",
"447 0 OFFCURVE",
"569 0 CURVE SMOOTH",
"654 0 OFFCURVE",
"722 4 OFFCURVE",
"778 27 CURVE SMOOTH",
"803 37 OFFCURVE",
"811 45 OFFCURVE",
"811 75 CURVE SMOOTH",
"811 94 OFFCURVE",
"799 117 OFFCURVE",
"778 117 CURVE SMOOTH",
"723 117 OFFCURVE",
"684 97 OFFCURVE",
"576 97 CURVE SMOOTH",
"493 97 OFFCURVE",
"486 137 OFFCURVE",
"486 163 CURVE SMOOTH",
"486 195 OFFCURVE",
"487 236 OFFCURVE",
"490 276 CURVE",
"504 275 OFFCURVE",
"517 275 OFFCURVE",
"533 275 CURVE SMOOTH",
"598 275 OFFCURVE",
"644 273 OFFCURVE",
"691 281 CURVE",
"737 291 OFFCURVE",
"744 305 OFFCURVE",
"744 335 CURVE SMOOTH",
"744 354 OFFCURVE",
"729 367 OFFCURVE",
"697 367 CURVE SMOOTH",
"643 367 OFFCURVE",
"593 364 OFFCURVE",
"531 364 CURVE SMOOTH",
"517 364 OFFCURVE",
"502 364 OFFCURVE",
"490 366 CURVE",
"490 402 OFFCURVE",
"490 465 OFFCURVE",
"503 535 CURVE"
);
},
{
closed = 1;
nodes = (
"405 530 LINE",
"390 413 OFFCURVE",
"385 331 OFFCURVE",
"385 255 CURVE",
"340 256 OFFCURVE",
"268 253 OFFCURVE",
"225 258 CURVE",
"259 352 OFFCURVE",
"337 489 OFFCURVE",
"368 525 CURVE"
);
}
);
width = 842;
}
);
leftKerningGroup = AE;
unicode = 00C6;
},
{
glyphname = AEacute;
layers = (
{
layerId = "88A9C6FE-0426-4B07-A0DF-A933171F58B2";
name = Regular;
paths = (
{
closed = 1;
nodes = (
"552 538 OFFCURVE",
"601 540 OFFCURVE",
"638 539 CURVE SMOOTH",
"700 538 OFFCURVE",
"742 532 OFFCURVE",
"758 532 CURVE SMOOTH",
"786 532 OFFCURVE",
"805 548 OFFCURVE",
"805 580 CURVE SMOOTH",
"805 609 OFFCURVE",
"779 619 OFFCURVE",
"744 625 CURVE SMOOTH",
"681 634 OFFCURVE",
"606 635 OFFCURVE",
"528 635 CURVE SMOOTH",
"475 635 OFFCURVE",
"415 632 OFFCURVE",
"363 626 CURVE",
"337 624 OFFCURVE",
"310 610 OFFCURVE",
"301 597 CURVE",
"201 441 OFFCURVE",
"56 146 OFFCURVE",
"18 51 CURVE",
"10 21 OFFCURVE",
"40 -4 OFFCURVE",
"67 -4 CURVE SMOOTH",
"84 -4 OFFCURVE",
"100 1 OFFCURVE",
"106 12 CURVE",
"133 54 OFFCURVE",
"157 150 OFFCURVE",
"187 181 CURVE",
"247 175 OFFCURVE",
"331 167 OFFCURVE",
"384 174 CURVE",
"384 64 OFFCURVE",
"447 0 OFFCURVE",
"569 0 CURVE SMOOTH",
"654 0 OFFCURVE",
"722 4 OFFCURVE",
"778 27 CURVE SMOOTH",
"803 37 OFFCURVE",
"811 45 OFFCURVE",
"811 75 CURVE SMOOTH",
"811 94 OFFCURVE",
"799 117 OFFCURVE",
"778 117 CURVE SMOOTH",
"723 117 OFFCURVE",
"684 97 OFFCURVE",
"576 97 CURVE SMOOTH",
"493 97 OFFCURVE",
"486 137 OFFCURVE",
"486 163 CURVE SMOOTH",
"486 195 OFFCURVE",
"487 236 OFFCURVE",
"490 276 CURVE",
"504 275 OFFCURVE",
"517 275 OFFCURVE",
"533 275 CURVE SMOOTH",
"598 275 OFFCURVE",
"644 273 OFFCURVE",
"691 281 CURVE",
"737 291 OFFCURVE",
"744 305 OFFCURVE",
"744 335 CURVE SMOOTH",
"744 354 OFFCURVE",
"729 367 OFFCURVE",
"697 367 CURVE SMOOTH",
"643 367 OFFCURVE",
"593 364 OFFCURVE",
"531 364 CURVE SMOOTH",
"517 364 OFFCURVE",
"502 364 OFFCURVE",
"490 366 CURVE",
"490 402 OFFCURVE",
"490 465 OFFCURVE",
"503 535 CURVE"
);
},
{
closed = 1;
nodes = (
"405 530 LINE",
"390 413 OFFCURVE",
"385 331 OFFCURVE",
"385 255 CURVE",
"340 256 OFFCURVE",
"268 253 OFFCURVE",
"225 258 CURVE",
"259 352 OFFCURVE",
"337 489 OFFCURVE",
"368 525 CURVE"
);
},
{
closed = 1;
nodes = (
"548 842 OFFCURVE",
"529 832 OFFCURVE",
"513 799 CURVE SMOOTH",
"495 760 OFFCURVE",
"481 754 OFFCURVE",
"468 741 CURVE",
"453 729 OFFCURVE",
"447 724 OFFCURVE",
"447 715 CURVE SMOOTH",
"447 704 OFFCURVE",
"453 695 OFFCURVE",
"468 695 CURVE SMOOTH",
"480 695 OFFCURVE",
"520 702 OFFCURVE",
"542 716 CURVE",
"566 730 OFFCURVE",
"621 768 OFFCURVE",
"621 810 CURVE SMOOTH",
"621 829 OFFCURVE",
"603 842 OFFCURVE",
"575 842 CURVE SMOOTH"
);
}
);
width = 833;
}
);
leftKerningGroup = AE;
unicode = 01FC;
},
{
glyphname = B;
layers = (
{
layerId = "88A9C6FE-0426-4B07-A0DF-A933171F58B2";
name = Regular;
paths = (
{
closed = 1;
nodes = (
"527 356 OFFCURVE",
"562 419 OFFCURVE",
"561 482 CURVE",
"561 512 OFFCURVE",
"548 549 OFFCURVE",
"529 570 CURVE",
"474 625 OFFCURVE",
"389 637 OFFCURVE",
"301 637 CURVE SMOOTH",
"266 637 OFFCURVE",
"191 630 OFFCURVE",
"150 626 CURVE SMOOTH",
"138 625 OFFCURVE",
"129 625 OFFCURVE",
"125 625 CURVE",
"93 622 OFFCURVE",
"72 589 OFFCURVE",
"72 575 CURVE SMOOTH",
"72 483 OFFCURVE",
"75 400 OFFCURVE",
"77 319 CURVE SMOOTH",
"80 237 OFFCURVE",
"83 156 OFFCURVE",
"84 63 CURVE SMOOTH",
"84 27 OFFCURVE",
"123 15 OFFCURVE",
"132 13 CURVE SMOOTH",
"180 4 OFFCURVE",
"247 -3 OFFCURVE",
"308 -2 CURVE SMOOTH",
"364 -1 OFFCURVE",
"426 5 OFFCURVE",
"463 19 CURVE",
"543 54 OFFCURVE",
"607 123 OFFCURVE",
"607 199 CURVE SMOOTH",
"607 269 OFFCURVE",
"564 325 OFFCURVE",
"463 338 CURVE"
);
},
{
closed = 1;
nodes = (
"365 552 OFFCURVE",
"398 543 OFFCURVE",
"435 508 CURVE SMOOTH",
"444 499 OFFCURVE",
"454 476 OFFCURVE",
"454 455 CURVE SMOOTH",
"454 436 OFFCURVE",
"401 378 OFFCURVE",
"345 365 CURVE",
"310 360 OFFCURVE",
"255 354 OFFCURVE",
"217 350 CURVE",
"181 349 LINE",
"175 538 LINE",
"208 546 OFFCURVE",
"260 552 OFFCURVE",
"307 552 CURVE SMOOTH"
);
},
{
closed = 1;
nodes = (
"184 121 OFFCURVE",
"186 154 OFFCURVE",
"186 185 CURVE SMOOTH",
"186 210 OFFCURVE",
"185 231 OFFCURVE",
"184 261 CURVE",
"202 262 OFFCURVE",
"238 265 OFFCURVE",
"268 269 CURVE SMOOTH",
"302 274 OFFCURVE",
"338 277 OFFCURVE",
"357 277 CURVE SMOOTH",
"421 277 OFFCURVE",
"499 250 OFFCURVE",
"499 207 CURVE SMOOTH",
"499 98 OFFCURVE",
"395 79 OFFCURVE",
"281 79 CURVE SMOOTH",
"252 79 OFFCURVE",
"213 82 OFFCURVE",
"184 86 CURVE"
);
}
);
width = 646;
}
);
unicode = 0042;
},
{
glyphname = C;
layers = (
{
layerId = "88A9C6FE-0426-4B07-A0DF-A933171F58B2";
name = Regular;
paths = (
{
closed = 1;
nodes = (
"512 613 OFFCURVE",
"471 638 OFFCURVE",
"378 638 CURVE SMOOTH",
"320 638 OFFCURVE",
"208 622 OFFCURVE",
"156 574 CURVE SMOOTH",
"82 508 OFFCURVE",
"50 392 OFFCURVE",
"50 283 CURVE SMOOTH",
"50 236 OFFCURVE",
"81 148 OFFCURVE",
"107 111 CURVE",
"157 49 OFFCURVE",
"262 -2 OFFCURVE",
"355 -2 CURVE SMOOTH",
"448 -2 OFFCURVE",
"527 12 OFFCURVE",
"586 78 CURVE SMOOTH",
"602 97 OFFCURVE",
"607 111 OFFCURVE",
"607 130 CURVE SMOOTH",
"607 149 OFFCURVE",
"583 172 OFFCURVE",
"562 172 CURVE SMOOTH",
"548 172 OFFCURVE",
"532 169 OFFCURVE",
"517 153 CURVE",
"518 153 LINE",
"476 104 OFFCURVE",
"414 91 OFFCURVE",
"373 91 CURVE SMOOTH",
"233 91 OFFCURVE",
"157 190 OFFCURVE",
"157 304 CURVE SMOOTH",
"157 368 OFFCURVE",
"179 446 OFFCURVE",
"206 479 CURVE SMOOTH",
"239 518 OFFCURVE",
"326 545 OFFCURVE",
"378 545 CURVE SMOOTH",
"454 545 OFFCURVE",
"478 503 OFFCURVE",
"489 486 CURVE",
"499 469 OFFCURVE",
"513 461 OFFCURVE",
"541 461 CURVE SMOOTH",
"563 461 OFFCURVE",
"587 491 OFFCURVE",
"587 505 CURVE SMOOTH",
"587 518 OFFCURVE",
"581 530 OFFCURVE",
"560 555 CURVE SMOOTH"
);
}
);
width = 643;
}
);
leftKerningGroup = C;
unicode = 0043;
},
{
glyphname = Cacute;
layers = (
{
layerId = "88A9C6FE-0426-4B07-A0DF-A933171F58B2";
name = Regular;
paths = (
{
closed = 1;
nodes = (
"512 613 OFFCURVE",
"471 638 OFFCURVE",
"378 638 CURVE SMOOTH",
"320 638 OFFCURVE",
"208 622 OFFCURVE",
"156 574 CURVE SMOOTH",
"82 508 OFFCURVE",
"50 392 OFFCURVE",
"50 283 CURVE SMOOTH",
"50 236 OFFCURVE",
"81 148 OFFCURVE",
"107 111 CURVE",
"157 49 OFFCURVE",
"262 -2 OFFCURVE",
"355 -2 CURVE SMOOTH",
"448 -2 OFFCURVE",
"527 12 OFFCURVE",
"586 78 CURVE SMOOTH",
"602 97 OFFCURVE",
"607 111 OFFCURVE",
"607 130 CURVE SMOOTH",
"607 149 OFFCURVE",
"583 172 OFFCURVE",
"562 172 CURVE SMOOTH",
"548 172 OFFCURVE",
"532 169 OFFCURVE",
"517 153 CURVE",
"518 153 LINE",
"476 104 OFFCURVE",
"414 91 OFFCURVE",
"373 91 CURVE SMOOTH",
"233 91 OFFCURVE",
"157 190 OFFCURVE",
"157 304 CURVE SMOOTH",
"157 368 OFFCURVE",
"179 446 OFFCURVE",
"206 479 CURVE SMOOTH",
"239 518 OFFCURVE",
"326 545 OFFCURVE",
"378 545 CURVE SMOOTH",
"454 545 OFFCURVE",
"478 503 OFFCURVE",
"489 486 CURVE",
"499 469 OFFCURVE",
"513 461 OFFCURVE",
"541 461 CURVE SMOOTH",
"563 461 OFFCURVE",
"587 491 OFFCURVE",
"587 505 CURVE SMOOTH",
"587 518 OFFCURVE",
"581 530 OFFCURVE",
"560 555 CURVE SMOOTH"
);
},
{
closed = 1;
nodes = (
"377 864 OFFCURVE",
"358 854 OFFCURVE",
"342 821 CURVE SMOOTH",
"324 782 OFFCURVE",
"310 776 OFFCURVE",
"297 763 CURVE",
"282 751 OFFCURVE",
"276 746 OFFCURVE",
"276 737 CURVE SMOOTH",
"276 726 OFFCURVE",
"282 717 OFFCURVE",
"297 717 CURVE SMOOTH",
"309 717 OFFCURVE",
"349 724 OFFCURVE",
"371 738 CURVE",
"395 752 OFFCURVE",
"450 790 OFFCURVE",
"450 832 CURVE SMOOTH",
"450 851 OFFCURVE",
"432 864 OFFCURVE",
"404 864 CURVE SMOOTH"
);
}
);
width = 643;
}
);
leftKerningGroup = C;
unicode = 0106;
},
{
glyphname = Ccaron;
layers = (
{
layerId = "88A9C6FE-0426-4B07-A0DF-A933171F58B2";
name = Regular;
paths = (
{
closed = 1;
nodes = (
"512 613 OFFCURVE",
"471 638 OFFCURVE",
"378 638 CURVE SMOOTH",
"320 638 OFFCURVE",
"208 622 OFFCURVE",
"156 574 CURVE SMOOTH",
"82 508 OFFCURVE",
"50 392 OFFCURVE",
"50 283 CURVE SMOOTH",
"50 236 OFFCURVE",
"81 148 OFFCURVE",
"107 111 CURVE",
"157 49 OFFCURVE",
"262 -2 OFFCURVE",
"355 -2 CURVE SMOOTH",
"448 -2 OFFCURVE",
"527 12 OFFCURVE",
"586 78 CURVE SMOOTH",
"602 97 OFFCURVE",
"607 111 OFFCURVE",
"607 130 CURVE SMOOTH",
"607 149 OFFCURVE",
"583 172 OFFCURVE",
"562 172 CURVE SMOOTH",
"548 172 OFFCURVE",
"532 169 OFFCURVE",
"517 153 CURVE",
"518 153 LINE",
"476 104 OFFCURVE",
"414 91 OFFCURVE",
"373 91 CURVE SMOOTH",
"233 91 OFFCURVE",
"157 190 OFFCURVE",
"157 304 CURVE SMOOTH",
"157 368 OFFCURVE",
"179 446 OFFCURVE",
"206 479 CURVE SMOOTH",
"239 518 OFFCURVE",
"326 545 OFFCURVE",
"378 545 CURVE SMOOTH",
"454 545 OFFCURVE",
"478 503 OFFCURVE",
"489 486 CURVE",
"499 469 OFFCURVE",
"513 461 OFFCURVE",
"541 461 CURVE SMOOTH",
"563 461 OFFCURVE",
"587 491 OFFCURVE",
"587 505 CURVE SMOOTH",
"587 518 OFFCURVE",
"581 530 OFFCURVE",
"560 555 CURVE SMOOTH"
);
},
{
closed = 1;
nodes = (
"381 713 OFFCURVE",
"399 724 OFFCURVE",
"406 733 CURVE SMOOTH",
"413 742 OFFCURVE",
"430 762 OFFCURVE",
"458 789 CURVE SMOOTH",
"475 805 OFFCURVE",
"498 829 OFFCURVE",
"498 840 CURVE SMOOTH",
"498 850 OFFCURVE",
"471 867 OFFCURVE",
"448 867 CURVE SMOOTH",
"420 867 OFFCURVE",
"396 822 OFFCURVE",
"351 784 CURVE",
"313 818 OFFCURVE",
"294 867 OFFCURVE",
"244 867 CURVE SMOOTH",
"226 867 OFFCURVE",
"205 850 OFFCURVE",
"205 840 CURVE SMOOTH",
"205 832 OFFCURVE",
"212 825 OFFCURVE",
"227 808 CURVE SMOOTH",
"249 784 OFFCURVE",
"278 753 OFFCURVE",
"291 741 CURVE",
"308 724 OFFCURVE",
"321 713 OFFCURVE",
"353 713 CURVE SMOOTH"
);
}
);
width = 643;
}
);
leftKerningGroup = C;
unicode = 010C;
},
{
glyphname = Ccedilla;
layers = (
{
layerId = "88A9C6FE-0426-4B07-A0DF-A933171F58B2";
name = Regular;
paths = (
{
closed = 1;
nodes = (
"277 -84 OFFCURVE",
"288 -101 OFFCURVE",
"301 -101 CURVE SMOOTH",
"313 -101 OFFCURVE",
"381 -99 OFFCURVE",
"381 -131 CURVE SMOOTH",
"381 -144 OFFCURVE",
"373 -157 OFFCURVE",
"364 -162 CURVE",
"354 -167 OFFCURVE",
"331 -172 OFFCURVE",
"314 -172 CURVE SMOOTH",
"297 -172 OFFCURVE",
"296 -160 OFFCURVE",
"276 -160 CURVE SMOOTH",
"267 -160 OFFCURVE",
"253 -168 OFFCURVE",
"253 -180 CURVE SMOOTH",
"253 -208 OFFCURVE",
"283 -225 OFFCURVE",
"312 -225 CURVE SMOOTH",
"358 -225 OFFCURVE",
"392 -215 OFFCURVE",
"410 -202 CURVE",
"428 -188 OFFCURVE",
"452 -164 OFFCURVE",
"452 -137 CURVE SMOOTH",
"452 -86 OFFCURVE",
"412 -63 OFFCURVE",
"362 -58 CURVE",
"370 -46 OFFCURVE",
"396 -16 OFFCURVE",
"409 0 CURVE",
"479 5 OFFCURVE",
"539 24 OFFCURVE",
"586 78 CURVE SMOOTH",
"602 97 OFFCURVE",
"607 111 OFFCURVE",
"607 130 CURVE SMOOTH",
"607 149 OFFCURVE",
"583 172 OFFCURVE",
"562 172 CURVE SMOOTH",
"548 172 OFFCURVE",
"532 169 OFFCURVE",
"517 153 CURVE",
"518 153 LINE",
"476 104 OFFCURVE",
"414 91 OFFCURVE",
"373 91 CURVE SMOOTH",
"233 91 OFFCURVE",
"157 190 OFFCURVE",
"157 304 CURVE SMOOTH",
"157 368 OFFCURVE",
"179 446 OFFCURVE",
"206 479 CURVE SMOOTH",
"239 518 OFFCURVE",
"326 545 OFFCURVE",
"378 545 CURVE SMOOTH",
"454 545 OFFCURVE",
"478 503 OFFCURVE",
"489 486 CURVE",
"499 469 OFFCURVE",
"513 461 OFFCURVE",
"541 461 CURVE SMOOTH",
"563 461 OFFCURVE",
"587 491 OFFCURVE",
"587 505 CURVE SMOOTH",
"587 518 OFFCURVE",
"581 530 OFFCURVE",
"560 555 CURVE SMOOTH",
"512 613 OFFCURVE",
"471 638 OFFCURVE",
"378 638 CURVE SMOOTH",
"320 638 OFFCURVE",
"208 622 OFFCURVE",
"156 574 CURVE SMOOTH",
"82 508 OFFCURVE",
"50 392 OFFCURVE",
"50 283 CURVE SMOOTH",
"50 236 OFFCURVE",
"81 148 OFFCURVE",
"107 111 CURVE",
"152 53 OFFCURVE",
"246 6 OFFCURVE",
"333 -1 CURVE",
"322 -11 OFFCURVE",
"310 -23 OFFCURVE",
"301 -35 CURVE",
"292 -46 OFFCURVE",
"277 -61 OFFCURVE",
"277 -74 CURVE SMOOTH"
);
}
);
width = 643;
}
);
leftKerningGroup = C;
unicode = 00C7;
},
{
glyphname = Ccircumflex;
layers = (
{
layerId = "88A9C6FE-0426-4B07-A0DF-A933171F58B2";
name = Regular;
paths = (
{
closed = 1;
nodes = (
"512 613 OFFCURVE",
"471 638 OFFCURVE",
"378 638 CURVE SMOOTH",
"320 638 OFFCURVE",
"208 622 OFFCURVE",
"156 574 CURVE SMOOTH",
"82 508 OFFCURVE",
"50 392 OFFCURVE",
"50 283 CURVE SMOOTH",
"50 236 OFFCURVE",
"81 148 OFFCURVE",
"107 111 CURVE",
"157 49 OFFCURVE",
"262 -2 OFFCURVE",
"355 -2 CURVE SMOOTH",
"448 -2 OFFCURVE",
"527 12 OFFCURVE",
"586 78 CURVE SMOOTH",
"602 97 OFFCURVE",
"607 111 OFFCURVE",
"607 130 CURVE SMOOTH",
"607 149 OFFCURVE",
"583 172 OFFCURVE",
"562 172 CURVE SMOOTH",
"548 172 OFFCURVE",
"532 169 OFFCURVE",
"517 153 CURVE",
"518 153 LINE",
"476 104 OFFCURVE",
"414 91 OFFCURVE",
"373 91 CURVE SMOOTH",
"233 91 OFFCURVE",
"157 190 OFFCURVE",
"157 304 CURVE SMOOTH",
"157 368 OFFCURVE",
"179 446 OFFCURVE",
"206 479 CURVE SMOOTH",
"239 518 OFFCURVE",
"326 545 OFFCURVE",
"378 545 CURVE SMOOTH",
"454 545 OFFCURVE",
"478 503 OFFCURVE",
"489 486 CURVE",
"499 469 OFFCURVE",
"513 461 OFFCURVE",
"541 461 CURVE SMOOTH",
"563 461 OFFCURVE",
"587 491 OFFCURVE",
"587 505 CURVE SMOOTH",
"587 518 OFFCURVE",
"581 530 OFFCURVE",
"560 555 CURVE SMOOTH"
);
},
{
closed = 1;
nodes = (
"310 849 OFFCURVE",
"297 832 OFFCURVE",
"290 823 CURVE SMOOTH",
"283 814 OFFCURVE",
"270 797 OFFCURVE",
"241 773 CURVE SMOOTH",
"223 758 OFFCURVE",
"201 733 OFFCURVE",
"201 722 CURVE SMOOTH",
"201 712 OFFCURVE",
"207 695 OFFCURVE",
"231 695 CURVE SMOOTH",
"272 695 OFFCURVE",
"325 746 OFFCURVE",
"348 779 CURVE",
"376 740 OFFCURVE",
"414 695 OFFCURVE",
"464 695 CURVE SMOOTH",
"482 695 OFFCURVE",
"494 712 OFFCURVE",
"494 722 CURVE SMOOTH",
"494 730 OFFCURVE",
"491 740 OFFCURVE",
"472 754 CURVE SMOOTH",
"449 770 OFFCURVE",
"419 799 OFFCURVE",
"405 819 CURVE SMOOTH",
"392 839 OFFCURVE",
"378 849 OFFCURVE",
"346 849 CURVE SMOOTH"
);
}
);
width = 643;
}
);
leftKerningGroup = C;
unicode = 0108;
},
{
glyphname = Cdotaccent;
layers = (
{
layerId = "88A9C6FE-0426-4B07-A0DF-A933171F58B2";
name = Regular;
paths = (
{
closed = 1;
nodes = (
"512 613 OFFCURVE",
"471 638 OFFCURVE",
"378 638 CURVE SMOOTH",
"320 638 OFFCURVE",
"208 622 OFFCURVE",
"156 574 CURVE SMOOTH",
"82 508 OFFCURVE",
"50 392 OFFCURVE",
"50 283 CURVE SMOOTH",
"50 236 OFFCURVE",
"81 148 OFFCURVE",
"107 111 CURVE",
"157 49 OFFCURVE",
"262 -2 OFFCURVE",
"355 -2 CURVE SMOOTH",
"448 -2 OFFCURVE",
"527 12 OFFCURVE",
"586 78 CURVE SMOOTH",
"602 97 OFFCURVE",
"607 111 OFFCURVE",
"607 130 CURVE SMOOTH",
"607 149 OFFCURVE",
"583 172 OFFCURVE",
"562 172 CURVE SMOOTH",
"548 172 OFFCURVE",
"532 169 OFFCURVE",
"517 153 CURVE",
"518 153 LINE",
"476 104 OFFCURVE",
"414 91 OFFCURVE",
"373 91 CURVE SMOOTH",
"233 91 OFFCURVE",
"157 190 OFFCURVE",
"157 304 CURVE SMOOTH",
"157 368 OFFCURVE",
"179 446 OFFCURVE",
"206 479 CURVE SMOOTH",
"239 518 OFFCURVE",
"326 545 OFFCURVE",
"378 545 CURVE SMOOTH",
"454 545 OFFCURVE",
"478 503 OFFCURVE",
"489 486 CURVE",
"499 469 OFFCURVE",
"513 461 OFFCURVE",
"541 461 CURVE SMOOTH",
"563 461 OFFCURVE",
"587 491 OFFCURVE",
"587 505 CURVE SMOOTH",
"587 518 OFFCURVE",
"581 530 OFFCURVE",
"560 555 CURVE SMOOTH"
);
},
{
closed = 1;
nodes = (
"408 818 OFFCURVE",
"393 837 OFFCURVE",
"357 837 CURVE SMOOTH",
"326 837 OFFCURVE",
"295 820 OFFCURVE",
"295 777 CURVE SMOOTH",
"295 749 OFFCURVE",
"319 732 OFFCURVE",
"347 732 CURVE SMOOTH",
"372 732 OFFCURVE",
"408 750 OFFCURVE",
"408 787 CURVE SMOOTH"
);
}
);
width = 643;
}
);
leftKerningGroup = C;
unicode = 010A;
},
{
glyphname = D;
layers = (
{
layerId = "88A9C6FE-0426-4B07-A0DF-A933171F58B2";
name = Regular;
paths = (
{
closed = 1;
nodes = (
"196 634 OFFCURVE",
"177 638 OFFCURVE",
"153 638 CURVE SMOOTH",
"126 638 OFFCURVE",
"89 618 OFFCURVE",
"89 588 CURVE SMOOTH",
"89 494 OFFCURVE",
"112 446 OFFCURVE",
"112 238 CURVE SMOOTH",
"112 192 OFFCURVE",
"110 145 OFFCURVE",
"105 98 CURVE",
"85 103 OFFCURVE",
"50 94 OFFCURVE",
"50 67 CURVE SMOOTH",
"50 12 OFFCURVE",
"158 -1 OFFCURVE",
"228 -1 CURVE SMOOTH",
"419 -1 OFFCURVE",
"481 51 OFFCURVE",
"543 111 CURVE SMOOTH",
"593 157 OFFCURVE",
"626 240 OFFCURVE",
"626 307 CURVE SMOOTH",
"626 409 OFFCURVE",
"586 472 OFFCURVE",
"551 513 CURVE SMOOTH",
"515 554 OFFCURVE",
"422 634 OFFCURVE",
"215 634 CURVE SMOOTH"
);
},
{
closed = 1;
nodes = (
"211 144 OFFCURVE",
"213 202 OFFCURVE",
"213 258 CURVE SMOOTH",
"213 319 OFFCURVE",
"210 387 OFFCURVE",
"207 445 CURVE SMOOTH",
"205 486 OFFCURVE",
"202 523 OFFCURVE",
"202 547 CURVE",
"302 547 OFFCURVE",
"373 534 OFFCURVE",
"423 503 CURVE SMOOTH",
"490 461 OFFCURVE",
"521 398 OFFCURVE",
"521 308 CURVE SMOOTH",
"521 174 OFFCURVE",
"395 89 OFFCURVE",
"265 89 CURVE SMOOTH",
"236 89 OFFCURVE",
"220 90 OFFCURVE",
"202 93 CURVE"
);
}
);
width = 662;
}
);
rightKerningGroup = D;
unicode = 0044;
},
{
glyphname = DZ;
layers = (
{
layerId = "88A9C6FE-0426-4B07-A0DF-A933171F58B2";
name = Regular;
paths = (
{
closed = 1;
nodes = (
"196 634 OFFCURVE",
"177 638 OFFCURVE",
"153 638 CURVE SMOOTH",
"126 638 OFFCURVE",
"89 618 OFFCURVE",
"89 588 CURVE SMOOTH",
"89 494 OFFCURVE",
"112 446 OFFCURVE",
"112 238 CURVE SMOOTH",
"112 192 OFFCURVE",
"110 145 OFFCURVE",
"105 98 CURVE",
"85 103 OFFCURVE",
"50 94 OFFCURVE",
"50 67 CURVE SMOOTH",
"50 12 OFFCURVE",
"158 -1 OFFCURVE",
"228 -1 CURVE SMOOTH",
"419 -1 OFFCURVE",
"481 51 OFFCURVE",
"543 111 CURVE SMOOTH",
"593 157 OFFCURVE",
"626 240 OFFCURVE",
"626 307 CURVE SMOOTH",
"626 409 OFFCURVE",
"586 472 OFFCURVE",
"551 513 CURVE SMOOTH",
"515 554 OFFCURVE",
"422 634 OFFCURVE",
"215 634 CURVE SMOOTH"
);
},
{
closed = 1;
nodes = (
"211 144 OFFCURVE",
"213 202 OFFCURVE",
"213 258 CURVE SMOOTH",
"213 319 OFFCURVE",
"210 387 OFFCURVE",
"207 445 CURVE SMOOTH",
"205 486 OFFCURVE",
"202 523 OFFCURVE",
"202 547 CURVE",
"302 547 OFFCURVE",
"373 534 OFFCURVE",
"423 503 CURVE SMOOTH",
"490 461 OFFCURVE",
"521 398 OFFCURVE",
"521 308 CURVE SMOOTH",
"521 174 OFFCURVE",
"395 89 OFFCURVE",
"265 89 CURVE SMOOTH",
"236 89 OFFCURVE",
"220 90 OFFCURVE",
"202 93 CURVE"
);
},
{
closed = 1;
nodes = (
"798 14 OFFCURVE",
"832 13 OFFCURVE",
"867 13 CURVE SMOOTH",
"918 13 OFFCURVE",
"961 16 OFFCURVE",
"1011 16 CURVE SMOOTH",
"1063 16 OFFCURVE",
"1152 2 OFFCURVE",
"1170 2 CURVE SMOOTH",
"1201 2 OFFCURVE",
"1217 19 OFFCURVE",
"1217 35 CURVE SMOOTH",
"1217 49 OFFCURVE",
"1207 83 OFFCURVE",
"1197 89 CURVE",
"1161 113 OFFCURVE",
"1067 114 OFFCURVE",
"1046 114 CURVE SMOOTH",
"972 114 OFFCURVE",
"893 106 OFFCURVE",
"819 103 CURVE",
"819 103 OFFCURVE",
"919 211 OFFCURVE",
"1009 317 CURVE SMOOTH",
"1084 403 OFFCURVE",
"1153 494 OFFCURVE",
"1169 522 CURVE SMOOTH",
"1176 534 OFFCURVE",
"1182 553 OFFCURVE",
"1182 569 CURVE SMOOTH",
"1182 578 OFFCURVE",
"1170 608 OFFCURVE",
"1151 614 CURVE",
"1103 626 OFFCURVE",
"1019 627 OFFCURVE",
"972 627 CURVE SMOOTH",
"911 627 OFFCURVE",
"800 618 OFFCURVE",
"756 613 CURVE SMOOTH",
"735 610 OFFCURVE",
"720 587 OFFCURVE",
"720 571 CURVE SMOOTH",
"720 545 OFFCURVE",
"718 518 OFFCURVE",
"801 518 CURVE SMOOTH",
"842 518 OFFCURVE",
"882 528 OFFCURVE",
"927 528 CURVE SMOOTH",
"971 528 OFFCURVE",
"994 526 OFFCURVE",
"1055 523 CURVE",
"1055 523 OFFCURVE",
"782 216 OFFCURVE",
"706 124 CURVE SMOOTH",
"700 117 OFFCURVE",
"691 93 OFFCURVE",
"691 76 CURVE SMOOTH",
"691 60 OFFCURVE",
"698 24 OFFCURVE",
"765 18 CURVE SMOOTH"
);
}
);
width = 1231;
}
);
unicode = 01F1;
},
{
glyphname = DZcaron;
layers = (
{
layerId = "88A9C6FE-0426-4B07-A0DF-A933171F58B2";
name = Regular;
paths = (
{
closed = 1;
nodes = (
"196 634 OFFCURVE",
"177 638 OFFCURVE",
"153 638 CURVE SMOOTH",
"126 638 OFFCURVE",
"89 618 OFFCURVE",
"89 588 CURVE SMOOTH",
"89 494 OFFCURVE",
"112 446 OFFCURVE",
"112 238 CURVE SMOOTH",
"112 192 OFFCURVE",
"110 145 OFFCURVE",
"105 98 CURVE",
"85 103 OFFCURVE",
"50 94 OFFCURVE",
"50 67 CURVE SMOOTH",
"50 12 OFFCURVE",
"158 -1 OFFCURVE",
"228 -1 CURVE SMOOTH",
"419 -1 OFFCURVE",
"481 51 OFFCURVE",
"543 111 CURVE SMOOTH",
"593 157 OFFCURVE",
"626 240 OFFCURVE",
"626 307 CURVE SMOOTH",
"626 409 OFFCURVE",
"586 472 OFFCURVE",
"551 513 CURVE SMOOTH",
"515 554 OFFCURVE",
"422 634 OFFCURVE",
"215 634 CURVE SMOOTH"
);
},
{
closed = 1;
nodes = (
"211 144 OFFCURVE",
"213 202 OFFCURVE",
"213 258 CURVE SMOOTH",
"213 319 OFFCURVE",
"210 387 OFFCURVE",
"207 445 CURVE SMOOTH",
"205 486 OFFCURVE",
"202 523 OFFCURVE",
"202 547 CURVE",
"302 547 OFFCURVE",
"373 534 OFFCURVE",
"423 503 CURVE SMOOTH",
"490 461 OFFCURVE",
"521 398 OFFCURVE",
"521 308 CURVE SMOOTH",
"521 174 OFFCURVE",
"395 89 OFFCURVE",
"265 89 CURVE SMOOTH",
"236 89 OFFCURVE",
"220 90 OFFCURVE",
"202 93 CURVE"
);
},
{
closed = 1;
nodes = (
"798 14 OFFCURVE",
"832 13 OFFCURVE",
"867 13 CURVE SMOOTH",
"918 13 OFFCURVE",
"961 16 OFFCURVE",
"1011 16 CURVE SMOOTH",
"1063 16 OFFCURVE",
"1152 2 OFFCURVE",
"1170 2 CURVE SMOOTH",
"1201 2 OFFCURVE",
"1217 19 OFFCURVE",
"1217 35 CURVE SMOOTH",
"1217 49 OFFCURVE",
"1207 83 OFFCURVE",
"1197 89 CURVE",
"1161 113 OFFCURVE",
"1067 114 OFFCURVE",
"1046 114 CURVE SMOOTH",
"972 114 OFFCURVE",
"893 106 OFFCURVE",
"819 103 CURVE",
"819 103 OFFCURVE",
"919 211 OFFCURVE",
"1009 317 CURVE SMOOTH",
"1084 403 OFFCURVE",
"1153 494 OFFCURVE",
"1169 522 CURVE SMOOTH",
"1176 534 OFFCURVE",
"1182 553 OFFCURVE",
"1182 569 CURVE SMOOTH",
"1182 578 OFFCURVE",
"1170 608 OFFCURVE",
"1151 614 CURVE",
"1103 626 OFFCURVE",
"1019 627 OFFCURVE",
"972 627 CURVE SMOOTH",
"911 627 OFFCURVE",
"800 618 OFFCURVE",
"756 613 CURVE SMOOTH",
"735 610 OFFCURVE",
"720 587 OFFCURVE",
"720 571 CURVE SMOOTH",
"720 545 OFFCURVE",
"718 518 OFFCURVE",
"801 518 CURVE SMOOTH",
"842 518 OFFCURVE",
"882 528 OFFCURVE",
"927 528 CURVE SMOOTH",
"971 528 OFFCURVE",
"994 526 OFFCURVE",
"1055 523 CURVE",
"1055 523 OFFCURVE",
"782 216 OFFCURVE",
"706 124 CURVE SMOOTH",
"700 117 OFFCURVE",
"691 93 OFFCURVE",
"691 76 CURVE SMOOTH",
"691 60 OFFCURVE",
"698 24 OFFCURVE",
"765 18 CURVE SMOOTH"
);
},
{
closed = 1;
nodes = (
"992 713 OFFCURVE",
"1010 724 OFFCURVE",
"1017 733 CURVE SMOOTH",
"1024 742 OFFCURVE",
"1041 762 OFFCURVE",
"1069 789 CURVE SMOOTH",
"1086 805 OFFCURVE",
"1109 829 OFFCURVE",
"1109 840 CURVE SMOOTH",
"1109 850 OFFCURVE",
"1082 867 OFFCURVE",
"1059 867 CURVE SMOOTH",
"1031 867 OFFCURVE",
"1007 822 OFFCURVE",
"962 784 CURVE",
"924 818 OFFCURVE",
"905 867 OFFCURVE",
"855 867 CURVE SMOOTH",
"837 867 OFFCURVE",
"816 850 OFFCURVE",
"816 840 CURVE SMOOTH",
"816 832 OFFCURVE",
"823 825 OFFCURVE",
"838 808 CURVE SMOOTH",
"860 784 OFFCURVE",
"889 753 OFFCURVE",
"902 741 CURVE",
"919 724 OFFCURVE",
"932 713 OFFCURVE",
"964 713 CURVE SMOOTH"
);
}
);
width = 1221;
}
);
unicode = 01C4;
},
{
glyphname = Eth;
layers = (
{
layerId = "88A9C6FE-0426-4B07-A0DF-A933171F58B2";
name = Regular;
paths = (
{
closed = 1;
nodes = (
"217 634 OFFCURVE",
"201 638 OFFCURVE",
"173 638 CURVE SMOOTH",
"145 638 OFFCURVE",
"108 617 OFFCURVE",
"108 586 CURVE SMOOTH",
"108 544 OFFCURVE",
"121 476 OFFCURVE",
"127 360 CURVE",
"117 361 OFFCURVE",
"109 362 OFFCURVE",
"103 362 CURVE SMOOTH",
"67 362 OFFCURVE",
"50 347 OFFCURVE",
"50 324 CURVE SMOOTH",
"50 277 OFFCURVE",
"85 270 OFFCURVE",
"121 270 CURVE SMOOTH",
"130 270 LINE",
"130 238 LINE SMOOTH",
"130 191 OFFCURVE",
"126 136 OFFCURVE",
"123 96 CURVE",
"104 102 OFFCURVE",
"69 96 OFFCURVE",
"69 68 CURVE SMOOTH",
"69 12 OFFCURVE",
"177 -1 OFFCURVE",
"247 -1 CURVE SMOOTH",
"436 -1 OFFCURVE",
"499 55 OFFCURVE",
"562 114 CURVE SMOOTH",
"612 162 OFFCURVE",
"644 241 OFFCURVE",
"644 307 CURVE SMOOTH",
"644 410 OFFCURVE",
"605 472 OFFCURVE",
"571 513 CURVE SMOOTH",
"535 554 OFFCURVE",
"445 634 OFFCURVE",
"235 634 CURVE SMOOTH"
);
},
{
closed = 1;
nodes = (
"226 139 OFFCURVE",
"229 203 OFFCURVE",
"229 258 CURVE SMOOTH",
"229 271 LINE",
"259 271 OFFCURVE",
"286 272 OFFCURVE",
"298 274 CURVE",
"343 278 OFFCURVE",
"362 290 OFFCURVE",
"362 311 CURVE SMOOTH",
"362 346 OFFCURVE",
"337 364 OFFCURVE",
"309 364 CURVE SMOOTH",
"294 364 OFFCURVE",
"259 361 OFFCURVE",
"226 359 CURVE",
"223 436 OFFCURVE",
"218 511 OFFCURVE",
"218 551 CURVE",
"451 551 OFFCURVE",
"539 461 OFFCURVE",
"539 308 CURVE SMOOTH",
"539 175 OFFCURVE",
"411 86 OFFCURVE",
"283 86 CURVE SMOOTH",
"262 86 OFFCURVE",
"238 85 OFFCURVE",
"217 90 CURVE"
);
}
);
width = 680;
}
);
rightKerningGroup = D;
unicode = 00D0;
},
{
glyphname = Dcaron;
layers = (
{
layerId = "88A9C6FE-0426-4B07-A0DF-A933171F58B2";
name = Regular;
paths = (
{
closed = 1;
nodes = (
"196 634 OFFCURVE",
"177 638 OFFCURVE",
"153 638 CURVE SMOOTH",
"126 638 OFFCURVE",
"89 618 OFFCURVE",
"89 588 CURVE SMOOTH",
"89 494 OFFCURVE",
"112 446 OFFCURVE",
"112 238 CURVE SMOOTH",
"112 192 OFFCURVE",
"110 145 OFFCURVE",
"105 98 CURVE",
"85 103 OFFCURVE",
"50 94 OFFCURVE",
"50 67 CURVE SMOOTH",
"50 12 OFFCURVE",
"158 -1 OFFCURVE",
"228 -1 CURVE SMOOTH",
"419 -1 OFFCURVE",
"481 51 OFFCURVE",
"543 111 CURVE SMOOTH",
"593 157 OFFCURVE",
"626 240 OFFCURVE",
"626 307 CURVE SMOOTH",
"626 409 OFFCURVE",
"586 472 OFFCURVE",
"551 513 CURVE SMOOTH",
"515 554 OFFCURVE",
"422 634 OFFCURVE",
"215 634 CURVE SMOOTH"
);
},
{
closed = 1;
nodes = (
"211 144 OFFCURVE",
"213 202 OFFCURVE",
"213 258 CURVE SMOOTH",
"213 319 OFFCURVE",
"210 387 OFFCURVE",
"207 445 CURVE SMOOTH",
"205 486 OFFCURVE",
"202 523 OFFCURVE",
"202 547 CURVE",
"302 547 OFFCURVE",
"373 534 OFFCURVE",
"423 503 CURVE SMOOTH",
"490 461 OFFCURVE",
"521 398 OFFCURVE",
"521 308 CURVE SMOOTH",
"521 174 OFFCURVE",
"395 89 OFFCURVE",
"265 89 CURVE SMOOTH",
"236 89 OFFCURVE",
"220 90 OFFCURVE",
"202 93 CURVE"
);
},
{
closed = 1;
nodes = (
"354 713 OFFCURVE",
"372 724 OFFCURVE",
"379 733 CURVE SMOOTH",
"386 742 OFFCURVE",
"403 762 OFFCURVE",
"431 789 CURVE SMOOTH",
"448 805 OFFCURVE",
"471 829 OFFCURVE",
"471 840 CURVE SMOOTH",
"471 850 OFFCURVE",
"444 867 OFFCURVE",
"421 867 CURVE SMOOTH",
"393 867 OFFCURVE",
"369 822 OFFCURVE",
"324 784 CURVE",
"286 818 OFFCURVE",
"267 867 OFFCURVE",
"217 867 CURVE SMOOTH",
"199 867 OFFCURVE",
"178 850 OFFCURVE",
"178 840 CURVE SMOOTH",
"178 832 OFFCURVE",
"185 825 OFFCURVE",
"200 808 CURVE SMOOTH",
"222 784 OFFCURVE",
"251 753 OFFCURVE",
"264 741 CURVE",
"281 724 OFFCURVE",
"294 713 OFFCURVE",
"326 713 CURVE SMOOTH"
);
}
);
width = 662;
}
);
rightKerningGroup = D;
unicode = 010E;
},
{
glyphname = Dcroat;
layers = (
{
layerId = "88A9C6FE-0426-4B07-A0DF-A933171F58B2";
name = Regular;
paths = (
{
closed = 1;
nodes = (
"217 634 OFFCURVE",
"201 638 OFFCURVE",
"173 638 CURVE SMOOTH",
"145 638 OFFCURVE",
"108 617 OFFCURVE",
"108 586 CURVE SMOOTH",
"108 544 OFFCURVE",
"121 476 OFFCURVE",
"127 360 CURVE",
"117 361 OFFCURVE",
"109 362 OFFCURVE",
"103 362 CURVE SMOOTH",
"67 362 OFFCURVE",
"50 347 OFFCURVE",
"50 324 CURVE SMOOTH",
"50 277 OFFCURVE",
"85 270 OFFCURVE",
"121 270 CURVE SMOOTH",
"130 270 LINE",
"130 238 LINE SMOOTH",
"130 191 OFFCURVE",
"126 136 OFFCURVE",
"123 96 CURVE",
"104 102 OFFCURVE",
"69 96 OFFCURVE",
"69 68 CURVE SMOOTH",
"69 12 OFFCURVE",
"177 -1 OFFCURVE",
"247 -1 CURVE SMOOTH",
"436 -1 OFFCURVE",
"499 55 OFFCURVE",
"562 114 CURVE SMOOTH",
"612 162 OFFCURVE",
"644 241 OFFCURVE",
"644 307 CURVE SMOOTH",
"644 410 OFFCURVE",
"605 472 OFFCURVE",
"571 513 CURVE SMOOTH",
"535 554 OFFCURVE",
"445 634 OFFCURVE",
"235 634 CURVE SMOOTH"
);
},
{
closed = 1;
nodes = (
"226 139 OFFCURVE",
"229 203 OFFCURVE",
"229 258 CURVE SMOOTH",
"229 271 LINE",
"259 271 OFFCURVE",
"286 272 OFFCURVE",
"298 274 CURVE",
"343 278 OFFCURVE",
"362 290 OFFCURVE",
"362 311 CURVE SMOOTH",
"362 346 OFFCURVE",
"337 364 OFFCURVE",
"309 364 CURVE SMOOTH",
"294 364 OFFCURVE",
"259 361 OFFCURVE",
"226 359 CURVE",
"223 436 OFFCURVE",
"218 511 OFFCURVE",
"218 551 CURVE",
"451 551 OFFCURVE",
"539 461 OFFCURVE",
"539 308 CURVE SMOOTH",
"539 175 OFFCURVE",
"411 86 OFFCURVE",
"283 86 CURVE SMOOTH",
"262 86 OFFCURVE",
"238 85 OFFCURVE",
"217 90 CURVE"
);
}
);
width = 680;
}
);
rightKerningGroup = D;
unicode = 0110;
},
{
glyphname = Ddotbelow;
layers = (
{
layerId = "88A9C6FE-0426-4B07-A0DF-A933171F58B2";
name = Regular;
paths = (
{
closed = 1;
nodes = (
"196 634 OFFCURVE",
"177 638 OFFCURVE",
"153 638 CURVE SMOOTH",
"126 638 OFFCURVE",
"89 618 OFFCURVE",
"89 588 CURVE SMOOTH",
"89 494 OFFCURVE",
"112 446 OFFCURVE",
"112 238 CURVE SMOOTH",
"112 192 OFFCURVE",
"110 145 OFFCURVE",
"105 98 CURVE",
"85 103 OFFCURVE",
"50 94 OFFCURVE",
"50 67 CURVE SMOOTH",
"50 12 OFFCURVE",
"158 -1 OFFCURVE",
"228 -1 CURVE SMOOTH",
"419 -1 OFFCURVE",
"481 51 OFFCURVE",
"543 111 CURVE SMOOTH",
"593 157 OFFCURVE",
"626 240 OFFCURVE",
"626 307 CURVE SMOOTH",
"626 409 OFFCURVE",
"586 472 OFFCURVE",
"551 513 CURVE SMOOTH",
"515 554 OFFCURVE",
"422 634 OFFCURVE",
"215 634 CURVE SMOOTH"
);
},
{
closed = 1;
nodes = (
"211 144 OFFCURVE",
"213 202 OFFCURVE",
"213 258 CURVE SMOOTH",
"213 319 OFFCURVE",
"210 387 OFFCURVE",
"207 445 CURVE SMOOTH",
"205 486 OFFCURVE",
"202 523 OFFCURVE",
"202 547 CURVE",
"302 547 OFFCURVE",
"373 534 OFFCURVE",
"423 503 CURVE SMOOTH",
"490 461 OFFCURVE",
"521 398 OFFCURVE",
"521 308 CURVE SMOOTH",
"521 174 OFFCURVE",
"395 89 OFFCURVE",
"265 89 CURVE SMOOTH",
"236 89 OFFCURVE",
"220 90 OFFCURVE",
"202 93 CURVE"
);
},
{
closed = 1;
nodes = (
"372 -77 OFFCURVE",
"359 -59 OFFCURVE",
"324 -59 CURVE SMOOTH",
"294 -59 OFFCURVE",
"265 -75 OFFCURVE",
"265 -116 CURVE SMOOTH",
"265 -142 OFFCURVE",
"287 -158 OFFCURVE",
"314 -158 CURVE SMOOTH",
"338 -158 OFFCURVE",
"372 -141 OFFCURVE",
"372 -106 CURVE SMOOTH"
);
}
);
width = 662;
}
);
unicode = 1E0C;
},
{
glyphname = Dlinebelow;
layers = (
{
layerId = "88A9C6FE-0426-4B07-A0DF-A933171F58B2";
name = Regular;
paths = (
{
closed = 1;
nodes = (
"196 634 OFFCURVE",
"177 638 OFFCURVE",
"153 638 CURVE SMOOTH",
"126 638 OFFCURVE",
"89 618 OFFCURVE",
"89 588 CURVE SMOOTH",
"89 494 OFFCURVE",
"112 446 OFFCURVE",
"112 238 CURVE SMOOTH",
"112 192 OFFCURVE",
"110 145 OFFCURVE",
"105 98 CURVE",
"85 103 OFFCURVE",
"50 94 OFFCURVE",
"50 67 CURVE SMOOTH",
"50 12 OFFCURVE",
"158 -1 OFFCURVE",
"228 -1 CURVE SMOOTH",
"419 -1 OFFCURVE",
"481 51 OFFCURVE",
"543 111 CURVE SMOOTH",
"593 157 OFFCURVE",
"626 240 OFFCURVE",
"626 307 CURVE SMOOTH",
"626 409 OFFCURVE",
"586 472 OFFCURVE",
"551 513 CURVE SMOOTH",
"515 554 OFFCURVE",
"422 634 OFFCURVE",
"215 634 CURVE SMOOTH"
);
},
{
closed = 1;
nodes = (
"211 144 OFFCURVE",
"213 202 OFFCURVE",
"213 258 CURVE SMOOTH",
"213 319 OFFCURVE",
"210 387 OFFCURVE",
"207 445 CURVE SMOOTH",
"205 486 OFFCURVE",
"202 523 OFFCURVE",
"202 547 CURVE",
"302 547 OFFCURVE",
"373 534 OFFCURVE",
"423 503 CURVE SMOOTH",
"490 461 OFFCURVE",
"521 398 OFFCURVE",
"521 308 CURVE SMOOTH",
"521 174 OFFCURVE",
"395 89 OFFCURVE",
"265 89 CURVE SMOOTH",
"236 89 OFFCURVE",
"220 90 OFFCURVE",
"202 93 CURVE"
);
},
{
closed = 1;
nodes = (
"398 -132 LINE SMOOTH",
"445 -132 OFFCURVE",
"459 -125 OFFCURVE",
"459 -84 CURVE SMOOTH",
"459 -64 OFFCURVE",
"366 -65 OFFCURVE",
"306 -65 CURVE SMOOTH",
"239 -65 OFFCURVE",
"186 -69 OFFCURVE",
"186 -104 CURVE SMOOTH",
"186 -133 OFFCURVE",
"192 -139 OFFCURVE",
"216 -139 CURVE SMOOTH",
"224 -139 OFFCURVE",
"256 -135 OFFCURVE",
"286 -135 CURVE SMOOTH"
);
}
);
width = 662;
}
);
unicode = 1E0E;
},
{
glyphname = Dz;
layers = (
{
layerId = "88A9C6FE-0426-4B07-A0DF-A933171F58B2";
name = Regular;
paths = (
{
closed = 1;
nodes = (
"196 634 OFFCURVE",
"177 638 OFFCURVE",
"153 638 CURVE SMOOTH",
"126 638 OFFCURVE",
"89 618 OFFCURVE",
"89 588 CURVE SMOOTH",
"89 494 OFFCURVE",
"112 446 OFFCURVE",
"112 238 CURVE SMOOTH",
"112 192 OFFCURVE",
"110 145 OFFCURVE",
"105 98 CURVE",
"85 103 OFFCURVE",
"50 94 OFFCURVE",
"50 67 CURVE SMOOTH",
"50 12 OFFCURVE",
"158 -1 OFFCURVE",
"228 -1 CURVE SMOOTH",
"419 -1 OFFCURVE",
"481 51 OFFCURVE",
"543 111 CURVE SMOOTH",
"593 157 OFFCURVE",
"626 240 OFFCURVE",
"626 307 CURVE SMOOTH",
"626 409 OFFCURVE",
"586 472 OFFCURVE",
"551 513 CURVE SMOOTH",
"515 554 OFFCURVE",
"422 634 OFFCURVE",
"215 634 CURVE SMOOTH"
);
},
{
closed = 1;
nodes = (
"211 144 OFFCURVE",
"213 202 OFFCURVE",
"213 258 CURVE SMOOTH",
"213 319 OFFCURVE",
"210 387 OFFCURVE",
"207 445 CURVE SMOOTH",
"205 486 OFFCURVE",
"202 523 OFFCURVE",
"202 547 CURVE",
"302 547 OFFCURVE",
"373 534 OFFCURVE",
"423 503 CURVE SMOOTH",
"490 461 OFFCURVE",
"521 398 OFFCURVE",
"521 308 CURVE SMOOTH",
"521 174 OFFCURVE",
"395 89 OFFCURVE",
"265 89 CURVE SMOOTH",
"236 89 OFFCURVE",
"220 90 OFFCURVE",
"202 93 CURVE"
);
},
{
closed = 1;
nodes = (
"1066 352 OFFCURVE",
"1071 367 OFFCURVE",
"1071 380 CURVE SMOOTH",
"1071 394 OFFCURVE",
"1063 411 OFFCURVE",
"1047 416 CURVE",
"1013 425 OFFCURVE",
"939 427 OFFCURVE",
"894 427 CURVE SMOOTH",
"846 427 OFFCURVE",
"776 426 OFFCURVE",
"747 422 CURVE",
"725 418 OFFCURVE",
"711 397 OFFCURVE",
"711 380 CURVE SMOOTH",
"711 345 OFFCURVE",
"738 337 OFFCURVE",
"787 337 CURVE SMOOTH",
"834 337 OFFCURVE",
"891 338 OFFCURVE",
"947 338 CURVE",
"918 288 OFFCURVE",
"849 243 OFFCURVE",
"802 196 CURVE SMOOTH",
"774 166 OFFCURVE",
"702 99 OFFCURVE",
"702 55 CURVE SMOOTH",
"702 8 OFFCURVE",
"749 -2 OFFCURVE",
"805 -2 CURVE SMOOTH",
"873 -2 OFFCURVE",
"963 9 OFFCURVE",
"1016 9 CURVE SMOOTH",
"1044 9 OFFCURVE",
"1061 0 OFFCURVE",
"1083 0 CURVE SMOOTH",
"1101 0 OFFCURVE",
"1113 30 OFFCURVE",
"1113 45 CURVE SMOOTH",
"1113 58 OFFCURVE",
"1104 76 OFFCURVE",
"1092 82 CURVE SMOOTH",
"1066 96 OFFCURVE",
"1037 102 OFFCURVE",
"1017 102 CURVE SMOOTH",
"979 102 OFFCURVE",
"935 86 OFFCURVE",
"894 86 CURVE SMOOTH",
"882 86 OFFCURVE",
"839 86 OFFCURVE",
"819 90 CURVE",
"853 121 LINE",
"910 180 OFFCURVE",
"1018 266 OFFCURVE",
"1061 342 CURVE"
);
}
);
width = 1126;
}
);
unicode = 01F2;
},
{
glyphname = Dzcaron;
lastChange = "2015-07-01 08:06:45 +0000";
layers = (
{
layerId = "88A9C6FE-0426-4B07-A0DF-A933171F58B2";
name = Regular;
paths = (
{
closed = 1;
nodes = (
"196 634 OFFCURVE",
"177 638 OFFCURVE",
"153 638 CURVE SMOOTH",
"126 638 OFFCURVE",
"89 618 OFFCURVE",
"89 588 CURVE SMOOTH",
"89 494 OFFCURVE",
"112 446 OFFCURVE",
"112 238 CURVE SMOOTH",
"112 192 OFFCURVE",
"110 145 OFFCURVE",
"105 98 CURVE",
"85 103 OFFCURVE",
"50 94 OFFCURVE",
"50 67 CURVE SMOOTH",
"50 12 OFFCURVE",
"158 -1 OFFCURVE",
"228 -1 CURVE SMOOTH",
"419 -1 OFFCURVE",
"481 51 OFFCURVE",
"543 111 CURVE SMOOTH",
"593 157 OFFCURVE",
"626 240 OFFCURVE",
"626 307 CURVE SMOOTH",
"626 409 OFFCURVE",
"586 472 OFFCURVE",
"551 513 CURVE SMOOTH",
"515 554 OFFCURVE",
"422 634 OFFCURVE",
"215 634 CURVE SMOOTH"
);
},
{
closed = 1;
nodes = (
"211 144 OFFCURVE",
"213 202 OFFCURVE",
"213 258 CURVE SMOOTH",
"213 319 OFFCURVE",
"210 387 OFFCURVE",
"207 445 CURVE SMOOTH",
"205 486 OFFCURVE",
"202 523 OFFCURVE",
"202 547 CURVE",
"302 547 OFFCURVE",
"373 534 OFFCURVE",
"423 503 CURVE SMOOTH",
"490 461 OFFCURVE",
"521 398 OFFCURVE",
"521 308 CURVE SMOOTH",
"521 174 OFFCURVE",
"395 89 OFFCURVE",
"265 89 CURVE SMOOTH",
"236 89 OFFCURVE",
"220 90 OFFCURVE",
"202 93 CURVE"
);
},
{
closed = 1;
nodes = (
"1066 352 OFFCURVE",
"1071 367 OFFCURVE",
"1071 380 CURVE SMOOTH",
"1071 394 OFFCURVE",
"1063 411 OFFCURVE",
"1047 416 CURVE",
"1013 425 OFFCURVE",
"939 427 OFFCURVE",
"894 427 CURVE SMOOTH",
"846 427 OFFCURVE",
"776 426 OFFCURVE",
"747 422 CURVE",
"725 418 OFFCURVE",
"711 397 OFFCURVE",
"711 380 CURVE SMOOTH",
"711 345 OFFCURVE",
"738 337 OFFCURVE",
"787 337 CURVE SMOOTH",
"834 337 OFFCURVE",
"891 338 OFFCURVE",
"947 338 CURVE",
"918 288 OFFCURVE",
"849 243 OFFCURVE",
"802 196 CURVE SMOOTH",
"774 166 OFFCURVE",
"702 99 OFFCURVE",
"702 55 CURVE SMOOTH",
"702 8 OFFCURVE",
"749 -2 OFFCURVE",
"805 -2 CURVE SMOOTH",
"873 -2 OFFCURVE",
"963 9 OFFCURVE",
"1016 9 CURVE SMOOTH",
"1044 9 OFFCURVE",
"1061 0 OFFCURVE",
"1083 0 CURVE SMOOTH",
"1101 0 OFFCURVE",
"1113 30 OFFCURVE",
"1113 45 CURVE SMOOTH",
"1113 58 OFFCURVE",
"1104 76 OFFCURVE",
"1092 82 CURVE SMOOTH",
"1066 96 OFFCURVE",
"1037 102 OFFCURVE",
"1017 102 CURVE SMOOTH",
"979 102 OFFCURVE",
"935 86 OFFCURVE",
"894 86 CURVE SMOOTH",
"882 86 OFFCURVE",
"839 86 OFFCURVE",
"819 90 CURVE",
"853 121 LINE",
"910 180 OFFCURVE",
"1018 266 OFFCURVE",
"1061 342 CURVE"
);
},
{
closed = 1;
nodes = (
"930 502 OFFCURVE",
"948 513 OFFCURVE",
"955 522 CURVE SMOOTH",
"962 531 OFFCURVE",
"979 551 OFFCURVE",
"1007 578 CURVE SMOOTH",
"1024 594 OFFCURVE",
"1047 618 OFFCURVE",
"1047 629 CURVE SMOOTH",
"1047 639 OFFCURVE",
"1020 656 OFFCURVE",
"997 656 CURVE SMOOTH",
"969 656 OFFCURVE",
"945 611 OFFCURVE",
"900 573 CURVE",
"862 607 OFFCURVE",
"843 656 OFFCURVE",
"793 656 CURVE SMOOTH",
"775 656 OFFCURVE",
"754 639 OFFCURVE",
"754 629 CURVE SMOOTH",
"754 621 OFFCURVE",
"761 614 OFFCURVE",
"776 597 CURVE SMOOTH",
"798 573 OFFCURVE",
"827 542 OFFCURVE",
"840 530 CURVE",
"857 513 OFFCURVE",
"870 502 OFFCURVE",
"902 502 CURVE SMOOTH"
);
}
);
width = 1126;
}
);
unicode = 01C5;
},
{
glyphname = E;
layers = (
{
layerId = "88A9C6FE-0426-4B07-A0DF-A933171F58B2";
name = Regular;
paths = (
{
closed = 1;
nodes = (
"462 136 OFFCURVE",
"442 130 OFFCURVE",
"418 121 CURVE",
"382 110 OFFCURVE",
"335 94 OFFCURVE",
"259 94 CURVE SMOOTH",
"174 94 OFFCURVE",
"165 138 OFFCURVE",
"165 165 CURVE SMOOTH",
"165 197 OFFCURVE",
"166 237 OFFCURVE",
"168 278 CURVE",
"183 277 OFFCURVE",
"200 276 OFFCURVE",
"215 276 CURVE SMOOTH",
"281 276 OFFCURVE",
"355 282 OFFCURVE",
"402 291 CURVE SMOOTH",
"442 299 OFFCURVE",
"454 315 OFFCURVE",
"454 343 CURVE SMOOTH",
"454 361 OFFCURVE",
"439 373 OFFCURVE",
"409 373 CURVE SMOOTH",
"382 373 OFFCURVE",
"350 371 OFFCURVE",
"318 368 CURVE SMOOTH",
"271 364 OFFCURVE",
"221 358 OFFCURVE",
"172 364 CURVE",
"172 402 OFFCURVE",
"177 450 OFFCURVE",
"186 516 CURVE",
"189 532 OFFCURVE",
"204 537 OFFCURVE",
"240 540 CURVE",
"256 542 OFFCURVE",
"274 543 OFFCURVE",
"289 543 CURVE SMOOTH",
"347 543 OFFCURVE",
"405 535 OFFCURVE",
"465 535 CURVE SMOOTH",
"505 535 OFFCURVE",
"519 573 OFFCURVE",
"519 593 CURVE SMOOTH",
"519 620 OFFCURVE",
"493 626 OFFCURVE",
"460 632 CURVE",
"436 635 OFFCURVE",
"405 635 OFFCURVE",
"382 635 CURVE SMOOTH",
"359 635 OFFCURVE",
"328 634 OFFCURVE",
"295 634 CURVE SMOOTH",
"260 633 OFFCURVE",
"223 632 OFFCURVE",
"194 632 CURVE SMOOTH",
"153 632 OFFCURVE",
"98 611 OFFCURVE",
"88 541 CURVE SMOOTH",
"67 390 OFFCURVE",
"61 310 OFFCURVE",
"61 213 CURVE SMOOTH",
"61 112 OFFCURVE",
"61 -1 OFFCURVE",
"252 -1 CURVE SMOOTH",
"351 -1 OFFCURVE",
"436 18 OFFCURVE",
"489 43 CURVE SMOOTH",
"511 54 OFFCURVE",
"520 60 OFFCURVE",
"520 90 CURVE SMOOTH",
"520 109 OFFCURVE",
"510 136 OFFCURVE",
"482 136 CURVE SMOOTH"
);
}
);
width = 552;
}
);
unicode = 0045;
},
{
glyphname = Eacute;
layers = (
{
layerId = "88A9C6FE-0426-4B07-A0DF-A933171F58B2";
name = Regular;
paths = (
{
closed = 1;
nodes = (
"462 136 OFFCURVE",
"442 130 OFFCURVE",
"418 121 CURVE",
"382 110 OFFCURVE",
"335 94 OFFCURVE",
"259 94 CURVE SMOOTH",
"174 94 OFFCURVE",
"165 138 OFFCURVE",
"165 165 CURVE SMOOTH",
"165 197 OFFCURVE",
"166 237 OFFCURVE",
"168 278 CURVE",
"183 277 OFFCURVE",
"200 276 OFFCURVE",
"215 276 CURVE SMOOTH",
"281 276 OFFCURVE",
"355 282 OFFCURVE",
"402 291 CURVE SMOOTH",
"442 299 OFFCURVE",
"454 315 OFFCURVE",
"454 343 CURVE SMOOTH",
"454 361 OFFCURVE",
"439 373 OFFCURVE",
"409 373 CURVE SMOOTH",
"382 373 OFFCURVE",
"350 371 OFFCURVE",
"318 368 CURVE SMOOTH",
"271 364 OFFCURVE",
"221 358 OFFCURVE",
"172 364 CURVE",
"172 402 OFFCURVE",
"177 450 OFFCURVE",
"186 516 CURVE",
"189 532 OFFCURVE",
"204 537 OFFCURVE",
"240 540 CURVE",
"256 542 OFFCURVE",
"274 543 OFFCURVE",
"289 543 CURVE SMOOTH",
"347 543 OFFCURVE",
"405 535 OFFCURVE",
"465 535 CURVE SMOOTH",
"505 535 OFFCURVE",
"519 573 OFFCURVE",
"519 593 CURVE SMOOTH",
"519 620 OFFCURVE",
"493 626 OFFCURVE",
"460 632 CURVE",
"436 635 OFFCURVE",
"405 635 OFFCURVE",
"382 635 CURVE SMOOTH",
"359 635 OFFCURVE",
"328 634 OFFCURVE",
"295 634 CURVE SMOOTH",
"260 633 OFFCURVE",
"223 632 OFFCURVE",
"194 632 CURVE SMOOTH",
"153 632 OFFCURVE",
"98 611 OFFCURVE",
"88 541 CURVE SMOOTH",
"67 390 OFFCURVE",
"61 310 OFFCURVE",
"61 213 CURVE SMOOTH",
"61 112 OFFCURVE",
"61 -1 OFFCURVE",
"252 -1 CURVE SMOOTH",
"351 -1 OFFCURVE",
"436 18 OFFCURVE",
"489 43 CURVE SMOOTH",
"511 54 OFFCURVE",
"520 60 OFFCURVE",
"520 90 CURVE SMOOTH",
"520 109 OFFCURVE",
"510 136 OFFCURVE",
"482 136 CURVE SMOOTH"
);
},
{
closed = 1;
nodes = (
"323 864 OFFCURVE",
"304 854 OFFCURVE",
"288 821 CURVE SMOOTH",
"270 782 OFFCURVE",
"256 776 OFFCURVE",
"243 763 CURVE",
"228 751 OFFCURVE",
"222 746 OFFCURVE",
"222 737 CURVE SMOOTH",
"222 726 OFFCURVE",
"228 717 OFFCURVE",
"243 717 CURVE SMOOTH",
"255 717 OFFCURVE",
"295 724 OFFCURVE",
"317 738 CURVE",
"341 752 OFFCURVE",
"396 790 OFFCURVE",
"396 832 CURVE SMOOTH",
"396 851 OFFCURVE",
"378 864 OFFCURVE",
"350 864 CURVE SMOOTH"
);
}
);
width = 552;
}
);
unicode = 00C9;
},
{
glyphname = Ebreve;
layers = (
{
layerId = "88A9C6FE-0426-4B07-A0DF-A933171F58B2";
name = Regular;
paths = (
{
closed = 1;
nodes = (
"510 136 OFFCURVE",
"520 109 OFFCURVE",
"520 90 CURVE SMOOTH",
"520 60 OFFCURVE",
"511 54 OFFCURVE",
"489 43 CURVE SMOOTH",
"436 18 OFFCURVE",
"351 -1 OFFCURVE",
"252 -1 CURVE SMOOTH",
"61 -1 OFFCURVE",
"61 112 OFFCURVE",
"61 213 CURVE SMOOTH",
"61 310 OFFCURVE",
"67 390 OFFCURVE",
"88 541 CURVE SMOOTH",
"98 611 OFFCURVE",
"153 632 OFFCURVE",
"194 632 CURVE SMOOTH",
"223 632 OFFCURVE",
"260 633 OFFCURVE",
"295 634 CURVE SMOOTH",
"328 634 OFFCURVE",
"359 635 OFFCURVE",
"382 635 CURVE SMOOTH",
"405 635 OFFCURVE",
"436 635 OFFCURVE",
"460 632 CURVE",
"493 626 OFFCURVE",
"519 620 OFFCURVE",
"519 593 CURVE SMOOTH",
"519 573 OFFCURVE",
"505 535 OFFCURVE",
"465 535 CURVE SMOOTH",
"405 535 OFFCURVE",
"347 543 OFFCURVE",
"289 543 CURVE SMOOTH",
"274 543 OFFCURVE",
"256 542 OFFCURVE",
"240 540 CURVE",
"204 537 OFFCURVE",
"189 532 OFFCURVE",
"186 516 CURVE",
"177 450 OFFCURVE",
"172 402 OFFCURVE",
"172 364 CURVE",
"221 358 OFFCURVE",
"271 364 OFFCURVE",
"318 368 CURVE SMOOTH",
"350 371 OFFCURVE",
"382 373 OFFCURVE",
"409 373 CURVE SMOOTH",
"439 373 OFFCURVE",
"454 361 OFFCURVE",
"454 343 CURVE SMOOTH",
"454 315 OFFCURVE",
"442 299 OFFCURVE",
"402 291 CURVE SMOOTH",
"355 282 OFFCURVE",
"281 276 OFFCURVE",
"215 276 CURVE SMOOTH",
"200 276 OFFCURVE",
"183 277 OFFCURVE",
"168 278 CURVE",
"166 237 OFFCURVE",
"165 197 OFFCURVE",
"165 165 CURVE SMOOTH",
"165 138 OFFCURVE",
"174 94 OFFCURVE",
"259 94 CURVE SMOOTH",
"335 94 OFFCURVE",
"382 110 OFFCURVE",
"418 121 CURVE",
"442 130 OFFCURVE",
"462 136 OFFCURVE",
"482 136 CURVE SMOOTH"
);
},
{
closed = 1;
nodes = (
"211 747 OFFCURVE",
"254 714 OFFCURVE",
"315 714 CURVE SMOOTH",
"403 714 OFFCURVE",
"433 770 OFFCURVE",
"447 800 CURVE SMOOTH",
"451 808 OFFCURVE",
"453 818 OFFCURVE",
"453 823 CURVE SMOOTH",
"453 836 OFFCURVE",
"433 845 OFFCURVE",
"424 845 CURVE SMOOTH",
"411 845 OFFCURVE",
"402 841 OFFCURVE",
"390 826 CURVE",
"369 802 OFFCURVE",
"347 787 OFFCURVE",
"313 787 CURVE SMOOTH",
"274 787 OFFCURVE",
"253 809 OFFCURVE",
"240 823 CURVE",
"229 833 OFFCURVE",
"219 841 OFFCURVE",
"208 841 CURVE SMOOTH",
"191 841 OFFCURVE",
"174 830 OFFCURVE",
"174 822 CURVE SMOOTH",
"174 814 OFFCURVE",
"179 801 OFFCURVE",
"182 796 CURVE SMOOTH"
);
}
);
width = 552;
}
);
unicode = 0114;
},
{
glyphname = Ecaron;
layers = (
{
layerId = "88A9C6FE-0426-4B07-A0DF-A933171F58B2";
name = Regular;
paths = (
{
closed = 1;
nodes = (
"462 136 OFFCURVE",
"442 130 OFFCURVE",
"418 121 CURVE",
"382 110 OFFCURVE",
"335 94 OFFCURVE",
"259 94 CURVE SMOOTH",
"174 94 OFFCURVE",
"165 138 OFFCURVE",
"165 165 CURVE SMOOTH",
"165 197 OFFCURVE",
"166 237 OFFCURVE",
"168 278 CURVE",
"183 277 OFFCURVE",
"200 276 OFFCURVE",
"215 276 CURVE SMOOTH",
"281 276 OFFCURVE",
"355 282 OFFCURVE",
"402 291 CURVE SMOOTH",
"442 299 OFFCURVE",
"454 315 OFFCURVE",
"454 343 CURVE SMOOTH",
"454 361 OFFCURVE",
"439 373 OFFCURVE",
"409 373 CURVE SMOOTH",
"382 373 OFFCURVE",
"350 371 OFFCURVE",
"318 368 CURVE SMOOTH",
"271 364 OFFCURVE",
"221 358 OFFCURVE",
"172 364 CURVE",
"172 402 OFFCURVE",
"177 450 OFFCURVE",
"186 516 CURVE",
"189 532 OFFCURVE",
"204 537 OFFCURVE",
"240 540 CURVE",
"256 542 OFFCURVE",
"274 543 OFFCURVE",
"289 543 CURVE SMOOTH",
"347 543 OFFCURVE",
"405 535 OFFCURVE",
"465 535 CURVE SMOOTH",
"505 535 OFFCURVE",
"519 573 OFFCURVE",
"519 593 CURVE SMOOTH",
"519 620 OFFCURVE",
"493 626 OFFCURVE",
"460 632 CURVE",
"436 635 OFFCURVE",
"405 635 OFFCURVE",
"382 635 CURVE SMOOTH",
"359 635 OFFCURVE",
"328 634 OFFCURVE",
"295 634 CURVE SMOOTH",
"260 633 OFFCURVE",
"223 632 OFFCURVE",
"194 632 CURVE SMOOTH",
"153 632 OFFCURVE",
"98 611 OFFCURVE",
"88 541 CURVE SMOOTH",
"67 390 OFFCURVE",
"61 310 OFFCURVE",
"61 213 CURVE SMOOTH",
"61 112 OFFCURVE",
"61 -1 OFFCURVE",
"252 -1 CURVE SMOOTH",
"351 -1 OFFCURVE",
"436 18 OFFCURVE",
"489 43 CURVE SMOOTH",
"511 54 OFFCURVE",
"520 60 OFFCURVE",
"520 90 CURVE SMOOTH",
"520 109 OFFCURVE",
"510 136 OFFCURVE",
"482 136 CURVE SMOOTH"
);
},
{
closed = 1;
nodes = (
"341 713 OFFCURVE",
"359 724 OFFCURVE",
"366 733 CURVE SMOOTH",
"373 742 OFFCURVE",
"390 762 OFFCURVE",
"418 789 CURVE SMOOTH",
"435 805 OFFCURVE",
"458 829 OFFCURVE",
"458 840 CURVE SMOOTH",
"458 850 OFFCURVE",
"431 867 OFFCURVE",
"408 867 CURVE SMOOTH",
"380 867 OFFCURVE",
"356 822 OFFCURVE",
"311 784 CURVE",
"273 818 OFFCURVE",
"254 867 OFFCURVE",
"204 867 CURVE SMOOTH",
"186 867 OFFCURVE",
"165 850 OFFCURVE",
"165 840 CURVE SMOOTH",
"165 832 OFFCURVE",
"172 825 OFFCURVE",
"187 808 CURVE SMOOTH",
"209 784 OFFCURVE",
"238 753 OFFCURVE",
"251 741 CURVE",
"268 724 OFFCURVE",
"281 713 OFFCURVE",
"313 713 CURVE SMOOTH"
);
}
);
width = 552;
}
);
unicode = 011A;
},
{
glyphname = Ecircumflex;
layers = (
{
layerId = "88A9C6FE-0426-4B07-A0DF-A933171F58B2";
name = Regular;
paths = (
{
closed = 1;
nodes = (
"462 136 OFFCURVE",
"442 130 OFFCURVE",
"418 121 CURVE",
"382 110 OFFCURVE",
"335 94 OFFCURVE",
"259 94 CURVE SMOOTH",
"174 94 OFFCURVE",
"165 138 OFFCURVE",
"165 165 CURVE SMOOTH",
"165 197 OFFCURVE",
"166 237 OFFCURVE",
"168 278 CURVE",
"183 277 OFFCURVE",
"200 276 OFFCURVE",
"215 276 CURVE SMOOTH",
"281 276 OFFCURVE",
"355 282 OFFCURVE",
"402 291 CURVE SMOOTH",
"442 299 OFFCURVE",
"454 315 OFFCURVE",
"454 343 CURVE SMOOTH",
"454 361 OFFCURVE",
"439 373 OFFCURVE",
"409 373 CURVE SMOOTH",
"382 373 OFFCURVE",
"350 371 OFFCURVE",
"318 368 CURVE SMOOTH",
"271 364 OFFCURVE",
"221 358 OFFCURVE",
"172 364 CURVE",
"172 402 OFFCURVE",
"177 450 OFFCURVE",
"186 516 CURVE",
"189 532 OFFCURVE",
"204 537 OFFCURVE",
"240 540 CURVE",
"256 542 OFFCURVE",
"274 543 OFFCURVE",
"289 543 CURVE SMOOTH",
"347 543 OFFCURVE",
"405 535 OFFCURVE",
"465 535 CURVE SMOOTH",
"505 535 OFFCURVE",
"519 573 OFFCURVE",
"519 593 CURVE SMOOTH",
"519 620 OFFCURVE",
"493 626 OFFCURVE",
"460 632 CURVE",
"436 635 OFFCURVE",
"405 635 OFFCURVE",
"382 635 CURVE SMOOTH",
"359 635 OFFCURVE",
"328 634 OFFCURVE",
"295 634 CURVE SMOOTH",
"260 633 OFFCURVE",
"223 632 OFFCURVE",
"194 632 CURVE SMOOTH",
"153 632 OFFCURVE",
"98 611 OFFCURVE",
"88 541 CURVE SMOOTH",
"67 390 OFFCURVE",
"61 310 OFFCURVE",
"61 213 CURVE SMOOTH",
"61 112 OFFCURVE",
"61 -1 OFFCURVE",
"252 -1 CURVE SMOOTH",
"351 -1 OFFCURVE",
"436 18 OFFCURVE",
"489 43 CURVE SMOOTH",
"511 54 OFFCURVE",
"520 60 OFFCURVE",
"520 90 CURVE SMOOTH",
"520 109 OFFCURVE",
"510 136 OFFCURVE",
"482 136 CURVE SMOOTH"
);
},
{
closed = 1;
nodes = (
"275 860 OFFCURVE",
"262 843 OFFCURVE",
"255 834 CURVE SMOOTH",
"248 825 OFFCURVE",
"235 808 OFFCURVE",
"206 784 CURVE SMOOTH",
"188 769 OFFCURVE",
"166 744 OFFCURVE",
"166 733 CURVE SMOOTH",
"166 723 OFFCURVE",
"172 706 OFFCURVE",
"196 706 CURVE SMOOTH",
"237 706 OFFCURVE",
"290 757 OFFCURVE",
"313 790 CURVE",
"341 751 OFFCURVE",
"379 706 OFFCURVE",
"429 706 CURVE SMOOTH",
"447 706 OFFCURVE",
"459 723 OFFCURVE",
"459 733 CURVE SMOOTH",
"459 741 OFFCURVE",
"456 751 OFFCURVE",
"437 765 CURVE SMOOTH",
"414 781 OFFCURVE",
"384 810 OFFCURVE",
"370 830 CURVE SMOOTH",
"357 850 OFFCURVE",
"343 860 OFFCURVE",
"311 860 CURVE SMOOTH"
);
}
);
width = 552;
}
);
unicode = 00CA;
},
{
glyphname = Ecircumflexacute;
layers = (
{
layerId = "88A9C6FE-0426-4B07-A0DF-A933171F58B2";
name = Regular;
paths = (
{
closed = 1;
nodes = (
"462 136 OFFCURVE",
"442 130 OFFCURVE",
"418 121 CURVE",
"382 110 OFFCURVE",
"335 94 OFFCURVE",
"259 94 CURVE SMOOTH",
"174 94 OFFCURVE",
"165 138 OFFCURVE",
"165 165 CURVE SMOOTH",
"165 197 OFFCURVE",
"166 237 OFFCURVE",
"168 278 CURVE",
"183 277 OFFCURVE",
"200 276 OFFCURVE",
"215 276 CURVE SMOOTH",
"281 276 OFFCURVE",
"355 282 OFFCURVE",
"402 291 CURVE SMOOTH",
"442 299 OFFCURVE",
"454 315 OFFCURVE",
"454 343 CURVE SMOOTH",
"454 361 OFFCURVE",
"439 373 OFFCURVE",
"409 373 CURVE SMOOTH",
"382 373 OFFCURVE",
"350 371 OFFCURVE",
"318 368 CURVE SMOOTH",
"271 364 OFFCURVE",
"221 358 OFFCURVE",
"172 364 CURVE",
"172 402 OFFCURVE",
"177 450 OFFCURVE",
"186 516 CURVE",
"189 532 OFFCURVE",
"204 537 OFFCURVE",
"240 540 CURVE",
"256 542 OFFCURVE",
"274 543 OFFCURVE",
"289 543 CURVE SMOOTH",
"347 543 OFFCURVE",
"405 535 OFFCURVE",
"465 535 CURVE SMOOTH",
"505 535 OFFCURVE",
"519 573 OFFCURVE",
"519 593 CURVE SMOOTH",
"519 620 OFFCURVE",
"493 626 OFFCURVE",
"460 632 CURVE",
"436 635 OFFCURVE",
"405 635 OFFCURVE",
"382 635 CURVE SMOOTH",
"359 635 OFFCURVE",
"328 634 OFFCURVE",
"295 634 CURVE SMOOTH",
"260 633 OFFCURVE",
"223 632 OFFCURVE",
"194 632 CURVE SMOOTH",
"153 632 OFFCURVE",
"98 611 OFFCURVE",
"88 541 CURVE SMOOTH",
"67 390 OFFCURVE",
"61 310 OFFCURVE",
"61 213 CURVE SMOOTH",
"61 112 OFFCURVE",
"61 -1 OFFCURVE",
"252 -1 CURVE SMOOTH",
"351 -1 OFFCURVE",
"436 18 OFFCURVE",
"489 43 CURVE SMOOTH",
"511 54 OFFCURVE",
"520 60 OFFCURVE",
"520 90 CURVE SMOOTH",
"520 109 OFFCURVE",
"510 136 OFFCURVE",
"482 136 CURVE SMOOTH"
);
},
{
closed = 1;
nodes = (
"269 830 OFFCURVE",
"256 814 OFFCURVE",
"249 806 CURVE",
"243 798 OFFCURVE",
"230 782 OFFCURVE",
"201 758 CURVE SMOOTH",
"184 744 OFFCURVE",
"162 722 OFFCURVE",
"162 711 CURVE SMOOTH",
"162 702 OFFCURVE",
"168 686 OFFCURVE",
"190 686 CURVE SMOOTH",
"232 686 OFFCURVE",
"284 734 OFFCURVE",
"306 765 CURVE",
"335 729 OFFCURVE",
"372 686 OFFCURVE",
"422 686 CURVE SMOOTH",
"439 686 OFFCURVE",
"451 702 OFFCURVE",
"451 711 CURVE SMOOTH",
"451 719 OFFCURVE",
"448 729 OFFCURVE",
"429 742 CURVE SMOOTH",
"407 756 OFFCURVE",
"377 783 OFFCURVE",
"364 801 CURVE SMOOTH",
"351 820 OFFCURVE",
"337 830 OFFCURVE",
"305 830 CURVE SMOOTH"
);
},
{
closed = 1;
nodes = (
"481 899 OFFCURVE",
"468 891 OFFCURVE",
"453 859 CURVE SMOOTH",
"447 846 OFFCURVE",
"438 832 OFFCURVE",
"425 820 CURVE SMOOTH",
"412 808 OFFCURVE",
"406 804 OFFCURVE",
"406 797 CURVE SMOOTH",
"406 786 OFFCURVE",
"413 777 OFFCURVE",
"426 777 CURVE SMOOTH",
"468 777 OFFCURVE",
"545 833 OFFCURVE",
"545 868 CURVE SMOOTH",
"545 887 OFFCURVE",
"533 899 OFFCURVE",
"506 899 CURVE SMOOTH"
);
}
);
width = 552;
}
);
unicode = 1EBE;
},
{
glyphname = Ecircumflexdotbelow;
layers = (
{
layerId = "88A9C6FE-0426-4B07-A0DF-A933171F58B2";
name = Regular;
paths = (
{
closed = 1;
nodes = (
"462 136 OFFCURVE",
"442 130 OFFCURVE",
"418 121 CURVE",
"382 110 OFFCURVE",
"335 94 OFFCURVE",
"259 94 CURVE SMOOTH",
"174 94 OFFCURVE",
"165 138 OFFCURVE",
"165 165 CURVE SMOOTH",
"165 197 OFFCURVE",
"166 237 OFFCURVE",
"168 278 CURVE",
"183 277 OFFCURVE",
"200 276 OFFCURVE",
"215 276 CURVE SMOOTH",
"281 276 OFFCURVE",
"355 282 OFFCURVE",
"402 291 CURVE SMOOTH",
"442 299 OFFCURVE",
"454 315 OFFCURVE",
"454 343 CURVE SMOOTH",
"454 361 OFFCURVE",
"439 373 OFFCURVE",
"409 373 CURVE SMOOTH",
"382 373 OFFCURVE",
"350 371 OFFCURVE",
"318 368 CURVE SMOOTH",
"271 364 OFFCURVE",
"221 358 OFFCURVE",
"172 364 CURVE",
"172 402 OFFCURVE",
"177 450 OFFCURVE",
"186 516 CURVE",
"189 532 OFFCURVE",
"204 537 OFFCURVE",
"240 540 CURVE",
"256 542 OFFCURVE",
"274 543 OFFCURVE",
"289 543 CURVE SMOOTH",
"347 543 OFFCURVE",
"405 535 OFFCURVE",
"465 535 CURVE SMOOTH",
"505 535 OFFCURVE",
"519 573 OFFCURVE",
"519 593 CURVE SMOOTH",
"519 620 OFFCURVE",
"493 626 OFFCURVE",
"460 632 CURVE",
"436 635 OFFCURVE",
"405 635 OFFCURVE",
"382 635 CURVE SMOOTH",
"359 635 OFFCURVE",
"328 634 OFFCURVE",
"295 634 CURVE SMOOTH",
"260 633 OFFCURVE",
"223 632 OFFCURVE",
"194 632 CURVE SMOOTH",
"153 632 OFFCURVE",
"98 611 OFFCURVE",
"88 541 CURVE SMOOTH",
"67 390 OFFCURVE",
"61 310 OFFCURVE",
"61 213 CURVE SMOOTH",
"61 112 OFFCURVE",
"61 -1 OFFCURVE",
"252 -1 CURVE SMOOTH",
"351 -1 OFFCURVE",
"436 18 OFFCURVE",
"489 43 CURVE SMOOTH",
"511 54 OFFCURVE",
"520 60 OFFCURVE",
"520 90 CURVE SMOOTH",
"520 109 OFFCURVE",
"510 136 OFFCURVE",
"482 136 CURVE SMOOTH"
);
},
{
closed = 1;
nodes = (
"350 -77 OFFCURVE",
"337 -59 OFFCURVE",
"302 -59 CURVE SMOOTH",
"272 -59 OFFCURVE",
"243 -75 OFFCURVE",
"243 -116 CURVE SMOOTH",
"243 -142 OFFCURVE",
"265 -158 OFFCURVE",
"292 -158 CURVE SMOOTH",
"316 -158 OFFCURVE",
"350 -141 OFFCURVE",
"350 -106 CURVE SMOOTH"
);
},
{
closed = 1;
nodes = (
"267 838 OFFCURVE",
"254 821 OFFCURVE",
"247 812 CURVE SMOOTH",
"240 803 OFFCURVE",
"227 786 OFFCURVE",
"198 762 CURVE SMOOTH",
"180 747 OFFCURVE",
"158 722 OFFCURVE",
"158 711 CURVE SMOOTH",
"158 701 OFFCURVE",
"164 684 OFFCURVE",
"188 684 CURVE SMOOTH",
"229 684 OFFCURVE",
"282 735 OFFCURVE",
"305 768 CURVE",
"333 729 OFFCURVE",
"371 684 OFFCURVE",
"421 684 CURVE SMOOTH",
"439 684 OFFCURVE",
"451 701 OFFCURVE",
"451 711 CURVE SMOOTH",
"451 719 OFFCURVE",
"448 729 OFFCURVE",
"429 743 CURVE SMOOTH",
"406 759 OFFCURVE",
"376 788 OFFCURVE",
"362 808 CURVE SMOOTH",
"349 828 OFFCURVE",
"335 838 OFFCURVE",
"303 838 CURVE SMOOTH"
);
}
);
width = 552;
}
);
unicode = 1EC6;
},
{
glyphname = Ecircumflexgrave;
layers = (
{
layerId = "88A9C6FE-0426-4B07-A0DF-A933171F58B2";
name = Regular;
paths = (
{
closed = 1;
nodes = (
"462 136 OFFCURVE",
"442 130 OFFCURVE",
"418 121 CURVE",
"382 110 OFFCURVE",
"335 94 OFFCURVE",
"259 94 CURVE SMOOTH",
"174 94 OFFCURVE",
"165 138 OFFCURVE",
"165 165 CURVE SMOOTH",
"165 197 OFFCURVE",
"166 237 OFFCURVE",
"168 278 CURVE",
"183 277 OFFCURVE",
"200 276 OFFCURVE",
"215 276 CURVE SMOOTH",
"281 276 OFFCURVE",
"355 282 OFFCURVE",
"402 291 CURVE SMOOTH",
"442 299 OFFCURVE",
"454 315 OFFCURVE",
"454 343 CURVE SMOOTH",
"454 361 OFFCURVE",
"439 373 OFFCURVE",
"409 373 CURVE SMOOTH",
"382 373 OFFCURVE",
"350 371 OFFCURVE",
"318 368 CURVE SMOOTH",
"271 364 OFFCURVE",
"221 358 OFFCURVE",
"172 364 CURVE",
"172 402 OFFCURVE",
"177 450 OFFCURVE",
"186 516 CURVE",
"189 532 OFFCURVE",
"204 537 OFFCURVE",
"240 540 CURVE",
"256 542 OFFCURVE",
"274 543 OFFCURVE",
"289 543 CURVE SMOOTH",
"347 543 OFFCURVE",
"405 535 OFFCURVE",
"465 535 CURVE SMOOTH",
"505 535 OFFCURVE",
"519 573 OFFCURVE",
"519 593 CURVE SMOOTH",
"519 620 OFFCURVE",
"493 626 OFFCURVE",
"460 632 CURVE",
"436 635 OFFCURVE",
"405 635 OFFCURVE",
"382 635 CURVE SMOOTH",
"359 635 OFFCURVE",
"328 634 OFFCURVE",
"295 634 CURVE SMOOTH",
"260 633 OFFCURVE",
"223 632 OFFCURVE",
"194 632 CURVE SMOOTH",
"153 632 OFFCURVE",
"98 611 OFFCURVE",
"88 541 CURVE SMOOTH",
"67 390 OFFCURVE",
"61 310 OFFCURVE",
"61 213 CURVE SMOOTH",
"61 112 OFFCURVE",
"61 -1 OFFCURVE",
"252 -1 CURVE SMOOTH",
"351 -1 OFFCURVE",
"436 18 OFFCURVE",
"489 43 CURVE SMOOTH",
"511 54 OFFCURVE",
"520 60 OFFCURVE",
"520 90 CURVE SMOOTH",
"520 109 OFFCURVE",
"510 136 OFFCURVE",
"482 136 CURVE SMOOTH"
);
},
{
closed = 1;
nodes = (
"283 830 OFFCURVE",
"270 816 OFFCURVE",
"264 806 CURVE",
"258 797 OFFCURVE",
"245 782 OFFCURVE",
"216 758 CURVE SMOOTH",
"199 744 OFFCURVE",
"176 722 OFFCURVE",
"176 711 CURVE SMOOTH",
"176 702 OFFCURVE",
"183 686 OFFCURVE",
"205 686 CURVE SMOOTH",
"246 686 OFFCURVE",
"299 734 OFFCURVE",
"321 765 CURVE",
"350 729 OFFCURVE",
"387 686 OFFCURVE",
"436 686 CURVE SMOOTH",
"453 686 OFFCURVE",
"466 702 OFFCURVE",
"466 711 CURVE SMOOTH",
"466 719 OFFCURVE",
"462 729 OFFCURVE",
"444 742 CURVE",
"422 756 OFFCURVE",
"391 783 OFFCURVE",
"379 801 CURVE",
"365 820 OFFCURVE",
"352 830 OFFCURVE",
"319 830 CURVE SMOOTH"
);
},
{
closed = 1;
nodes = (
"93 899 OFFCURVE",
"81 887 OFFCURVE",
"81 868 CURVE SMOOTH",
"81 833 OFFCURVE",
"158 777 OFFCURVE",
"200 777 CURVE SMOOTH",
"213 777 OFFCURVE",
"219 786 OFFCURVE",
"219 797 CURVE SMOOTH",
"219 804 OFFCURVE",
"214 808 OFFCURVE",
"201 820 CURVE SMOOTH",
"188 832 OFFCURVE",
"179 846 OFFCURVE",
"173 859 CURVE SMOOTH",
"158 891 OFFCURVE",
"145 899 OFFCURVE",
"120 899 CURVE SMOOTH"
);
}
);
width = 552;
}
);
unicode = 1EC0;
},
{
glyphname = Ecircumflexhookabove;
layers = (
{
layerId = "88A9C6FE-0426-4B07-A0DF-A933171F58B2";
name = Regular;
paths = (
{
closed = 1;
nodes = (
"462 136 OFFCURVE",
"442 130 OFFCURVE",
"418 121 CURVE",
"382 110 OFFCURVE",
"335 94 OFFCURVE",
"259 94 CURVE SMOOTH",
"174 94 OFFCURVE",
"165 138 OFFCURVE",
"165 165 CURVE SMOOTH",
"165 197 OFFCURVE",
"166 237 OFFCURVE",
"168 278 CURVE",
"183 277 OFFCURVE",
"200 276 OFFCURVE",
"215 276 CURVE SMOOTH",
"281 276 OFFCURVE",
"355 282 OFFCURVE",
"402 291 CURVE SMOOTH",
"442 299 OFFCURVE",
"454 315 OFFCURVE",
"454 343 CURVE SMOOTH",
"454 361 OFFCURVE",
"439 373 OFFCURVE",
"409 373 CURVE SMOOTH",
"382 373 OFFCURVE",
"350 371 OFFCURVE",
"318 368 CURVE SMOOTH",
"271 364 OFFCURVE",
"221 358 OFFCURVE",
"172 364 CURVE",
"172 402 OFFCURVE",
"177 450 OFFCURVE",
"186 516 CURVE",
"189 532 OFFCURVE",
"204 537 OFFCURVE",
"240 540 CURVE",
"256 542 OFFCURVE",
"274 543 OFFCURVE",
"289 543 CURVE SMOOTH",
"347 543 OFFCURVE",
"405 535 OFFCURVE",
"465 535 CURVE SMOOTH",
"505 535 OFFCURVE",
"519 573 OFFCURVE",
"519 593 CURVE SMOOTH",
"519 620 OFFCURVE",
"493 626 OFFCURVE",
"460 632 CURVE",
"436 635 OFFCURVE",
"405 635 OFFCURVE",
"382 635 CURVE SMOOTH",
"359 635 OFFCURVE",
"328 634 OFFCURVE",
"295 634 CURVE SMOOTH",
"260 633 OFFCURVE",
"223 632 OFFCURVE",
"194 632 CURVE SMOOTH",
"153 632 OFFCURVE",
"98 611 OFFCURVE",
"88 541 CURVE SMOOTH",
"67 390 OFFCURVE",
"61 310 OFFCURVE",
"61 213 CURVE SMOOTH",
"61 112 OFFCURVE",
"61 -1 OFFCURVE",
"252 -1 CURVE SMOOTH",
"351 -1 OFFCURVE",
"436 18 OFFCURVE",
"489 43 CURVE SMOOTH",
"511 54 OFFCURVE",
"520 60 OFFCURVE",
"520 90 CURVE SMOOTH",
"520 109 OFFCURVE",
"510 136 OFFCURVE",
"482 136 CURVE SMOOTH"
);
},
{
closed = 1;
nodes = (
"269 830 OFFCURVE",
"255 816 OFFCURVE",
"249 806 CURVE",
"243 797 OFFCURVE",
"230 782 OFFCURVE",
"201 758 CURVE SMOOTH",
"184 744 OFFCURVE",
"161 722 OFFCURVE",
"161 711 CURVE SMOOTH",
"161 702 OFFCURVE",
"168 686 OFFCURVE",
"190 686 CURVE SMOOTH",
"232 686 OFFCURVE",
"284 734 OFFCURVE",
"306 765 CURVE",
"335 729 OFFCURVE",
"372 686 OFFCURVE",
"422 686 CURVE SMOOTH",
"439 686 OFFCURVE",
"451 702 OFFCURVE",
"451 711 CURVE SMOOTH",
"451 719 OFFCURVE",
"448 729 OFFCURVE",
"429 742 CURVE SMOOTH",
"407 756 OFFCURVE",
"377 783 OFFCURVE",
"364 801 CURVE SMOOTH",
"350 820 OFFCURVE",
"337 830 OFFCURVE",
"305 830 CURVE SMOOTH"
);
},
{
closed = 1;
nodes = (
"402 887 OFFCURVE",
"426 900 OFFCURVE",
"442 900 CURVE SMOOTH",
"458 900 OFFCURVE",
"473 898 OFFCURVE",
"473 881 CURVE SMOOTH",
"473 855 OFFCURVE",
"441 851 OFFCURVE",
"426 839 CURVE",
"421 836 OFFCURVE",
"413 828 OFFCURVE",
"413 814 CURVE SMOOTH",
"413 808 OFFCURVE",
"418 793 OFFCURVE",
"418 793 CURVE",
"424 775 OFFCURVE",
"437 772 OFFCURVE",
"458 772 CURVE SMOOTH",
"472 772 OFFCURVE",
"483 781 OFFCURVE",
"483 790 CURVE SMOOTH",
"483 795 OFFCURVE",
"463 811 OFFCURVE",
"484 820 CURVE",
"519 833 OFFCURVE",
"536 845 OFFCURVE",
"536 888 CURVE SMOOTH",
"536 906 OFFCURVE",
"526 923 OFFCURVE",
"518 928 CURVE",
"500 941 OFFCURVE",
"480 952 OFFCURVE",
"460 952 CURVE SMOOTH",
"438 952 OFFCURVE",
"374 943 OFFCURVE",
"374 911 CURVE SMOOTH",
"374 898 OFFCURVE",
"383 887 OFFCURVE",
"395 887 CURVE SMOOTH"
);
}
);
width = 568;
}
);
unicode = 1EC2;
},
{
glyphname = Ecircumflextilde;
layers = (
{
layerId = "88A9C6FE-0426-4B07-A0DF-A933171F58B2";
name = Regular;
paths = (
{
closed = 1;
nodes = (
"462 136 OFFCURVE",
"442 130 OFFCURVE",
"418 121 CURVE",
"382 110 OFFCURVE",
"335 94 OFFCURVE",
"259 94 CURVE SMOOTH",
"174 94 OFFCURVE",
"165 138 OFFCURVE",
"165 165 CURVE SMOOTH",
"165 197 OFFCURVE",
"166 237 OFFCURVE",
"168 278 CURVE",
"183 277 OFFCURVE",
"200 276 OFFCURVE",
"215 276 CURVE SMOOTH",
"281 276 OFFCURVE",
"355 282 OFFCURVE",
"402 291 CURVE SMOOTH",
"442 299 OFFCURVE",
"454 315 OFFCURVE",
"454 343 CURVE SMOOTH",
"454 361 OFFCURVE",
"439 373 OFFCURVE",
"409 373 CURVE SMOOTH",
"382 373 OFFCURVE",
"350 371 OFFCURVE",
"318 368 CURVE SMOOTH",
"271 364 OFFCURVE",
"221 358 OFFCURVE",
"172 364 CURVE",
"172 402 OFFCURVE",
"177 450 OFFCURVE",
"186 516 CURVE",
"189 532 OFFCURVE",
"204 537 OFFCURVE",
"240 540 CURVE",
"256 542 OFFCURVE",
"274 543 OFFCURVE",
"289 543 CURVE SMOOTH",
"347 543 OFFCURVE",
"405 535 OFFCURVE",
"465 535 CURVE SMOOTH",
"505 535 OFFCURVE",
"519 573 OFFCURVE",
"519 593 CURVE SMOOTH",
"519 620 OFFCURVE",
"493 626 OFFCURVE",
"460 632 CURVE",
"436 635 OFFCURVE",
"405 635 OFFCURVE",
"382 635 CURVE SMOOTH",
"359 635 OFFCURVE",
"328 634 OFFCURVE",
"295 634 CURVE SMOOTH",
"260 633 OFFCURVE",
"223 632 OFFCURVE",
"194 632 CURVE SMOOTH",
"153 632 OFFCURVE",
"98 611 OFFCURVE",
"88 541 CURVE SMOOTH",
"67 390 OFFCURVE",
"61 310 OFFCURVE",
"61 213 CURVE SMOOTH",
"61 112 OFFCURVE",
"61 -1 OFFCURVE",
"252 -1 CURVE SMOOTH",
"351 -1 OFFCURVE",
"436 18 OFFCURVE",
"489 43 CURVE SMOOTH",
"511 54 OFFCURVE",
"520 60 OFFCURVE",
"520 90 CURVE SMOOTH",
"520 109 OFFCURVE",
"510 136 OFFCURVE",
"482 136 CURVE SMOOTH"
);
},
{
closed = 1;
nodes = (
"270 830 OFFCURVE",
"257 816 OFFCURVE",
"251 806 CURVE",
"245 797 OFFCURVE",
"232 782 OFFCURVE",
"203 758 CURVE SMOOTH",
"186 744 OFFCURVE",
"163 722 OFFCURVE",
"163 711 CURVE SMOOTH",
"163 702 OFFCURVE",
"170 686 OFFCURVE",
"192 686 CURVE SMOOTH",
"233 686 OFFCURVE",
"286 734 OFFCURVE",
"308 765 CURVE",
"337 729 OFFCURVE",
"374 686 OFFCURVE",
"423 686 CURVE SMOOTH",
"440 686 OFFCURVE",
"453 702 OFFCURVE",
"453 711 CURVE SMOOTH",
"453 719 OFFCURVE",
"449 729 OFFCURVE",
"431 742 CURVE",
"409 756 OFFCURVE",
"378 783 OFFCURVE",
"366 801 CURVE",
"352 820 OFFCURVE",
"339 830 OFFCURVE",
"306 830 CURVE SMOOTH"
);
},
{
closed = 1;
nodes = (
"160 852 OFFCURVE",
"180 842 OFFCURVE",
"189 842 CURVE SMOOTH",
"205 842 OFFCURVE",
"218 848 OFFCURVE",
"228 864 CURVE SMOOTH",
"239 882 OFFCURVE",
"249 885 OFFCURVE",
"263 885 CURVE SMOOTH",
"295 885 OFFCURVE",
"317 845 OFFCURVE",
"368 845 CURVE SMOOTH",
"411 845 OFFCURVE",
"457 885 OFFCURVE",
"457 924 CURVE SMOOTH",
"457 945 OFFCURVE",
"440 954 OFFCURVE",
"427 954 CURVE SMOOTH",
"412 954 OFFCURVE",
"404 946 OFFCURVE",
"397 936 CURVE",
"390 925 OFFCURVE",
"386 913 OFFCURVE",
"368 913 CURVE SMOOTH",
"359 913 OFFCURVE",
"345 918 OFFCURVE",
"328 932 CURVE",
"308 946 OFFCURVE",
"283 955 OFFCURVE",
"260 955 CURVE SMOOTH",
"215 955 OFFCURVE",
"160 920 OFFCURVE",
"160 870 CURVE SMOOTH"
);
}
);
width = 552;
}
);
unicode = 1EC4;
},
{
glyphname = Edblgrave;
layers = (
{
layerId = "88A9C6FE-0426-4B07-A0DF-A933171F58B2";
name = Regular;
paths = (
{
closed = 1;
nodes = (
"462 136 OFFCURVE",
"442 130 OFFCURVE",
"418 121 CURVE",
"382 110 OFFCURVE",
"335 94 OFFCURVE",
"259 94 CURVE SMOOTH",
"174 94 OFFCURVE",
"165 138 OFFCURVE",
"165 165 CURVE SMOOTH",
"165 197 OFFCURVE",
"166 237 OFFCURVE",
"168 278 CURVE",
"183 277 OFFCURVE",
"200 276 OFFCURVE",
"215 276 CURVE SMOOTH",
"281 276 OFFCURVE",
"355 282 OFFCURVE",
"402 291 CURVE SMOOTH",
"442 299 OFFCURVE",
"454 315 OFFCURVE",
"454 343 CURVE SMOOTH",
"454 361 OFFCURVE",
"439 373 OFFCURVE",
"409 373 CURVE SMOOTH",
"382 373 OFFCURVE",
"350 371 OFFCURVE",
"318 368 CURVE SMOOTH",
"271 364 OFFCURVE",
"221 358 OFFCURVE",
"172 364 CURVE",
"172 402 OFFCURVE",
"177 450 OFFCURVE",
"186 516 CURVE",
"189 532 OFFCURVE",
"204 537 OFFCURVE",
"240 540 CURVE",
"256 542 OFFCURVE",
"274 543 OFFCURVE",
"289 543 CURVE SMOOTH",
"347 543 OFFCURVE",
"405 535 OFFCURVE",
"465 535 CURVE SMOOTH",
"505 535 OFFCURVE",
"519 573 OFFCURVE",
"519 593 CURVE SMOOTH",
"519 620 OFFCURVE",
"493 626 OFFCURVE",
"460 632 CURVE",
"436 635 OFFCURVE",
"405 635 OFFCURVE",
"382 635 CURVE SMOOTH",
"359 635 OFFCURVE",
"328 634 OFFCURVE",
"295 634 CURVE SMOOTH",
"260 633 OFFCURVE",
"223 632 OFFCURVE",
"194 632 CURVE SMOOTH",
"153 632 OFFCURVE",
"98 611 OFFCURVE",
"88 541 CURVE SMOOTH",
"67 390 OFFCURVE",
"61 310 OFFCURVE",
"61 213 CURVE SMOOTH",
"61 112 OFFCURVE",
"61 -1 OFFCURVE",
"252 -1 CURVE SMOOTH",
"351 -1 OFFCURVE",
"436 18 OFFCURVE",
"489 43 CURVE SMOOTH",
"511 54 OFFCURVE",
"520 60 OFFCURVE",
"520 90 CURVE SMOOTH",
"520 109 OFFCURVE",
"510 136 OFFCURVE",
"482 136 CURVE SMOOTH"
);
},
{
closed = 1;
nodes = (
"292 864 OFFCURVE",
"276 860 OFFCURVE",
"276 841 CURVE SMOOTH",
"276 820 OFFCURVE",
"325 771 OFFCURVE",
"350 746 CURVE SMOOTH",
"371 725 OFFCURVE",
"381 721 OFFCURVE",
"393 721 CURVE SMOOTH",
"407 721 OFFCURVE",
"420 725 OFFCURVE",
"420 735 CURVE SMOOTH",
"420 744 OFFCURVE",
"418 750 OFFCURVE",
"410 766 CURVE SMOOTH",
"400 785 OFFCURVE",
"388 798 OFFCURVE",
"371 822 CURVE SMOOTH",
"350 852 OFFCURVE",
"346 864 OFFCURVE",
"319 864 CURVE SMOOTH"
);
},
{
closed = 1;
nodes = (
"146 864 OFFCURVE",
"130 860 OFFCURVE",
"130 841 CURVE SMOOTH",
"130 820 OFFCURVE",
"178 771 OFFCURVE",
"203 746 CURVE SMOOTH",
"224 725 OFFCURVE",
"234 721 OFFCURVE",
"247 721 CURVE SMOOTH",
"260 721 OFFCURVE",
"274 725 OFFCURVE",
"274 735 CURVE SMOOTH",
"274 744 OFFCURVE",
"272 750 OFFCURVE",
"264 766 CURVE SMOOTH",
"254 785 OFFCURVE",
"241 798 OFFCURVE",
"224 822 CURVE SMOOTH",
"203 852 OFFCURVE",
"199 864 OFFCURVE",
"173 864 CURVE SMOOTH"
);
}
);
width = 552;
}
);
unicode = 0204;
},
{
glyphname = Edieresis;
layers = (
{
layerId = "88A9C6FE-0426-4B07-A0DF-A933171F58B2";
name = Regular;
paths = (
{
closed = 1;
nodes = (
"462 136 OFFCURVE",
"442 130 OFFCURVE",
"418 121 CURVE",
"382 110 OFFCURVE",
"335 94 OFFCURVE",
"259 94 CURVE SMOOTH",
"174 94 OFFCURVE",
"165 138 OFFCURVE",
"165 165 CURVE SMOOTH",
"165 197 OFFCURVE",
"166 237 OFFCURVE",
"168 278 CURVE",
"183 277 OFFCURVE",
"200 276 OFFCURVE",
"215 276 CURVE SMOOTH",
"281 276 OFFCURVE",
"355 282 OFFCURVE",
"402 291 CURVE SMOOTH",
"442 299 OFFCURVE",
"454 315 OFFCURVE",
"454 343 CURVE SMOOTH",
"454 361 OFFCURVE",
"439 373 OFFCURVE",
"409 373 CURVE SMOOTH",
"382 373 OFFCURVE",
"350 371 OFFCURVE",
"318 368 CURVE SMOOTH",
"271 364 OFFCURVE",
"221 358 OFFCURVE",
"172 364 CURVE",
"172 402 OFFCURVE",
"177 450 OFFCURVE",
"186 516 CURVE",
"189 532 OFFCURVE",
"204 537 OFFCURVE",
"240 540 CURVE",
"256 542 OFFCURVE",
"274 543 OFFCURVE",
"289 543 CURVE SMOOTH",
"347 543 OFFCURVE",
"405 535 OFFCURVE",
"465 535 CURVE SMOOTH",
"505 535 OFFCURVE",
"519 573 OFFCURVE",
"519 593 CURVE SMOOTH",
"519 620 OFFCURVE",
"493 626 OFFCURVE",
"460 632 CURVE",
"436 635 OFFCURVE",
"405 635 OFFCURVE",
"382 635 CURVE SMOOTH",
"359 635 OFFCURVE",
"328 634 OFFCURVE",
"295 634 CURVE SMOOTH",
"260 633 OFFCURVE",
"223 632 OFFCURVE",
"194 632 CURVE SMOOTH",
"153 632 OFFCURVE",
"98 611 OFFCURVE",
"88 541 CURVE SMOOTH",
"67 390 OFFCURVE",
"61 310 OFFCURVE",
"61 213 CURVE SMOOTH",
"61 112 OFFCURVE",
"61 -1 OFFCURVE",
"252 -1 CURVE SMOOTH",
"351 -1 OFFCURVE",
"436 18 OFFCURVE",
"489 43 CURVE SMOOTH",
"511 54 OFFCURVE",
"520 60 OFFCURVE",
"520 90 CURVE SMOOTH",
"520 109 OFFCURVE",
"510 136 OFFCURVE",
"482 136 CURVE SMOOTH"
);
},
{
closed = 1;
nodes = (
"176 834 OFFCURVE",
"175 796 OFFCURVE",
"175 776 CURVE SMOOTH",
"175 763 OFFCURVE",
"181 737 OFFCURVE",
"218 737 CURVE SMOOTH",
"250 737 OFFCURVE",
"276 752 OFFCURVE",
"276 778 CURVE SMOOTH",
"276 817 OFFCURVE",
"239 831 OFFCURVE",
"207 832 CURVE SMOOTH"
);
},
{
closed = 1;
nodes = (
"344 834 OFFCURVE",
"343 796 OFFCURVE",
"343 776 CURVE SMOOTH",
"343 763 OFFCURVE",
"349 737 OFFCURVE",
"386 737 CURVE SMOOTH",
"419 737 OFFCURVE",
"444 752 OFFCURVE",
"444 778 CURVE SMOOTH",
"444 817 OFFCURVE",
"407 831 OFFCURVE",
"376 832 CURVE SMOOTH"
);
}
);
width = 552;
}
);
unicode = 00CB;
},
{
glyphname = Edotaccent;
layers = (
{
layerId = "88A9C6FE-0426-4B07-A0DF-A933171F58B2";
name = Regular;
paths = (
{
closed = 1;
nodes = (
"462 136 OFFCURVE",
"442 130 OFFCURVE",
"418 121 CURVE",
"382 110 OFFCURVE",
"335 94 OFFCURVE",
"259 94 CURVE SMOOTH",
"174 94 OFFCURVE",
"165 138 OFFCURVE",
"165 165 CURVE SMOOTH",
"165 197 OFFCURVE",
"166 237 OFFCURVE",
"168 278 CURVE",
"183 277 OFFCURVE",
"200 276 OFFCURVE",
"215 276 CURVE SMOOTH",
"281 276 OFFCURVE",
"355 282 OFFCURVE",
"402 291 CURVE SMOOTH",
"442 299 OFFCURVE",
"454 315 OFFCURVE",
"454 343 CURVE SMOOTH",
"454 361 OFFCURVE",
"439 373 OFFCURVE",
"409 373 CURVE SMOOTH",
"382 373 OFFCURVE",
"350 371 OFFCURVE",
"318 368 CURVE SMOOTH",
"271 364 OFFCURVE",
"221 358 OFFCURVE",
"172 364 CURVE",
"172 402 OFFCURVE",
"177 450 OFFCURVE",
"186 516 CURVE",
"189 532 OFFCURVE",
"204 537 OFFCURVE",
"240 540 CURVE",
"256 542 OFFCURVE",
"274 543 OFFCURVE",
"289 543 CURVE SMOOTH",
"347 543 OFFCURVE",
"405 535 OFFCURVE",
"465 535 CURVE SMOOTH",
"505 535 OFFCURVE",
"519 573 OFFCURVE",
"519 593 CURVE SMOOTH",
"519 620 OFFCURVE",
"493 626 OFFCURVE",
"460 632 CURVE",
"436 635 OFFCURVE",
"405 635 OFFCURVE",
"382 635 CURVE SMOOTH",
"359 635 OFFCURVE",
"328 634 OFFCURVE",
"295 634 CURVE SMOOTH",
"260 633 OFFCURVE",
"223 632 OFFCURVE",
"194 632 CURVE SMOOTH",
"153 632 OFFCURVE",
"98 611 OFFCURVE",
"88 541 CURVE SMOOTH",
"67 390 OFFCURVE",
"61 310 OFFCURVE",
"61 213 CURVE SMOOTH",
"61 112 OFFCURVE",
"61 -1 OFFCURVE",
"252 -1 CURVE SMOOTH",
"351 -1 OFFCURVE",
"436 18 OFFCURVE",
"489 43 CURVE SMOOTH",
"511 54 OFFCURVE",
"520 60 OFFCURVE",
"520 90 CURVE SMOOTH",
"520 109 OFFCURVE",
"510 136 OFFCURVE",
"482 136 CURVE SMOOTH"
);
},
{
closed = 1;
nodes = (
"362 818 OFFCURVE",
"347 837 OFFCURVE",
"311 837 CURVE SMOOTH",
"280 837 OFFCURVE",
"249 820 OFFCURVE",
"249 777 CURVE SMOOTH",
"249 749 OFFCURVE",
"273 732 OFFCURVE",
"301 732 CURVE SMOOTH",
"326 732 OFFCURVE",
"362 750 OFFCURVE",
"362 787 CURVE SMOOTH"
);
}
);
width = 552;
}
);
unicode = 0116;
},
{
glyphname = Edotbelow;
layers = (
{
layerId = "88A9C6FE-0426-4B07-A0DF-A933171F58B2";
name = Regular;
paths = (
{
closed = 1;
nodes = (
"462 136 OFFCURVE",
"442 130 OFFCURVE",
"418 121 CURVE",
"382 110 OFFCURVE",
"335 94 OFFCURVE",
"259 94 CURVE SMOOTH",
"174 94 OFFCURVE",
"165 138 OFFCURVE",
"165 165 CURVE SMOOTH",
"165 197 OFFCURVE",
"166 237 OFFCURVE",
"168 278 CURVE",
"183 277 OFFCURVE",
"200 276 OFFCURVE",
"215 276 CURVE SMOOTH",
"281 276 OFFCURVE",
"355 282 OFFCURVE",
"402 291 CURVE SMOOTH",
"442 299 OFFCURVE",
"454 315 OFFCURVE",
"454 343 CURVE SMOOTH",
"454 361 OFFCURVE",
"439 373 OFFCURVE",
"409 373 CURVE SMOOTH",
"382 373 OFFCURVE",
"350 371 OFFCURVE",
"318 368 CURVE SMOOTH",
"271 364 OFFCURVE",
"221 358 OFFCURVE",
"172 364 CURVE",
"172 402 OFFCURVE",
"177 450 OFFCURVE",
"186 516 CURVE",
"189 532 OFFCURVE",
"204 537 OFFCURVE",
"240 540 CURVE",
"256 542 OFFCURVE",
"274 543 OFFCURVE",
"289 543 CURVE SMOOTH",
"347 543 OFFCURVE",
"405 535 OFFCURVE",
"465 535 CURVE SMOOTH",
"505 535 OFFCURVE",
"519 573 OFFCURVE",
"519 593 CURVE SMOOTH",
"519 620 OFFCURVE",
"493 626 OFFCURVE",
"460 632 CURVE",
"436 635 OFFCURVE",
"405 635 OFFCURVE",
"382 635 CURVE SMOOTH",
"359 635 OFFCURVE",
"328 634 OFFCURVE",
"295 634 CURVE SMOOTH",
"260 633 OFFCURVE",
"223 632 OFFCURVE",
"194 632 CURVE SMOOTH",
"153 632 OFFCURVE",
"98 611 OFFCURVE",
"88 541 CURVE SMOOTH",
"67 390 OFFCURVE",
"61 310 OFFCURVE",
"61 213 CURVE SMOOTH",
"61 112 OFFCURVE",
"61 -1 OFFCURVE",
"252 -1 CURVE SMOOTH",
"351 -1 OFFCURVE",
"436 18 OFFCURVE",
"489 43 CURVE SMOOTH",
"511 54 OFFCURVE",
"520 60 OFFCURVE",
"520 90 CURVE SMOOTH",
"520 109 OFFCURVE",
"510 136 OFFCURVE",
"482 136 CURVE SMOOTH"
);
},
{
closed = 1;
nodes = (
"348 -77 OFFCURVE",
"335 -59 OFFCURVE",
"300 -59 CURVE SMOOTH",
"270 -59 OFFCURVE",
"241 -75 OFFCURVE",
"241 -116 CURVE SMOOTH",
"241 -142 OFFCURVE",
"263 -158 OFFCURVE",
"290 -158 CURVE SMOOTH",
"314 -158 OFFCURVE",
"348 -141 OFFCURVE",
"348 -106 CURVE SMOOTH"
);
}
);
width = 552;
}
);
unicode = 1EB8;
},
{
glyphname = Egrave;
layers = (
{
layerId = "88A9C6FE-0426-4B07-A0DF-A933171F58B2";
name = Regular;
paths = (
{
closed = 1;
nodes = (
"462 136 OFFCURVE",
"442 130 OFFCURVE",
"418 121 CURVE",
"382 110 OFFCURVE",
"335 94 OFFCURVE",
"259 94 CURVE SMOOTH",
"174 94 OFFCURVE",
"165 138 OFFCURVE",
"165 165 CURVE SMOOTH",
"165 197 OFFCURVE",
"166 237 OFFCURVE",
"168 278 CURVE",
"183 277 OFFCURVE",
"200 276 OFFCURVE",
"215 276 CURVE SMOOTH",
"281 276 OFFCURVE",
"355 282 OFFCURVE",
"402 291 CURVE SMOOTH",
"442 299 OFFCURVE",
"454 315 OFFCURVE",
"454 343 CURVE SMOOTH",
"454 361 OFFCURVE",
"439 373 OFFCURVE",
"409 373 CURVE SMOOTH",
"382 373 OFFCURVE",
"350 371 OFFCURVE",
"318 368 CURVE SMOOTH",
"271 364 OFFCURVE",
"221 358 OFFCURVE",
"172 364 CURVE",
"172 402 OFFCURVE",
"177 450 OFFCURVE",
"186 516 CURVE",
"189 532 OFFCURVE",
"204 537 OFFCURVE",
"240 540 CURVE",
"256 542 OFFCURVE",
"274 543 OFFCURVE",
"289 543 CURVE SMOOTH",
"347 543 OFFCURVE",
"405 535 OFFCURVE",
"465 535 CURVE SMOOTH",
"505 535 OFFCURVE",
"519 573 OFFCURVE",
"519 593 CURVE SMOOTH",
"519 620 OFFCURVE",
"493 626 OFFCURVE",
"460 632 CURVE",
"436 635 OFFCURVE",
"405 635 OFFCURVE",
"382 635 CURVE SMOOTH",
"359 635 OFFCURVE",
"328 634 OFFCURVE",
"295 634 CURVE SMOOTH",
"260 633 OFFCURVE",
"223 632 OFFCURVE",
"194 632 CURVE SMOOTH",
"153 632 OFFCURVE",
"98 611 OFFCURVE",
"88 541 CURVE SMOOTH",
"67 390 OFFCURVE",
"61 310 OFFCURVE",
"61 213 CURVE SMOOTH",
"61 112 OFFCURVE",
"61 -1 OFFCURVE",
"252 -1 CURVE SMOOTH",
"351 -1 OFFCURVE",
"436 18 OFFCURVE",
"489 43 CURVE SMOOTH",
"511 54 OFFCURVE",
"520 60 OFFCURVE",
"520 90 CURVE SMOOTH",
"520 109 OFFCURVE",
"510 136 OFFCURVE",
"482 136 CURVE SMOOTH"
);
},
{
closed = 1;
nodes = (
"194 864 OFFCURVE",
"175 851 OFFCURVE",
"175 832 CURVE SMOOTH",
"175 790 OFFCURVE",
"231 752 OFFCURVE",
"254 738 CURVE SMOOTH",
"276 724 OFFCURVE",
"316 717 OFFCURVE",
"329 717 CURVE SMOOTH",
"343 717 OFFCURVE",
"349 726 OFFCURVE",
"349 737 CURVE SMOOTH",
"349 746 OFFCURVE",
"343 751 OFFCURVE",
"329 763 CURVE",
"315 776 OFFCURVE",
"302 782 OFFCURVE",
"283 821 CURVE SMOOTH",
"267 854 OFFCURVE",
"249 864 OFFCURVE",
"222 864 CURVE SMOOTH"
);
}
);
width = 552;
}
);
unicode = 00C8;
},
{
glyphname = Ehookabove;
layers = (
{
layerId = "88A9C6FE-0426-4B07-A0DF-A933171F58B2";
name = Regular;
paths = (
{
closed = 1;
nodes = (
"462 136 OFFCURVE",
"442 130 OFFCURVE",
"418 121 CURVE",
"382 110 OFFCURVE",
"335 94 OFFCURVE",
"259 94 CURVE SMOOTH",
"174 94 OFFCURVE",
"165 138 OFFCURVE",
"165 165 CURVE SMOOTH",
"165 197 OFFCURVE",
"166 237 OFFCURVE",
"168 278 CURVE",
"183 277 OFFCURVE",
"200 276 OFFCURVE",
"215 276 CURVE SMOOTH",
"281 276 OFFCURVE",
"355 282 OFFCURVE",
"402 291 CURVE SMOOTH",
"442 299 OFFCURVE",
"454 315 OFFCURVE",
"454 343 CURVE SMOOTH",
"454 361 OFFCURVE",
"439 373 OFFCURVE",
"409 373 CURVE SMOOTH",
"382 373 OFFCURVE",
"350 371 OFFCURVE",
"318 368 CURVE SMOOTH",
"271 364 OFFCURVE",
"221 358 OFFCURVE",
"172 364 CURVE",
"172 402 OFFCURVE",
"177 450 OFFCURVE",
"186 516 CURVE",
"189 532 OFFCURVE",
"204 537 OFFCURVE",
"240 540 CURVE",
"256 542 OFFCURVE",
"274 543 OFFCURVE",
"289 543 CURVE SMOOTH",
"347 543 OFFCURVE",
"405 535 OFFCURVE",
"465 535 CURVE SMOOTH",
"505 535 OFFCURVE",
"519 573 OFFCURVE",
"519 593 CURVE SMOOTH",
"519 620 OFFCURVE",
"493 626 OFFCURVE",
"460 632 CURVE",
"436 635 OFFCURVE",
"405 635 OFFCURVE",
"382 635 CURVE SMOOTH",
"359 635 OFFCURVE",
"328 634 OFFCURVE",
"295 634 CURVE SMOOTH",
"260 633 OFFCURVE",
"223 632 OFFCURVE",
"194 632 CURVE SMOOTH",
"153 632 OFFCURVE",
"98 611 OFFCURVE",
"88 541 CURVE SMOOTH",
"67 390 OFFCURVE",
"61 310 OFFCURVE",
"61 213 CURVE SMOOTH",
"61 112 OFFCURVE",
"61 -1 OFFCURVE",
"252 -1 CURVE SMOOTH",
"351 -1 OFFCURVE",
"436 18 OFFCURVE",
"489 43 CURVE SMOOTH",
"511 54 OFFCURVE",
"520 60 OFFCURVE",
"520 90 CURVE SMOOTH",
"520 109 OFFCURVE",
"510 136 OFFCURVE",
"482 136 CURVE SMOOTH"
);
},
{
closed = 1;
nodes = (
"247 826 OFFCURVE",
"276 846 OFFCURVE",
"295 846 CURVE SMOOTH",
"314 846 OFFCURVE",
"336 847 OFFCURVE",
"336 815 CURVE SMOOTH",
"336 782 OFFCURVE",
"293 779 OFFCURVE",
"276 764 CURVE SMOOTH",
"270 759 OFFCURVE",
"260 750 OFFCURVE",
"260 732 CURVE SMOOTH",
"260 723 OFFCURVE",
"266 705 OFFCURVE",
"266 705 CURVE",
"272 684 OFFCURVE",
"291 677 OFFCURVE",
"317 677 CURVE SMOOTH",
"333 677 OFFCURVE",
"339 690 OFFCURVE",
"339 699 CURVE SMOOTH",
"339 707 OFFCURVE",
"311 728 OFFCURVE",
"336 738 CURVE SMOOTH",
"377 755 OFFCURVE",
"405 771 OFFCURVE",
"405 825 CURVE SMOOTH",
"405 848 OFFCURVE",
"392 869 OFFCURVE",
"384 875 CURVE SMOOTH",
"363 891 OFFCURVE",
"339 905 OFFCURVE",
"316 905 CURVE SMOOTH",
"290 905 OFFCURVE",
"214 894 OFFCURVE",
"214 853 CURVE SMOOTH",
"214 838 OFFCURVE",
"226 826 OFFCURVE",
"240 826 CURVE SMOOTH"
);
}
);
width = 552;
}
);
unicode = 1EBA;
},
{
glyphname = Einvertedbreve;
layers = (
{
layerId = "88A9C6FE-0426-4B07-A0DF-A933171F58B2";
name = Regular;
paths = (
{
closed = 1;
nodes = (
"462 136 OFFCURVE",
"442 130 OFFCURVE",
"418 121 CURVE",
"382 110 OFFCURVE",
"335 94 OFFCURVE",
"259 94 CURVE SMOOTH",
"174 94 OFFCURVE",
"165 138 OFFCURVE",
"165 165 CURVE SMOOTH",
"165 197 OFFCURVE",
"166 237 OFFCURVE",
"168 278 CURVE",
"183 277 OFFCURVE",
"200 276 OFFCURVE",
"215 276 CURVE SMOOTH",
"281 276 OFFCURVE",
"355 282 OFFCURVE",
"402 291 CURVE SMOOTH",
"442 299 OFFCURVE",
"454 315 OFFCURVE",
"454 343 CURVE SMOOTH",
"454 361 OFFCURVE",
"439 373 OFFCURVE",
"409 373 CURVE SMOOTH",
"382 373 OFFCURVE",
"350 371 OFFCURVE",
"318 368 CURVE SMOOTH",
"271 364 OFFCURVE",
"221 358 OFFCURVE",
"172 364 CURVE",
"172 402 OFFCURVE",
"177 450 OFFCURVE",
"186 516 CURVE",
"189 532 OFFCURVE",
"204 537 OFFCURVE",
"240 540 CURVE",
"256 542 OFFCURVE",
"274 543 OFFCURVE",
"289 543 CURVE SMOOTH",
"347 543 OFFCURVE",
"405 535 OFFCURVE",
"465 535 CURVE SMOOTH",
"505 535 OFFCURVE",
"519 573 OFFCURVE",
"519 593 CURVE SMOOTH",
"519 620 OFFCURVE",
"493 626 OFFCURVE",
"460 632 CURVE",
"436 635 OFFCURVE",
"405 635 OFFCURVE",
"382 635 CURVE SMOOTH",
"359 635 OFFCURVE",
"328 634 OFFCURVE",
"295 634 CURVE SMOOTH",
"260 633 OFFCURVE",
"223 632 OFFCURVE",
"194 632 CURVE SMOOTH",
"153 632 OFFCURVE",
"98 611 OFFCURVE",
"88 541 CURVE SMOOTH",
"67 390 OFFCURVE",
"61 310 OFFCURVE",
"61 213 CURVE SMOOTH",
"61 112 OFFCURVE",
"61 -1 OFFCURVE",
"252 -1 CURVE SMOOTH",
"351 -1 OFFCURVE",
"436 18 OFFCURVE",
"489 43 CURVE SMOOTH",
"511 54 OFFCURVE",
"520 60 OFFCURVE",
"520 90 CURVE SMOOTH",
"520 109 OFFCURVE",
"510 136 OFFCURVE",
"482 136 CURVE SMOOTH"
);
},
{
closed = 1;
nodes = (
"418 803 OFFCURVE",
"376 831 OFFCURVE",
"314 831 CURVE SMOOTH",
"226 831 OFFCURVE",
"196 779 OFFCURVE",
"182 749 CURVE SMOOTH",
"178 741 OFFCURVE",
"177 731 OFFCURVE",
"177 726 CURVE SMOOTH",
"177 713 OFFCURVE",
"189 704 OFFCURVE",
"198 704 CURVE SMOOTH",
"211 704 OFFCURVE",
"220 709 OFFCURVE",
"232 723 CURVE SMOOTH",
"253 748 OFFCURVE",
"282 763 OFFCURVE",
"316 763 CURVE SMOOTH",
"355 763 OFFCURVE",
"384 740 OFFCURVE",
"396 727 CURVE",
"407 716 OFFCURVE",
"414 709 OFFCURVE",
"425 709 CURVE SMOOTH",
"442 709 OFFCURVE",
"455 720 OFFCURVE",
"455 728 CURVE SMOOTH",
"455 736 OFFCURVE",
"450 749 OFFCURVE",
"448 753 CURVE"
);
}
);
width = 552;
}
);
unicode = 0206;
},
{
glyphname = Emacron;
layers = (
{
layerId = "88A9C6FE-0426-4B07-A0DF-A933171F58B2";
name = Regular;
paths = (
{
closed = 1;
nodes = (
"462 136 OFFCURVE",
"442 130 OFFCURVE",
"418 121 CURVE",
"382 110 OFFCURVE",
"335 94 OFFCURVE",
"259 94 CURVE SMOOTH",
"174 94 OFFCURVE",
"165 138 OFFCURVE",
"165 165 CURVE SMOOTH",
"165 197 OFFCURVE",
"166 237 OFFCURVE",
"168 278 CURVE",
"183 277 OFFCURVE",
"200 276 OFFCURVE",
"215 276 CURVE SMOOTH",
"281 276 OFFCURVE",
"355 282 OFFCURVE",
"402 291 CURVE SMOOTH",
"442 299 OFFCURVE",
"454 315 OFFCURVE",
"454 343 CURVE SMOOTH",
"454 361 OFFCURVE",
"439 373 OFFCURVE",
"409 373 CURVE SMOOTH",
"382 373 OFFCURVE",
"350 371 OFFCURVE",
"318 368 CURVE SMOOTH",
"271 364 OFFCURVE",
"221 358 OFFCURVE",
"172 364 CURVE",
"172 402 OFFCURVE",
"177 450 OFFCURVE",
"186 516 CURVE",
"189 532 OFFCURVE",
"204 537 OFFCURVE",
"240 540 CURVE",
"256 542 OFFCURVE",
"274 543 OFFCURVE",
"289 543 CURVE SMOOTH",
"347 543 OFFCURVE",
"405 535 OFFCURVE",
"465 535 CURVE SMOOTH",
"505 535 OFFCURVE",
"519 573 OFFCURVE",
"519 593 CURVE SMOOTH",
"519 620 OFFCURVE",
"493 626 OFFCURVE",
"460 632 CURVE",
"436 635 OFFCURVE",
"405 635 OFFCURVE",
"382 635 CURVE SMOOTH",
"359 635 OFFCURVE",
"328 634 OFFCURVE",
"295 634 CURVE SMOOTH",
"260 633 OFFCURVE",
"223 632 OFFCURVE",
"194 632 CURVE SMOOTH",
"153 632 OFFCURVE",
"98 611 OFFCURVE",
"88 541 CURVE SMOOTH",
"67 390 OFFCURVE",
"61 310 OFFCURVE",
"61 213 CURVE SMOOTH",
"61 112 OFFCURVE",
"61 -1 OFFCURVE",
"252 -1 CURVE SMOOTH",
"351 -1 OFFCURVE",
"436 18 OFFCURVE",
"489 43 CURVE SMOOTH",
"511 54 OFFCURVE",
"520 60 OFFCURVE",
"520 90 CURVE SMOOTH",
"520 109 OFFCURVE",
"510 136 OFFCURVE",
"482 136 CURVE SMOOTH"
);
},
{
closed = 1;
nodes = (
"383 720 LINE SMOOTH",
"430 720 OFFCURVE",
"444 727 OFFCURVE",
"444 769 CURVE SMOOTH",
"444 788 OFFCURVE",
"351 787 OFFCURVE",
"291 787 CURVE SMOOTH",
"224 787 OFFCURVE",
"171 783 OFFCURVE",
"171 749 CURVE SMOOTH",
"171 719 OFFCURVE",
"177 714 OFFCURVE",
"201 714 CURVE SMOOTH",
"209 714 OFFCURVE",
"241 717 OFFCURVE",
"271 717 CURVE SMOOTH"
);
}
);
width = 552;
}
);
unicode = 0112;
},
{
glyphname = Eogonek;
layers = (
{
layerId = "88A9C6FE-0426-4B07-A0DF-A933171F58B2";
name = Regular;
paths = (
{
closed = 1;
nodes = (
"462 136 OFFCURVE",
"442 130 OFFCURVE",
"418 121 CURVE",
"382 110 OFFCURVE",
"335 94 OFFCURVE",
"259 94 CURVE SMOOTH",
"174 94 OFFCURVE",
"165 138 OFFCURVE",
"165 165 CURVE SMOOTH",
"165 197 OFFCURVE",
"166 237 OFFCURVE",
"168 278 CURVE",
"183 277 OFFCURVE",
"200 276 OFFCURVE",
"215 276 CURVE SMOOTH",
"281 276 OFFCURVE",
"355 282 OFFCURVE",
"402 291 CURVE SMOOTH",
"442 299 OFFCURVE",
"454 315 OFFCURVE",
"454 343 CURVE SMOOTH",
"454 361 OFFCURVE",
"439 373 OFFCURVE",
"409 373 CURVE SMOOTH",
"382 373 OFFCURVE",
"350 371 OFFCURVE",
"318 368 CURVE SMOOTH",
"271 364 OFFCURVE",
"221 358 OFFCURVE",
"172 364 CURVE",
"172 402 OFFCURVE",
"177 450 OFFCURVE",
"186 516 CURVE",
"189 532 OFFCURVE",
"204 537 OFFCURVE",
"240 540 CURVE",
"256 542 OFFCURVE",
"274 543 OFFCURVE",
"289 543 CURVE SMOOTH",
"347 543 OFFCURVE",
"405 535 OFFCURVE",
"465 535 CURVE SMOOTH",
"505 535 OFFCURVE",
"519 573 OFFCURVE",
"519 593 CURVE SMOOTH",
"519 620 OFFCURVE",
"493 626 OFFCURVE",
"460 632 CURVE",
"436 635 OFFCURVE",
"405 635 OFFCURVE",
"382 635 CURVE SMOOTH",
"359 635 OFFCURVE",
"328 634 OFFCURVE",
"295 634 CURVE SMOOTH",
"260 633 OFFCURVE",
"223 632 OFFCURVE",
"194 632 CURVE SMOOTH",
"153 632 OFFCURVE",
"98 611 OFFCURVE",
"88 541 CURVE SMOOTH",
"67 390 OFFCURVE",
"61 310 OFFCURVE",
"61 213 CURVE SMOOTH",
"61 112 OFFCURVE",
"61 -1 OFFCURVE",
"252 -1 CURVE SMOOTH",
"283 -1 OFFCURVE",
"313 1 OFFCURVE",
"341 4 CURVE",
"328 -5 OFFCURVE",
"316 -19 OFFCURVE",
"307 -31 CURVE SMOOTH",
"292 -50 OFFCURVE",
"271 -80 OFFCURVE",
"271 -135 CURVE SMOOTH",
"271 -184 OFFCURVE",
"310 -212 OFFCURVE",
"364 -212 CURVE SMOOTH",
"406 -212 OFFCURVE",
"436 -193 OFFCURVE",
"436 -167 CURVE SMOOTH",
"436 -145 OFFCURVE",
"429 -138 OFFCURVE",
"415 -138 CURVE SMOOTH",
"406 -138 OFFCURVE",
"397 -146 OFFCURVE",
"376 -146 CURVE SMOOTH",
"357 -146 OFFCURVE",
"341 -140 OFFCURVE",
"341 -120 CURVE SMOOTH",
"341 -74 OFFCURVE",
"390 -12 OFFCURVE",
"427 13 CURVE",
"442 22 OFFCURVE",
"475 37 OFFCURVE",
"489 43 CURVE",
"511 54 OFFCURVE",
"520 60 OFFCURVE",
"520 90 CURVE SMOOTH",
"520 109 OFFCURVE",
"510 136 OFFCURVE",
"482 136 CURVE SMOOTH"
);
}
);
width = 552;
}
);
unicode = 0118;
},
{
glyphname = Etilde;
layers = (
{
layerId = "88A9C6FE-0426-4B07-A0DF-A933171F58B2";
name = Regular;
paths = (
{
closed = 1;
nodes = (
"462 136 OFFCURVE",
"442 130 OFFCURVE",
"418 121 CURVE",
"382 110 OFFCURVE",
"335 94 OFFCURVE",
"259 94 CURVE SMOOTH",
"174 94 OFFCURVE",
"165 138 OFFCURVE",
"165 165 CURVE SMOOTH",
"165 197 OFFCURVE",
"166 237 OFFCURVE",
"168 278 CURVE",
"183 277 OFFCURVE",
"200 276 OFFCURVE",
"215 276 CURVE SMOOTH",
"281 276 OFFCURVE",
"355 282 OFFCURVE",
"402 291 CURVE SMOOTH",
"442 299 OFFCURVE",
"454 315 OFFCURVE",
"454 343 CURVE SMOOTH",
"454 361 OFFCURVE",
"439 373 OFFCURVE",
"409 373 CURVE SMOOTH",
"382 373 OFFCURVE",
"350 371 OFFCURVE",
"318 368 CURVE SMOOTH",
"271 364 OFFCURVE",
"221 358 OFFCURVE",
"172 364 CURVE",
"172 402 OFFCURVE",
"177 450 OFFCURVE",
"186 516 CURVE",
"189 532 OFFCURVE",
"204 537 OFFCURVE",
"240 540 CURVE",
"256 542 OFFCURVE",
"274 543 OFFCURVE",
"289 543 CURVE SMOOTH",
"347 543 OFFCURVE",
"405 535 OFFCURVE",
"465 535 CURVE SMOOTH",
"505 535 OFFCURVE",
"519 573 OFFCURVE",
"519 593 CURVE SMOOTH",
"519 620 OFFCURVE",
"493 626 OFFCURVE",
"460 632 CURVE",
"436 635 OFFCURVE",
"405 635 OFFCURVE",
"382 635 CURVE SMOOTH",
"359 635 OFFCURVE",
"328 634 OFFCURVE",
"295 634 CURVE SMOOTH",
"260 633 OFFCURVE",
"223 632 OFFCURVE",
"194 632 CURVE SMOOTH",
"153 632 OFFCURVE",
"98 611 OFFCURVE",
"88 541 CURVE SMOOTH",
"67 390 OFFCURVE",
"61 310 OFFCURVE",
"61 213 CURVE SMOOTH",
"61 112 OFFCURVE",
"61 -1 OFFCURVE",
"252 -1 CURVE SMOOTH",
"351 -1 OFFCURVE",
"436 18 OFFCURVE",
"489 43 CURVE SMOOTH",
"511 54 OFFCURVE",
"520 60 OFFCURVE",
"520 90 CURVE SMOOTH",
"520 109 OFFCURVE",
"510 136 OFFCURVE",
"482 136 CURVE SMOOTH"
);
},
{
closed = 1;
nodes = (
"153 702 OFFCURVE",
"174 692 OFFCURVE",
"185 692 CURVE SMOOTH",
"201 692 OFFCURVE",
"215 699 OFFCURVE",
"226 715 CURVE SMOOTH",
"238 733 OFFCURVE",
"256 739 OFFCURVE",
"272 739 CURVE SMOOTH",
"305 739 OFFCURVE",
"318 694 OFFCURVE",
"385 694 CURVE SMOOTH",
"431 694 OFFCURVE",
"482 737 OFFCURVE",
"482 778 CURVE SMOOTH",
"482 799 OFFCURVE",
"463 808 OFFCURVE",
"448 808 CURVE SMOOTH",
"432 808 OFFCURVE",
"424 800 OFFCURVE",
"417 790 CURVE",
"410 779 OFFCURVE",
"404 766 OFFCURVE",
"387 766 CURVE",
"374 765 OFFCURVE",
"359 772 OFFCURVE",
"341 785 CURVE SMOOTH",
"319 800 OFFCURVE",
"293 809 OFFCURVE",
"268 809 CURVE SMOOTH",
"220 809 OFFCURVE",
"153 774 OFFCURVE",
"153 721 CURVE SMOOTH"
);
}
);
width = 552;
}
);
unicode = 1EBC;
},
{
glyphname = F;
layers = (
{
layerId = "88A9C6FE-0426-4B07-A0DF-A933171F58B2";
name = Regular;
paths = (
{
closed = 1;
nodes = (
"191 58 OFFCURVE",
"191 75 OFFCURVE",
"191 102 CURVE SMOOTH",
"191 163 OFFCURVE",
"185 216 OFFCURVE",
"185 269 CURVE",
"206 271 OFFCURVE",
"235 272 OFFCURVE",
"263 272 CURVE SMOOTH",
"302 272 OFFCURVE",
"337 279 OFFCURVE",
"372 279 CURVE SMOOTH",
"418 279 OFFCURVE",
"442 294 OFFCURVE",
"442 329 CURVE SMOOTH",
"442 361 OFFCURVE",
"414 372 OFFCURVE",
"385 372 CURVE SMOOTH",
"335 372 OFFCURVE",
"277 356 OFFCURVE",
"176 356 CURVE",
"175 417 OFFCURVE",
"173 472 OFFCURVE",
"173 527 CURVE",
"217 539 OFFCURVE",
"281 543 OFFCURVE",
"348 543 CURVE SMOOTH",
"389 543 OFFCURVE",
"424 532 OFFCURVE",
"461 532 CURVE SMOOTH",
"501 532 OFFCURVE",
"508 554 OFFCURVE",
"508 577 CURVE SMOOTH",
"508 625 OFFCURVE",
"436 635 OFFCURVE",
"403 635 CURVE SMOOTH",
"340 636 OFFCURVE",
"227 634 OFFCURVE",
"138 625 CURVE",
"95 619 OFFCURVE",
"76 591 OFFCURVE",
"76 575 CURVE",
"73 543 OFFCURVE",
"72 521 OFFCURVE",
"72 491 CURVE SMOOTH",
"72 373 OFFCURVE",
"85 268 OFFCURVE",
"85 163 CURVE SMOOTH",
"85 123 OFFCURVE",
"85 79 OFFCURVE",
"79 37 CURVE",
"80 23 OFFCURVE",
"94 0 OFFCURVE",
"127 0 CURVE SMOOTH",
"164 0 OFFCURVE",
"181 18 OFFCURVE",
"185 36 CURVE"
);
}
);
width = 513;
}
);
unicode = 0046;
},
{
glyphname = G;
layers = (
{
layerId = "88A9C6FE-0426-4B07-A0DF-A933171F58B2";
name = Regular;
paths = (
{
closed = 1;
nodes = (
"537 477 OFFCURVE",
"551 474 OFFCURVE",
"557 474 CURVE SMOOTH",
"575 474 OFFCURVE",
"599 496 OFFCURVE",
"599 518 CURVE SMOOTH",
"599 527 OFFCURVE",
"595 538 OFFCURVE",
"587 550 CURVE SMOOTH",
"550 603 OFFCURVE",
"476 633 OFFCURVE",
"383 633 CURVE SMOOTH",
"326 633 OFFCURVE",
"242 615 OFFCURVE",
"200 587 CURVE SMOOTH",
"105 525 OFFCURVE",
"50 404 OFFCURVE",
"50 293 CURVE SMOOTH",
"50 216 OFFCURVE",
"86 130 OFFCURVE",
"149 72 CURVE SMOOTH",
"199 26 OFFCURVE",
"277 0 OFFCURVE",
"355 0 CURVE SMOOTH",
"446 0 OFFCURVE",
"532 26 OFFCURVE",
"573 81 CURVE SMOOTH",
"616 139 OFFCURVE",
"638 216 OFFCURVE",
"638 265 CURVE SMOOTH",
"638 323 OFFCURVE",
"605 351 OFFCURVE",
"560 351 CURVE SMOOTH",
"508 351 OFFCURVE",
"454 359 OFFCURVE",
"396 359 CURVE SMOOTH",
"362 359 OFFCURVE",
"337 346 OFFCURVE",
"337 312 CURVE SMOOTH",
"337 290 OFFCURVE",
"361 273 OFFCURVE",
"400 273 CURVE SMOOTH",
"423 273 OFFCURVE",
"445 274 OFFCURVE",
"472 274 CURVE SMOOTH",
"507 274 OFFCURVE",
"534 271 OFFCURVE",
"534 256 CURVE SMOOTH",
"534 220 OFFCURVE",
"527 176 OFFCURVE",
"500 142 CURVE",
"473 111 OFFCURVE",
"425 86 OFFCURVE",
"355 86 CURVE SMOOTH",
"257 86 OFFCURVE",
"155 162 OFFCURVE",
"155 294 CURVE SMOOTH",
"155 379 OFFCURVE",
"183 454 OFFCURVE",
"244 499 CURVE SMOOTH",
"283 527 OFFCURVE",
"329 541 OFFCURVE",
"385 541 CURVE SMOOTH",
"445 541 OFFCURVE",
"483 516 OFFCURVE",
"531 481 CURVE"
);
}
);
width = 690;
}
);
leftKerningGroup = C;
rightKerningGroup = G;
unicode = 0047;
},
{
glyphname = Gacute;
layers = (
{
layerId = "88A9C6FE-0426-4B07-A0DF-A933171F58B2";
name = Regular;
paths = (
{
closed = 1;
nodes = (
"537 477 OFFCURVE",
"551 474 OFFCURVE",
"557 474 CURVE SMOOTH",
"575 474 OFFCURVE",
"599 496 OFFCURVE",
"599 518 CURVE SMOOTH",
"599 527 OFFCURVE",
"595 538 OFFCURVE",
"587 550 CURVE SMOOTH",
"550 603 OFFCURVE",
"476 633 OFFCURVE",
"383 633 CURVE SMOOTH",
"326 633 OFFCURVE",
"242 615 OFFCURVE",
"200 587 CURVE SMOOTH",
"105 525 OFFCURVE",
"50 404 OFFCURVE",
"50 293 CURVE SMOOTH",
"50 216 OFFCURVE",
"86 130 OFFCURVE",
"149 72 CURVE SMOOTH",
"199 26 OFFCURVE",
"277 0 OFFCURVE",
"355 0 CURVE SMOOTH",
"446 0 OFFCURVE",
"532 26 OFFCURVE",
"573 81 CURVE SMOOTH",
"616 139 OFFCURVE",
"638 216 OFFCURVE",
"638 265 CURVE SMOOTH",
"638 323 OFFCURVE",
"605 351 OFFCURVE",
"560 351 CURVE SMOOTH",
"508 351 OFFCURVE",
"454 359 OFFCURVE",
"396 359 CURVE SMOOTH",
"362 359 OFFCURVE",
"337 346 OFFCURVE",
"337 312 CURVE SMOOTH",
"337 290 OFFCURVE",
"361 273 OFFCURVE",
"400 273 CURVE SMOOTH",
"423 273 OFFCURVE",
"445 274 OFFCURVE",
"472 274 CURVE SMOOTH",
"507 274 OFFCURVE",
"534 271 OFFCURVE",
"534 256 CURVE SMOOTH",
"534 220 OFFCURVE",
"527 176 OFFCURVE",
"500 142 CURVE",
"473 111 OFFCURVE",
"425 86 OFFCURVE",
"355 86 CURVE SMOOTH",
"257 86 OFFCURVE",
"155 162 OFFCURVE",
"155 294 CURVE SMOOTH",
"155 379 OFFCURVE",
"183 454 OFFCURVE",
"244 499 CURVE SMOOTH",
"283 527 OFFCURVE",
"329 541 OFFCURVE",
"385 541 CURVE SMOOTH",
"445 541 OFFCURVE",
"483 516 OFFCURVE",
"531 481 CURVE"
);
},
{
closed = 1;
nodes = (
"420 870 OFFCURVE",
"401 860 OFFCURVE",
"385 827 CURVE SMOOTH",
"367 788 OFFCURVE",
"353 782 OFFCURVE",
"340 769 CURVE",
"325 757 OFFCURVE",
"319 752 OFFCURVE",
"319 743 CURVE SMOOTH",
"319 732 OFFCURVE",
"325 723 OFFCURVE",
"340 723 CURVE SMOOTH",
"352 723 OFFCURVE",
"392 730 OFFCURVE",
"414 744 CURVE",
"438 758 OFFCURVE",
"493 796 OFFCURVE",
"493 838 CURVE SMOOTH",
"493 857 OFFCURVE",
"475 870 OFFCURVE",
"447 870 CURVE SMOOTH"
);
}
);
width = 690;
}
);
unicode = 01F4;
},
{
glyphname = Gbreve;
layers = (
{
layerId = "88A9C6FE-0426-4B07-A0DF-A933171F58B2";
name = Regular;
paths = (
{
closed = 1;
nodes = (
"483 516 OFFCURVE",
"445 541 OFFCURVE",
"385 541 CURVE SMOOTH",
"329 541 OFFCURVE",
"283 527 OFFCURVE",
"244 499 CURVE SMOOTH",
"183 454 OFFCURVE",
"155 379 OFFCURVE",
"155 294 CURVE SMOOTH",
"155 162 OFFCURVE",
"257 86 OFFCURVE",
"355 86 CURVE SMOOTH",
"425 86 OFFCURVE",
"473 111 OFFCURVE",
"500 142 CURVE",
"527 176 OFFCURVE",
"534 220 OFFCURVE",
"534 256 CURVE SMOOTH",
"534 271 OFFCURVE",
"507 274 OFFCURVE",
"472 274 CURVE SMOOTH",
"445 274 OFFCURVE",
"423 273 OFFCURVE",
"400 273 CURVE SMOOTH",
"361 273 OFFCURVE",
"337 290 OFFCURVE",
"337 312 CURVE SMOOTH",
"337 346 OFFCURVE",
"362 359 OFFCURVE",
"396 359 CURVE SMOOTH",
"454 359 OFFCURVE",
"508 351 OFFCURVE",
"560 351 CURVE SMOOTH",
"605 351 OFFCURVE",
"638 323 OFFCURVE",
"638 265 CURVE SMOOTH",
"638 216 OFFCURVE",
"616 139 OFFCURVE",
"573 81 CURVE SMOOTH",
"532 26 OFFCURVE",
"446 0 OFFCURVE",
"355 0 CURVE SMOOTH",
"277 0 OFFCURVE",
"199 26 OFFCURVE",
"149 72 CURVE SMOOTH",
"86 130 OFFCURVE",
"50 216 OFFCURVE",
"50 293 CURVE SMOOTH",
"50 404 OFFCURVE",
"105 525 OFFCURVE",
"200 587 CURVE SMOOTH",
"242 615 OFFCURVE",
"326 633 OFFCURVE",
"383 633 CURVE SMOOTH",
"476 633 OFFCURVE",
"550 603 OFFCURVE",
"587 550 CURVE SMOOTH",
"595 538 OFFCURVE",
"599 527 OFFCURVE",
"599 518 CURVE SMOOTH",
"599 496 OFFCURVE",
"575 474 OFFCURVE",
"557 474 CURVE SMOOTH",
"551 474 OFFCURVE",
"537 477 OFFCURVE",
"531 481 CURVE"
);
},
{
closed = 1;
nodes = (
"251 725 OFFCURVE",
"294 692 OFFCURVE",
"355 692 CURVE SMOOTH",
"443 692 OFFCURVE",
"473 748 OFFCURVE",
"487 778 CURVE SMOOTH",
"491 786 OFFCURVE",
"493 796 OFFCURVE",
"493 801 CURVE SMOOTH",
"493 814 OFFCURVE",
"473 823 OFFCURVE",
"464 823 CURVE SMOOTH",
"451 823 OFFCURVE",
"442 819 OFFCURVE",
"430 804 CURVE",
"409 780 OFFCURVE",
"387 765 OFFCURVE",
"353 765 CURVE SMOOTH",
"314 765 OFFCURVE",
"293 787 OFFCURVE",
"280 801 CURVE",
"269 811 OFFCURVE",
"259 819 OFFCURVE",
"248 819 CURVE SMOOTH",
"231 819 OFFCURVE",
"214 808 OFFCURVE",
"214 800 CURVE SMOOTH",
"214 792 OFFCURVE",
"219 779 OFFCURVE",
"222 774 CURVE SMOOTH"
);
}
);
width = 681;
}
);
leftKerningGroup = C;
rightKerningGroup = G;
unicode = 011E;
},
{
glyphname = Gcaron;
layers = (
{
layerId = "88A9C6FE-0426-4B07-A0DF-A933171F58B2";
name = Regular;
paths = (
{
closed = 1;
nodes = (
"537 477 OFFCURVE",
"551 474 OFFCURVE",
"557 474 CURVE SMOOTH",
"575 474 OFFCURVE",
"599 496 OFFCURVE",
"599 518 CURVE SMOOTH",
"599 527 OFFCURVE",
"595 538 OFFCURVE",
"587 550 CURVE SMOOTH",
"550 603 OFFCURVE",
"476 633 OFFCURVE",
"383 633 CURVE SMOOTH",
"326 633 OFFCURVE",
"242 615 OFFCURVE",
"200 587 CURVE SMOOTH",
"105 525 OFFCURVE",
"50 404 OFFCURVE",
"50 293 CURVE SMOOTH",
"50 216 OFFCURVE",
"86 130 OFFCURVE",
"149 72 CURVE SMOOTH",
"199 26 OFFCURVE",
"277 0 OFFCURVE",
"355 0 CURVE SMOOTH",
"446 0 OFFCURVE",
"532 26 OFFCURVE",
"573 81 CURVE SMOOTH",
"616 139 OFFCURVE",
"638 216 OFFCURVE",
"638 265 CURVE SMOOTH",
"638 323 OFFCURVE",
"605 351 OFFCURVE",
"560 351 CURVE SMOOTH",
"508 351 OFFCURVE",
"454 359 OFFCURVE",
"396 359 CURVE SMOOTH",
"362 359 OFFCURVE",
"337 346 OFFCURVE",
"337 312 CURVE SMOOTH",
"337 290 OFFCURVE",
"361 273 OFFCURVE",
"400 273 CURVE SMOOTH",
"423 273 OFFCURVE",
"445 274 OFFCURVE",
"472 274 CURVE SMOOTH",
"507 274 OFFCURVE",
"534 271 OFFCURVE",
"534 256 CURVE SMOOTH",
"534 220 OFFCURVE",
"527 176 OFFCURVE",
"500 142 CURVE",
"473 111 OFFCURVE",
"425 86 OFFCURVE",
"355 86 CURVE SMOOTH",
"257 86 OFFCURVE",
"155 162 OFFCURVE",
"155 294 CURVE SMOOTH",
"155 379 OFFCURVE",
"183 454 OFFCURVE",
"244 499 CURVE SMOOTH",
"283 527 OFFCURVE",
"329 541 OFFCURVE",
"385 541 CURVE SMOOTH",
"445 541 OFFCURVE",
"483 516 OFFCURVE",
"531 481 CURVE"
);
},
{
closed = 1;
nodes = (
"378 702 OFFCURVE",
"396 713 OFFCURVE",
"403 722 CURVE SMOOTH",
"410 731 OFFCURVE",
"427 751 OFFCURVE",
"455 778 CURVE SMOOTH",
"472 794 OFFCURVE",
"495 818 OFFCURVE",
"495 829 CURVE SMOOTH",
"495 839 OFFCURVE",
"468 856 OFFCURVE",
"445 856 CURVE SMOOTH",
"417 856 OFFCURVE",
"393 811 OFFCURVE",
"348 773 CURVE",
"310 807 OFFCURVE",
"291 856 OFFCURVE",
"241 856 CURVE SMOOTH",
"223 856 OFFCURVE",
"202 839 OFFCURVE",
"202 829 CURVE SMOOTH",
"202 821 OFFCURVE",
"209 814 OFFCURVE",
"224 797 CURVE SMOOTH",
"246 773 OFFCURVE",
"275 742 OFFCURVE",
"288 730 CURVE",
"305 713 OFFCURVE",
"318 702 OFFCURVE",
"350 702 CURVE SMOOTH"
);
}
);
width = 681;
}
);
unicode = 01E6;
},
{
glyphname = Gcircumflex;
layers = (
{
layerId = "88A9C6FE-0426-4B07-A0DF-A933171F58B2";
name = Regular;
paths = (
{
closed = 1;
nodes = (
"537 477 OFFCURVE",
"551 474 OFFCURVE",
"557 474 CURVE SMOOTH",
"575 474 OFFCURVE",
"599 496 OFFCURVE",
"599 518 CURVE SMOOTH",
"599 527 OFFCURVE",
"595 538 OFFCURVE",
"587 550 CURVE SMOOTH",
"550 603 OFFCURVE",
"476 633 OFFCURVE",
"383 633 CURVE SMOOTH",
"326 633 OFFCURVE",
"242 615 OFFCURVE",
"200 587 CURVE SMOOTH",
"105 525 OFFCURVE",
"50 404 OFFCURVE",
"50 293 CURVE SMOOTH",
"50 216 OFFCURVE",
"86 130 OFFCURVE",
"149 72 CURVE SMOOTH",
"199 26 OFFCURVE",
"277 0 OFFCURVE",
"355 0 CURVE SMOOTH",
"446 0 OFFCURVE",
"532 26 OFFCURVE",
"573 81 CURVE SMOOTH",
"616 139 OFFCURVE",
"638 216 OFFCURVE",
"638 265 CURVE SMOOTH",
"638 323 OFFCURVE",
"605 351 OFFCURVE",
"560 351 CURVE SMOOTH",
"508 351 OFFCURVE",
"454 359 OFFCURVE",
"396 359 CURVE SMOOTH",
"362 359 OFFCURVE",
"337 346 OFFCURVE",
"337 312 CURVE SMOOTH",
"337 290 OFFCURVE",
"361 273 OFFCURVE",
"400 273 CURVE SMOOTH",
"423 273 OFFCURVE",
"445 274 OFFCURVE",
"472 274 CURVE SMOOTH",
"507 274 OFFCURVE",
"534 271 OFFCURVE",
"534 256 CURVE SMOOTH",
"534 220 OFFCURVE",
"527 176 OFFCURVE",
"500 142 CURVE",
"473 111 OFFCURVE",
"425 86 OFFCURVE",
"355 86 CURVE SMOOTH",
"257 86 OFFCURVE",
"155 162 OFFCURVE",
"155 294 CURVE SMOOTH",
"155 379 OFFCURVE",
"183 454 OFFCURVE",
"244 499 CURVE SMOOTH",
"283 527 OFFCURVE",
"329 541 OFFCURVE",
"385 541 CURVE SMOOTH",
"445 541 OFFCURVE",
"483 516 OFFCURVE",
"531 481 CURVE"
);
},
{
closed = 1;
nodes = (
"320 838 OFFCURVE",
"307 821 OFFCURVE",
"300 812 CURVE SMOOTH",
"293 803 OFFCURVE",
"280 786 OFFCURVE",
"251 762 CURVE SMOOTH",
"233 747 OFFCURVE",
"211 722 OFFCURVE",
"211 711 CURVE SMOOTH",
"211 701 OFFCURVE",
"217 684 OFFCURVE",
"241 684 CURVE SMOOTH",
"282 684 OFFCURVE",
"335 735 OFFCURVE",
"358 768 CURVE",
"386 729 OFFCURVE",
"424 684 OFFCURVE",
"474 684 CURVE SMOOTH",
"492 684 OFFCURVE",
"504 701 OFFCURVE",
"504 711 CURVE SMOOTH",
"504 719 OFFCURVE",
"501 729 OFFCURVE",
"482 743 CURVE SMOOTH",
"459 759 OFFCURVE",
"429 788 OFFCURVE",
"415 808 CURVE SMOOTH",
"402 828 OFFCURVE",
"388 838 OFFCURVE",
"356 838 CURVE SMOOTH"
);
}
);
width = 681;
}
);
leftKerningGroup = C;
rightKerningGroup = G;
unicode = 011C;
},
{
glyphname = Gcommaaccent;
layers = (
{
layerId = "88A9C6FE-0426-4B07-A0DF-A933171F58B2";
name = Regular;
paths = (
{
closed = 1;
nodes = (
"537 477 OFFCURVE",
"551 474 OFFCURVE",
"557 474 CURVE SMOOTH",
"575 474 OFFCURVE",
"599 496 OFFCURVE",
"599 518 CURVE SMOOTH",
"599 527 OFFCURVE",
"595 538 OFFCURVE",
"587 550 CURVE SMOOTH",
"550 603 OFFCURVE",
"476 633 OFFCURVE",
"383 633 CURVE SMOOTH",
"326 633 OFFCURVE",
"242 615 OFFCURVE",
"200 587 CURVE SMOOTH",
"105 525 OFFCURVE",
"50 404 OFFCURVE",
"50 293 CURVE SMOOTH",
"50 216 OFFCURVE",
"86 130 OFFCURVE",
"149 72 CURVE SMOOTH",
"199 26 OFFCURVE",
"277 0 OFFCURVE",
"355 0 CURVE SMOOTH",
"446 0 OFFCURVE",
"532 26 OFFCURVE",
"573 81 CURVE SMOOTH",
"616 139 OFFCURVE",
"638 216 OFFCURVE",
"638 265 CURVE SMOOTH",
"638 323 OFFCURVE",
"605 351 OFFCURVE",
"560 351 CURVE SMOOTH",
"508 351 OFFCURVE",
"454 359 OFFCURVE",
"396 359 CURVE SMOOTH",
"362 359 OFFCURVE",
"337 346 OFFCURVE",
"337 312 CURVE SMOOTH",
"337 290 OFFCURVE",
"361 273 OFFCURVE",
"400 273 CURVE SMOOTH",
"423 273 OFFCURVE",
"445 274 OFFCURVE",
"472 274 CURVE SMOOTH",
"507 274 OFFCURVE",
"534 271 OFFCURVE",
"534 256 CURVE SMOOTH",
"534 220 OFFCURVE",
"527 176 OFFCURVE",
"500 142 CURVE",
"473 111 OFFCURVE",
"425 86 OFFCURVE",
"355 86 CURVE SMOOTH",
"257 86 OFFCURVE",
"155 162 OFFCURVE",
"155 294 CURVE SMOOTH",
"155 379 OFFCURVE",
"183 454 OFFCURVE",
"244 499 CURVE SMOOTH",
"283 527 OFFCURVE",
"329 541 OFFCURVE",
"385 541 CURVE SMOOTH",
"445 541 OFFCURVE",
"483 516 OFFCURVE",
"531 481 CURVE"
);
},
{
closed = 1;
nodes = (
"348 -161 OFFCURVE",
"341 -170 OFFCURVE",
"331 -179 CURVE SMOOTH",
"318 -190 OFFCURVE",
"293 -206 OFFCURVE",
"293 -216 CURVE SMOOTH",
"293 -236 OFFCURVE",
"297 -239 OFFCURVE",
"323 -239 CURVE SMOOTH",
"339 -239 OFFCURVE",
"360 -221 OFFCURVE",
"378 -204 CURVE",
"401 -185 OFFCURVE",
"426 -144 OFFCURVE",
"426 -103 CURVE SMOOTH",
"426 -72 OFFCURVE",
"411 -46 OFFCURVE",
"380 -46 CURVE SMOOTH",
"364 -46 OFFCURVE",
"344 -50 OFFCURVE",
"332 -57 CURVE",
"316 -62 OFFCURVE",
"308 -79 OFFCURVE",
"308 -96 CURVE SMOOTH",
"308 -128 OFFCURVE",
"327 -140 OFFCURVE",
"336 -145 CURVE",
"342 -149 OFFCURVE",
"355 -149 OFFCURVE",
"355 -149 CURVE"
);
}
);
width = 681;
}
);
leftKerningGroup = C;
rightKerningGroup = G;
unicode = 0122;
},
{
glyphname = Gdotaccent;
layers = (
{
layerId = "88A9C6FE-0426-4B07-A0DF-A933171F58B2";
name = Regular;
paths = (
{
closed = 1;
nodes = (
"537 477 OFFCURVE",
"551 474 OFFCURVE",
"557 474 CURVE SMOOTH",
"575 474 OFFCURVE",
"599 496 OFFCURVE",
"599 518 CURVE SMOOTH",
"599 527 OFFCURVE",
"595 538 OFFCURVE",
"587 550 CURVE SMOOTH",
"550 603 OFFCURVE",
"476 633 OFFCURVE",
"383 633 CURVE SMOOTH",
"326 633 OFFCURVE",
"242 615 OFFCURVE",
"200 587 CURVE SMOOTH",
"105 525 OFFCURVE",
"50 404 OFFCURVE",
"50 293 CURVE SMOOTH",
"50 216 OFFCURVE",
"86 130 OFFCURVE",
"149 72 CURVE SMOOTH",
"199 26 OFFCURVE",
"277 0 OFFCURVE",
"355 0 CURVE SMOOTH",
"446 0 OFFCURVE",
"532 26 OFFCURVE",
"573 81 CURVE SMOOTH",
"616 139 OFFCURVE",
"638 216 OFFCURVE",
"638 265 CURVE SMOOTH",
"638 323 OFFCURVE",
"605 351 OFFCURVE",
"560 351 CURVE SMOOTH",
"508 351 OFFCURVE",
"454 359 OFFCURVE",
"396 359 CURVE SMOOTH",
"362 359 OFFCURVE",
"337 346 OFFCURVE",
"337 312 CURVE SMOOTH",
"337 290 OFFCURVE",
"361 273 OFFCURVE",
"400 273 CURVE SMOOTH",
"423 273 OFFCURVE",
"445 274 OFFCURVE",
"472 274 CURVE SMOOTH",
"507 274 OFFCURVE",
"534 271 OFFCURVE",
"534 256 CURVE SMOOTH",
"534 220 OFFCURVE",
"527 176 OFFCURVE",
"500 142 CURVE",
"473 111 OFFCURVE",
"425 86 OFFCURVE",
"355 86 CURVE SMOOTH",
"257 86 OFFCURVE",
"155 162 OFFCURVE",
"155 294 CURVE SMOOTH",
"155 379 OFFCURVE",
"183 454 OFFCURVE",
"244 499 CURVE SMOOTH",
"283 527 OFFCURVE",
"329 541 OFFCURVE",
"385 541 CURVE SMOOTH",
"445 541 OFFCURVE",
"483 516 OFFCURVE",
"531 481 CURVE"
);
},
{
closed = 1;
nodes = (
"411 783 OFFCURVE",
"396 802 OFFCURVE",
"360 802 CURVE SMOOTH",
"329 802 OFFCURVE",
"298 785 OFFCURVE",
"298 742 CURVE SMOOTH",
"298 714 OFFCURVE",
"322 697 OFFCURVE",
"350 697 CURVE SMOOTH",
"375 697 OFFCURVE",
"411 715 OFFCURVE",
"411 752 CURVE SMOOTH"
);
}
);
width = 681;
}
);
leftKerningGroup = C;
rightKerningGroup = G;
unicode = 0120;
},
{
glyphname = Gmacron;
layers = (
{
layerId = "88A9C6FE-0426-4B07-A0DF-A933171F58B2";
name = Regular;
paths = (
{
closed = 1;
nodes = (
"537 477 OFFCURVE",
"551 474 OFFCURVE",
"557 474 CURVE SMOOTH",
"575 474 OFFCURVE",
"599 496 OFFCURVE",
"599 518 CURVE SMOOTH",
"599 527 OFFCURVE",
"595 538 OFFCURVE",
"587 550 CURVE SMOOTH",
"550 603 OFFCURVE",
"476 633 OFFCURVE",
"383 633 CURVE SMOOTH",
"326 633 OFFCURVE",
"242 615 OFFCURVE",
"200 587 CURVE SMOOTH",
"105 525 OFFCURVE",
"50 404 OFFCURVE",
"50 293 CURVE SMOOTH",
"50 216 OFFCURVE",
"86 130 OFFCURVE",
"149 72 CURVE SMOOTH",
"199 26 OFFCURVE",
"277 0 OFFCURVE",
"355 0 CURVE SMOOTH",
"446 0 OFFCURVE",
"532 26 OFFCURVE",
"573 81 CURVE SMOOTH",
"616 139 OFFCURVE",
"638 216 OFFCURVE",
"638 265 CURVE SMOOTH",
"638 323 OFFCURVE",
"605 351 OFFCURVE",
"560 351 CURVE SMOOTH",
"508 351 OFFCURVE",
"454 359 OFFCURVE",
"396 359 CURVE SMOOTH",
"362 359 OFFCURVE",
"337 346 OFFCURVE",
"337 312 CURVE SMOOTH",
"337 290 OFFCURVE",
"361 273 OFFCURVE",
"400 273 CURVE SMOOTH",
"423 273 OFFCURVE",
"445 274 OFFCURVE",
"472 274 CURVE SMOOTH",
"507 274 OFFCURVE",
"534 271 OFFCURVE",
"534 256 CURVE SMOOTH",
"534 220 OFFCURVE",
"527 176 OFFCURVE",
"500 142 CURVE",
"473 111 OFFCURVE",
"425 86 OFFCURVE",
"355 86 CURVE SMOOTH",
"257 86 OFFCURVE",
"155 162 OFFCURVE",
"155 294 CURVE SMOOTH",
"155 379 OFFCURVE",
"183 454 OFFCURVE",
"244 499 CURVE SMOOTH",
"283 527 OFFCURVE",
"329 541 OFFCURVE",
"385 541 CURVE SMOOTH",
"445 541 OFFCURVE",
"483 516 OFFCURVE",
"531 481 CURVE"
);
},
{
closed = 1;
nodes = (
"424 709 LINE SMOOTH",
"471 709 OFFCURVE",
"485 716 OFFCURVE",
"485 758 CURVE SMOOTH",
"485 777 OFFCURVE",
"392 776 OFFCURVE",
"332 776 CURVE SMOOTH",
"265 776 OFFCURVE",
"212 772 OFFCURVE",
"212 738 CURVE SMOOTH",
"212 708 OFFCURVE",
"218 703 OFFCURVE",
"242 703 CURVE SMOOTH",
"250 703 OFFCURVE",
"282 706 OFFCURVE",
"312 706 CURVE SMOOTH"
);
}
);
width = 681;
}
);
unicode = 1E20;
},
{
glyphname = H;
layers = (
{
layerId = "88A9C6FE-0426-4B07-A0DF-A933171F58B2";
name = Regular;
paths = (
{
closed = 1;
nodes = (
"461 350 OFFCURVE",
"394 348 OFFCURVE",
"330 348 CURVE SMOOTH",
"256 348 OFFCURVE",
"219 350 OFFCURVE",
"179 359 CURVE",
"179 435 OFFCURVE",
"184 510 OFFCURVE",
"184 596 CURVE SMOOTH",
"184 618 OFFCURVE",
"169 633 OFFCURVE",
"128 633 CURVE SMOOTH",
"111 633 OFFCURVE",
"76 628 OFFCURVE",
"76 579 CURVE SMOOTH",
"76 512 OFFCURVE",
"72 446 OFFCURVE",
"72 372 CURVE SMOOTH",
"72 314 OFFCURVE",
"76 256 OFFCURVE",
"76 187 CURVE SMOOTH",
"76 157 OFFCURVE",
"78 128 OFFCURVE",
"78 69 CURVE SMOOTH",
"78 26 OFFCURVE",
"88 -2 OFFCURVE",
"140 -2 CURVE SMOOTH",
"158 -2 OFFCURVE",
"190 18 OFFCURVE",
"190 40 CURVE SMOOTH",
"190 79 OFFCURVE",
"179 119 OFFCURVE",
"180 160 CURVE SMOOTH",
"180 195 OFFCURVE",
"181 234 OFFCURVE",
"181 270 CURVE",
"206 265 OFFCURVE",
"236 265 OFFCURVE",
"351 265 CURVE SMOOTH",
"401 265 OFFCURVE",
"466 265 OFFCURVE",
"513 269 CURVE",
"515 215 OFFCURVE",
"517 159 OFFCURVE",
"513 104 CURVE SMOOTH",
"512 88 OFFCURVE",
"511 67 OFFCURVE",
"511 46 CURVE SMOOTH",
"511 11 OFFCURVE",
"539 -1 OFFCURVE",
"581 -1 CURVE SMOOTH",
"607 -1 OFFCURVE",
"620 28 OFFCURVE",
"620 50 CURVE SMOOTH",
"620 97 OFFCURVE",
"616 144 OFFCURVE",
"616 196 CURVE SMOOTH",
"616 234 OFFCURVE",
"614 272 OFFCURVE",
"614 331 CURVE SMOOTH",
"614 408 OFFCURVE",
"617 484 OFFCURVE",
"616 575 CURVE",
"616 614 OFFCURVE",
"607 635 OFFCURVE",
"562 635 CURVE SMOOTH",
"529 635 OFFCURVE",
"508 616 OFFCURVE",
"508 584 CURVE SMOOTH",
"508 538 OFFCURVE",
"509 509 OFFCURVE",
"510 501 CURVE",
"514 454 OFFCURVE",
"511 407 OFFCURVE",
"513 358 CURVE"
);
}
);
width = 692;
}
);
unicode = 0048;
},
{
glyphname = Hbar;
layers = (
{
layerId = "88A9C6FE-0426-4B07-A0DF-A933171F58B2";
name = Regular;
paths = (
{
closed = 1;
nodes = (
"328 535 OFFCURVE",
"262 536 OFFCURVE",
"199 539 CURVE",
"199 559 OFFCURVE",
"200 577 OFFCURVE",
"200 594 CURVE SMOOTH",
"200 617 OFFCURVE",
"187 633 OFFCURVE",
"145 633 CURVE SMOOTH",
"127 633 OFFCURVE",
"93 628 OFFCURVE",
"93 577 CURVE SMOOTH",
"93 544 LINE",
"80 544 OFFCURVE",
"72 544 OFFCURVE",
"69 544 CURVE SMOOTH",
"33 544 OFFCURVE",
"16 535 OFFCURVE",
"16 511 CURVE SMOOTH",
"16 464 OFFCURVE",
"40 452 OFFCURVE",
"75 452 CURVE SMOOTH",
"89 452 LINE",
"88 426 OFFCURVE",
"88 399 OFFCURVE",
"88 372 CURVE SMOOTH",
"88 340 OFFCURVE",
"94 283 OFFCURVE",
"94 269 CURVE SMOOTH",
"94 254 OFFCURVE",
"93 206 OFFCURVE",
"93 188 CURVE SMOOTH",
"93 173 OFFCURVE",
"94 112 OFFCURVE",
"94 71 CURVE SMOOTH",
"94 27 OFFCURVE",
"104 -2 OFFCURVE",
"157 -2 CURVE SMOOTH",
"176 -2 OFFCURVE",
"206 19 OFFCURVE",
"206 41 CURVE SMOOTH",
"206 80 OFFCURVE",
"194 121 OFFCURVE",
"196 161 CURVE",
"197 268 LINE",
"236 261 OFFCURVE",
"285 263 OFFCURVE",
"347 263 CURVE SMOOTH",
"400 263 OFFCURVE",
"473 262 OFFCURVE",
"526 267 CURVE",
"527 239 OFFCURVE",
"527 161 OFFCURVE",
"527 136 CURVE SMOOTH",
"527 117 OFFCURVE",
"525 85 OFFCURVE",
"525 49 CURVE SMOOTH",
"525 13 OFFCURVE",
"553 0 OFFCURVE",
"596 0 CURVE SMOOTH",
"622 0 OFFCURVE",
"636 30 OFFCURVE",
"636 53 CURVE SMOOTH",
"636 75 OFFCURVE",
"633 175 OFFCURVE",
"633 197 CURVE SMOOTH",
"633 259 OFFCURVE",
"627 318 OFFCURVE",
"631 380 CURVE SMOOTH",
"632 408 OFFCURVE",
"633 432 OFFCURVE",
"633 454 CURVE",
"649 454 LINE SMOOTH",
"679 454 OFFCURVE",
"704 477 OFFCURVE",
"704 499 CURVE SMOOTH",
"704 534 OFFCURVE",
"685 546 OFFCURVE",
"657 546 CURVE SMOOTH",
"652 546 OFFCURVE",
"644 545 OFFCURVE",
"633 545 CURVE",
"633 573 LINE SMOOTH",
"633 613 OFFCURVE",
"623 635 OFFCURVE",
"578 635 CURVE SMOOTH",
"544 635 OFFCURVE",
"521 616 OFFCURVE",
"521 582 CURVE SMOOTH",
"521 539 LINE",
"468 536 OFFCURVE",
"404 535 OFFCURVE",
"341 535 CURVE SMOOTH"
);
},
{
closed = 1;
nodes = (
"467 353 OFFCURVE",
"386 348 OFFCURVE",
"313 350 CURVE SMOOTH",
"274 350 OFFCURVE",
"235 352 OFFCURVE",
"195 361 CURVE",
"195 392 OFFCURVE",
"195 423 OFFCURVE",
"196 451 CURVE",
"356 451 LINE SMOOTH",
"413 451 OFFCURVE",
"473 452 OFFCURVE",
"526 452 CURVE",
"526 421 OFFCURVE",
"525 390 OFFCURVE",
"526 360 CURVE"
);
}
);
width = 720;
}
);
unicode = 0126;
},
{
glyphname = Hbrevebelow;
layers = (
{
layerId = "88A9C6FE-0426-4B07-A0DF-A933171F58B2";
name = Regular;
paths = (
{
closed = 1;
nodes = (
"461 350 OFFCURVE",
"394 348 OFFCURVE",
"330 348 CURVE SMOOTH",
"256 348 OFFCURVE",
"219 350 OFFCURVE",
"179 359 CURVE",
"179 435 OFFCURVE",
"184 510 OFFCURVE",
"184 596 CURVE SMOOTH",
"184 618 OFFCURVE",
"169 633 OFFCURVE",
"128 633 CURVE SMOOTH",
"111 633 OFFCURVE",
"76 628 OFFCURVE",
"76 579 CURVE SMOOTH",
"76 512 OFFCURVE",
"72 446 OFFCURVE",
"72 372 CURVE SMOOTH",
"72 314 OFFCURVE",
"76 256 OFFCURVE",
"76 187 CURVE SMOOTH",
"76 157 OFFCURVE",
"78 128 OFFCURVE",
"78 69 CURVE SMOOTH",
"78 26 OFFCURVE",
"88 -2 OFFCURVE",
"140 -2 CURVE SMOOTH",
"158 -2 OFFCURVE",
"190 18 OFFCURVE",
"190 40 CURVE SMOOTH",
"190 79 OFFCURVE",
"179 119 OFFCURVE",
"180 160 CURVE SMOOTH",
"180 195 OFFCURVE",
"181 234 OFFCURVE",
"181 270 CURVE",
"206 265 OFFCURVE",
"236 265 OFFCURVE",
"351 265 CURVE SMOOTH",
"401 265 OFFCURVE",
"466 265 OFFCURVE",
"513 269 CURVE",
"515 215 OFFCURVE",
"517 159 OFFCURVE",
"513 104 CURVE SMOOTH",
"512 88 OFFCURVE",
"511 67 OFFCURVE",
"511 46 CURVE SMOOTH",
"511 11 OFFCURVE",
"539 -1 OFFCURVE",
"581 -1 CURVE SMOOTH",
"607 -1 OFFCURVE",
"620 28 OFFCURVE",
"620 50 CURVE SMOOTH",
"620 97 OFFCURVE",
"616 144 OFFCURVE",
"616 196 CURVE SMOOTH",
"616 234 OFFCURVE",
"614 272 OFFCURVE",
"614 331 CURVE SMOOTH",
"614 408 OFFCURVE",
"617 484 OFFCURVE",
"616 575 CURVE",
"616 614 OFFCURVE",
"607 635 OFFCURVE",
"562 635 CURVE SMOOTH",
"529 635 OFFCURVE",
"508 616 OFFCURVE",
"508 584 CURVE SMOOTH",
"508 538 OFFCURVE",
"509 509 OFFCURVE",
"510 501 CURVE",
"514 454 OFFCURVE",
"511 407 OFFCURVE",
"513 358 CURVE"
);
},
{
closed = 1;
nodes = (
"251 -141 OFFCURVE",
"294 -170 OFFCURVE",
"355 -170 CURVE SMOOTH",
"443 -170 OFFCURVE",
"473 -118 OFFCURVE",
"487 -88 CURVE SMOOTH",
"491 -80 OFFCURVE",
"493 -70 OFFCURVE",
"493 -65 CURVE SMOOTH",
"493 -52 OFFCURVE",
"480 -43 OFFCURVE",
"471 -43 CURVE SMOOTH",
"458 -43 OFFCURVE",
"449 -48 OFFCURVE",
"437 -62 CURVE SMOOTH",
"416 -86 OFFCURVE",
"387 -102 OFFCURVE",
"353 -102 CURVE SMOOTH",
"314 -102 OFFCURVE",
"286 -79 OFFCURVE",
"273 -66 CURVE SMOOTH",
"262 -55 OFFCURVE",
"255 -48 OFFCURVE",
"244 -48 CURVE SMOOTH",
"227 -48 OFFCURVE",
"214 -59 OFFCURVE",
"214 -67 CURVE SMOOTH",
"214 -75 OFFCURVE",
"219 -87 OFFCURVE",
"222 -92 CURVE SMOOTH"
);
}
);
width = 692;
}
);
unicode = 1E2A;
},
{
glyphname = Hcircumflex;
layers = (
{
layerId = "88A9C6FE-0426-4B07-A0DF-A933171F58B2";
name = Regular;
paths = (
{
closed = 1;
nodes = (
"461 350 OFFCURVE",
"394 348 OFFCURVE",
"330 348 CURVE SMOOTH",
"256 348 OFFCURVE",
"219 350 OFFCURVE",
"179 359 CURVE",
"179 435 OFFCURVE",
"184 510 OFFCURVE",
"184 596 CURVE SMOOTH",
"184 618 OFFCURVE",
"169 633 OFFCURVE",
"128 633 CURVE SMOOTH",
"111 633 OFFCURVE",
"76 628 OFFCURVE",
"76 579 CURVE SMOOTH",
"76 512 OFFCURVE",
"72 446 OFFCURVE",
"72 372 CURVE SMOOTH",
"72 314 OFFCURVE",
"76 256 OFFCURVE",
"76 187 CURVE SMOOTH",
"76 157 OFFCURVE",
"78 128 OFFCURVE",
"78 69 CURVE SMOOTH",
"78 26 OFFCURVE",
"88 -2 OFFCURVE",
"140 -2 CURVE SMOOTH",
"158 -2 OFFCURVE",
"190 18 OFFCURVE",
"190 40 CURVE SMOOTH",
"190 79 OFFCURVE",
"179 119 OFFCURVE",
"180 160 CURVE SMOOTH",
"180 195 OFFCURVE",
"181 234 OFFCURVE",
"181 270 CURVE",
"206 265 OFFCURVE",
"236 265 OFFCURVE",
"351 265 CURVE SMOOTH",
"401 265 OFFCURVE",
"466 265 OFFCURVE",
"513 269 CURVE",
"515 215 OFFCURVE",
"517 159 OFFCURVE",
"513 104 CURVE SMOOTH",
"512 88 OFFCURVE",
"511 67 OFFCURVE",
"511 46 CURVE SMOOTH",
"511 11 OFFCURVE",
"539 -1 OFFCURVE",
"581 -1 CURVE SMOOTH",
"607 -1 OFFCURVE",
"620 28 OFFCURVE",
"620 50 CURVE SMOOTH",
"620 97 OFFCURVE",
"616 144 OFFCURVE",
"616 196 CURVE SMOOTH",
"616 234 OFFCURVE",
"614 272 OFFCURVE",
"614 331 CURVE SMOOTH",
"614 408 OFFCURVE",
"617 484 OFFCURVE",
"616 575 CURVE",
"616 614 OFFCURVE",
"607 635 OFFCURVE",
"562 635 CURVE SMOOTH",
"529 635 OFFCURVE",
"508 616 OFFCURVE",
"508 584 CURVE SMOOTH",
"508 538 OFFCURVE",
"509 509 OFFCURVE",
"510 501 CURVE",
"514 454 OFFCURVE",
"511 407 OFFCURVE",
"513 358 CURVE"
);
},
{
closed = 1;
nodes = (
"311 849 OFFCURVE",
"298 832 OFFCURVE",
"291 823 CURVE SMOOTH",
"284 814 OFFCURVE",
"271 797 OFFCURVE",
"242 773 CURVE SMOOTH",
"224 758 OFFCURVE",
"202 733 OFFCURVE",
"202 722 CURVE SMOOTH",
"202 712 OFFCURVE",
"208 695 OFFCURVE",
"232 695 CURVE SMOOTH",
"273 695 OFFCURVE",
"326 746 OFFCURVE",
"349 779 CURVE",
"377 740 OFFCURVE",
"415 695 OFFCURVE",
"465 695 CURVE SMOOTH",
"483 695 OFFCURVE",
"495 712 OFFCURVE",
"495 722 CURVE SMOOTH",
"495 730 OFFCURVE",
"492 740 OFFCURVE",
"473 754 CURVE SMOOTH",
"450 770 OFFCURVE",
"420 799 OFFCURVE",
"406 819 CURVE SMOOTH",
"393 839 OFFCURVE",
"379 849 OFFCURVE",
"347 849 CURVE SMOOTH"
);
}
);
width = 692;
}
);
unicode = 0124;
},
{
glyphname = Hdotbelow;
layers = (
{
layerId = "88A9C6FE-0426-4B07-A0DF-A933171F58B2";
name = Regular;
paths = (
{
closed = 1;
nodes = (
"461 350 OFFCURVE",
"394 348 OFFCURVE",
"330 348 CURVE SMOOTH",
"256 348 OFFCURVE",
"219 350 OFFCURVE",
"179 359 CURVE",
"179 435 OFFCURVE",
"184 510 OFFCURVE",
"184 596 CURVE SMOOTH",
"184 618 OFFCURVE",
"169 633 OFFCURVE",
"128 633 CURVE SMOOTH",
"111 633 OFFCURVE",
"76 628 OFFCURVE",
"76 579 CURVE SMOOTH",
"76 512 OFFCURVE",
"72 446 OFFCURVE",
"72 372 CURVE SMOOTH",
"72 314 OFFCURVE",
"76 256 OFFCURVE",
"76 187 CURVE SMOOTH",
"76 157 OFFCURVE",
"78 128 OFFCURVE",
"78 69 CURVE SMOOTH",
"78 26 OFFCURVE",
"88 -2 OFFCURVE",
"140 -2 CURVE SMOOTH",
"158 -2 OFFCURVE",
"190 18 OFFCURVE",
"190 40 CURVE SMOOTH",
"190 79 OFFCURVE",
"179 119 OFFCURVE",
"180 160 CURVE SMOOTH",
"180 195 OFFCURVE",
"181 234 OFFCURVE",
"181 270 CURVE",
"206 265 OFFCURVE",
"236 265 OFFCURVE",
"351 265 CURVE SMOOTH",
"401 265 OFFCURVE",
"466 265 OFFCURVE",
"513 269 CURVE",
"515 215 OFFCURVE",
"517 159 OFFCURVE",
"513 104 CURVE SMOOTH",
"512 88 OFFCURVE",
"511 67 OFFCURVE",
"511 46 CURVE SMOOTH",
"511 11 OFFCURVE",
"539 -1 OFFCURVE",
"581 -1 CURVE SMOOTH",
"607 -1 OFFCURVE",
"620 28 OFFCURVE",
"620 50 CURVE SMOOTH",
"620 97 OFFCURVE",
"616 144 OFFCURVE",
"616 196 CURVE SMOOTH",
"616 234 OFFCURVE",
"614 272 OFFCURVE",
"614 331 CURVE SMOOTH",
"614 408 OFFCURVE",
"617 484 OFFCURVE",
"616 575 CURVE",
"616 614 OFFCURVE",
"607 635 OFFCURVE",
"562 635 CURVE SMOOTH",
"529 635 OFFCURVE",
"508 616 OFFCURVE",
"508 584 CURVE SMOOTH",
"508 538 OFFCURVE",
"509 509 OFFCURVE",
"510 501 CURVE",
"514 454 OFFCURVE",
"511 407 OFFCURVE",
"513 358 CURVE"
);
},
{
closed = 1;
nodes = (
"408 -77 OFFCURVE",
"395 -59 OFFCURVE",
"360 -59 CURVE SMOOTH",
"330 -59 OFFCURVE",
"301 -75 OFFCURVE",
"301 -116 CURVE SMOOTH",
"301 -142 OFFCURVE",
"323 -158 OFFCURVE",
"350 -158 CURVE SMOOTH",
"374 -158 OFFCURVE",
"408 -141 OFFCURVE",
"408 -106 CURVE SMOOTH"
);
}
);
width = 692;
}
);
unicode = 1E24;
},
{
glyphname = I;
layers = (
{
layerId = "88A9C6FE-0426-4B07-A0DF-A933171F58B2";
name = Regular;
paths = (
{
closed = 1;
nodes = (
"253 553 LINE",
"307 553 OFFCURVE",
"323 562 OFFCURVE",
"323 608 CURVE SMOOTH",
"323 631 OFFCURVE",
"254 630 OFFCURVE",
"184 630 CURVE SMOOTH",
"108 630 OFFCURVE",
"45 625 OFFCURVE",
"45 586 CURVE SMOOTH",
"45 552 OFFCURVE",
"54 545 OFFCURVE",
"82 545 CURVE SMOOTH",
"90 545 OFFCURVE",
"101 545 OFFCURVE",
"135 547 CURVE",
"133 492 LINE SMOOTH",
"131 442 OFFCURVE",
"130 387 OFFCURVE",
"130 374 CURVE SMOOTH",
"130 319 OFFCURVE",
"132 262 OFFCURVE",
"136 198 CURVE SMOOTH",
"141 80 LINE",
"119 81 OFFCURVE",
"112 82 OFFCURVE",
"108 82 CURVE",
"76 84 OFFCURVE",
"45 85 OFFCURVE",
"45 54 CURVE SMOOTH",
"45 9 OFFCURVE",
"73 0 OFFCURVE",
"193 0 CURVE SMOOTH",
"302 0 OFFCURVE",
"332 8 OFFCURVE",
"332 38 CURVE SMOOTH",
"332 71 OFFCURVE",
"311 83 OFFCURVE",
"284 83 CURVE SMOOTH",
"274 83 OFFCURVE",
"267 81 OFFCURVE",
"245 78 CURVE",
"245 193 OFFCURVE",
"230 309 OFFCURVE",
"230 429 CURVE SMOOTH",
"230 470 OFFCURVE",
"231 509 OFFCURVE",
"233 552 CURVE"
);
}
);
width = 373;
}
);
unicode = 0049;
},
{
glyphname = IJ;
layers = (
{
layerId = "88A9C6FE-0426-4B07-A0DF-A933171F58B2";
name = Regular;
paths = (
{
closed = 1;
nodes = (
"253 553 LINE",
"307 553 OFFCURVE",
"323 562 OFFCURVE",
"323 608 CURVE SMOOTH",
"323 631 OFFCURVE",
"254 630 OFFCURVE",
"184 630 CURVE SMOOTH",
"108 630 OFFCURVE",
"45 625 OFFCURVE",
"45 586 CURVE SMOOTH",
"45 552 OFFCURVE",
"54 545 OFFCURVE",
"82 545 CURVE SMOOTH",
"90 545 OFFCURVE",
"101 545 OFFCURVE",
"135 547 CURVE",
"133 492 LINE SMOOTH",
"131 442 OFFCURVE",
"130 387 OFFCURVE",
"130 374 CURVE SMOOTH",
"130 319 OFFCURVE",
"132 262 OFFCURVE",
"136 198 CURVE SMOOTH",
"141 80 LINE",
"119 81 OFFCURVE",
"112 82 OFFCURVE",
"108 82 CURVE",
"76 84 OFFCURVE",
"45 85 OFFCURVE",
"45 54 CURVE SMOOTH",
"45 9 OFFCURVE",
"73 0 OFFCURVE",
"193 0 CURVE SMOOTH",
"302 0 OFFCURVE",
"332 8 OFFCURVE",
"332 38 CURVE SMOOTH",
"332 71 OFFCURVE",
"311 83 OFFCURVE",
"284 83 CURVE SMOOTH",
"274 83 OFFCURVE",
"267 81 OFFCURVE",
"245 78 CURVE",
"245 193 OFFCURVE",
"230 309 OFFCURVE",
"230 429 CURVE SMOOTH",
"230 470 OFFCURVE",
"231 509 OFFCURVE",
"233 552 CURVE"
);
},
{
closed = 1;
nodes = (
"452 178 OFFCURVE",
"442 204 OFFCURVE",
"413 204 CURVE SMOOTH",
"377 204 OFFCURVE",
"354 185 OFFCURVE",
"354 155 CURVE SMOOTH",
"354 44 OFFCURVE",
"429 -3 OFFCURVE",
"513 -3 CURVE SMOOTH",
"662 -3 OFFCURVE",
"732 99 OFFCURVE",
"732 268 CURVE SMOOTH",
"732 357 OFFCURVE",
"715 446 OFFCURVE",
"717 549 CURVE",
"729 550 OFFCURVE",
"745 552 OFFCURVE",
"763 554 CURVE",
"785 558 OFFCURVE",
"804 566 OFFCURVE",
"804 596 CURVE SMOOTH",
"804 623 OFFCURVE",
"785 630 OFFCURVE",
"739 630 CURVE SMOOTH",
"702 630 OFFCURVE",
"666 625 OFFCURVE",
"624 625 CURVE SMOOTH",
"598 625 OFFCURVE",
"573 631 OFFCURVE",
"543 631 CURVE SMOOTH",
"521 631 OFFCURVE",
"508 626 OFFCURVE",
"508 590 CURVE SMOOTH",
"508 558 OFFCURVE",
"556 548 OFFCURVE",
"615 548 CURVE",
"615 465 OFFCURVE",
"627 383 OFFCURVE",
"627 292 CURVE SMOOTH",
"627 179 OFFCURVE",
"608 79 OFFCURVE",
"506 79 CURVE SMOOTH",
"470 79 OFFCURVE",
"452 103 OFFCURVE",
"452 166 CURVE SMOOTH"
);
}
);
width = 831;
}
);
rightKerningGroup = J;
unicode = 0132;
},
{
glyphname = Iacute;
layers = (
{
layerId = "88A9C6FE-0426-4B07-A0DF-A933171F58B2";
name = Regular;
paths = (
{
closed = 1;
nodes = (
"253 553 LINE",
"307 553 OFFCURVE",
"323 562 OFFCURVE",
"323 608 CURVE SMOOTH",
"323 631 OFFCURVE",
"254 630 OFFCURVE",
"184 630 CURVE SMOOTH",
"108 630 OFFCURVE",
"45 625 OFFCURVE",
"45 586 CURVE SMOOTH",
"45 552 OFFCURVE",
"54 545 OFFCURVE",
"82 545 CURVE SMOOTH",
"90 545 OFFCURVE",
"101 545 OFFCURVE",
"135 547 CURVE",
"133 492 LINE SMOOTH",
"131 442 OFFCURVE",
"130 387 OFFCURVE",
"130 374 CURVE SMOOTH",
"130 319 OFFCURVE",
"132 262 OFFCURVE",
"136 198 CURVE SMOOTH",
"141 80 LINE",
"119 81 OFFCURVE",
"112 82 OFFCURVE",
"108 82 CURVE",
"76 84 OFFCURVE",
"45 85 OFFCURVE",
"45 54 CURVE SMOOTH",
"45 9 OFFCURVE",
"73 0 OFFCURVE",
"193 0 CURVE SMOOTH",
"302 0 OFFCURVE",
"332 8 OFFCURVE",
"332 38 CURVE SMOOTH",
"332 71 OFFCURVE",
"311 83 OFFCURVE",
"284 83 CURVE SMOOTH",
"274 83 OFFCURVE",
"267 81 OFFCURVE",
"245 78 CURVE",
"245 193 OFFCURVE",
"230 309 OFFCURVE",
"230 429 CURVE SMOOTH",
"230 470 OFFCURVE",
"231 509 OFFCURVE",
"233 552 CURVE"
);
},
{
closed = 1;
nodes = (
"209 864 OFFCURVE",
"190 854 OFFCURVE",
"174 821 CURVE SMOOTH",
"156 782 OFFCURVE",
"142 776 OFFCURVE",
"129 763 CURVE",
"114 751 OFFCURVE",
"108 746 OFFCURVE",
"108 737 CURVE SMOOTH",
"108 726 OFFCURVE",
"114 717 OFFCURVE",
"129 717 CURVE SMOOTH",
"141 717 OFFCURVE",
"181 724 OFFCURVE",
"203 738 CURVE",
"227 752 OFFCURVE",
"282 790 OFFCURVE",
"282 832 CURVE SMOOTH",
"282 851 OFFCURVE",
"264 864 OFFCURVE",
"236 864 CURVE SMOOTH"
);
}
);
width = 373;
}
);
unicode = 00CD;
},
{
glyphname = Ibreve;
layers = (
{
layerId = "88A9C6FE-0426-4B07-A0DF-A933171F58B2";
name = Regular;
paths = (
{
closed = 1;
nodes = (
"233 552 LINE",
"231 509 OFFCURVE",
"230 470 OFFCURVE",
"230 429 CURVE SMOOTH",
"230 309 OFFCURVE",
"245 193 OFFCURVE",
"245 78 CURVE",
"267 81 OFFCURVE",
"274 83 OFFCURVE",
"284 83 CURVE SMOOTH",
"311 83 OFFCURVE",
"332 71 OFFCURVE",
"332 38 CURVE SMOOTH",
"332 8 OFFCURVE",
"302 0 OFFCURVE",
"193 0 CURVE SMOOTH",
"73 0 OFFCURVE",
"45 9 OFFCURVE",
"45 54 CURVE SMOOTH",
"45 85 OFFCURVE",
"76 84 OFFCURVE",
"108 82 CURVE",
"112 82 OFFCURVE",
"119 81 OFFCURVE",
"141 80 CURVE",
"136 198 LINE SMOOTH",
"132 262 OFFCURVE",
"130 319 OFFCURVE",
"130 374 CURVE SMOOTH",
"130 387 OFFCURVE",
"131 442 OFFCURVE",
"133 492 CURVE SMOOTH",
"135 547 LINE",
"101 545 OFFCURVE",
"90 545 OFFCURVE",
"82 545 CURVE SMOOTH",
"54 545 OFFCURVE",
"45 552 OFFCURVE",
"45 586 CURVE SMOOTH",
"45 625 OFFCURVE",
"108 630 OFFCURVE",
"184 630 CURVE SMOOTH",
"254 630 OFFCURVE",
"323 631 OFFCURVE",
"323 608 CURVE SMOOTH",
"323 562 OFFCURVE",
"307 553 OFFCURVE",
"253 553 CURVE"
);
},
{
closed = 1;
nodes = (
"82 747 OFFCURVE",
"125 714 OFFCURVE",
"186 714 CURVE SMOOTH",
"274 714 OFFCURVE",
"304 770 OFFCURVE",
"318 800 CURVE SMOOTH",
"322 808 OFFCURVE",
"324 818 OFFCURVE",
"324 823 CURVE SMOOTH",
"324 836 OFFCURVE",
"304 845 OFFCURVE",
"295 845 CURVE SMOOTH",
"282 845 OFFCURVE",
"273 841 OFFCURVE",
"261 826 CURVE",
"240 802 OFFCURVE",
"218 787 OFFCURVE",
"184 787 CURVE SMOOTH",
"145 787 OFFCURVE",
"124 809 OFFCURVE",
"111 823 CURVE",
"100 833 OFFCURVE",
"90 841 OFFCURVE",
"79 841 CURVE SMOOTH",
"62 841 OFFCURVE",
"45 830 OFFCURVE",
"45 822 CURVE SMOOTH",
"45 814 OFFCURVE",
"50 801 OFFCURVE",
"53 796 CURVE SMOOTH"
);
}
);
width = 373;
}
);
unicode = 012C;
},
{
glyphname = Icaron;
layers = (
{
layerId = "88A9C6FE-0426-4B07-A0DF-A933171F58B2";
name = Regular;
paths = (
{
closed = 1;
nodes = (
"253 553 LINE",
"307 553 OFFCURVE",
"323 562 OFFCURVE",
"323 608 CURVE SMOOTH",
"323 631 OFFCURVE",
"254 630 OFFCURVE",
"184 630 CURVE SMOOTH",
"108 630 OFFCURVE",
"45 625 OFFCURVE",
"45 586 CURVE SMOOTH",
"45 552 OFFCURVE",
"54 545 OFFCURVE",
"82 545 CURVE SMOOTH",
"90 545 OFFCURVE",
"101 545 OFFCURVE",
"135 547 CURVE",
"133 492 LINE SMOOTH",
"131 442 OFFCURVE",
"130 387 OFFCURVE",
"130 374 CURVE SMOOTH",
"130 319 OFFCURVE",
"132 262 OFFCURVE",
"136 198 CURVE SMOOTH",
"141 80 LINE",
"119 81 OFFCURVE",
"112 82 OFFCURVE",
"108 82 CURVE",
"76 84 OFFCURVE",
"45 85 OFFCURVE",
"45 54 CURVE SMOOTH",
"45 9 OFFCURVE",
"73 0 OFFCURVE",
"193 0 CURVE SMOOTH",
"302 0 OFFCURVE",
"332 8 OFFCURVE",
"332 38 CURVE SMOOTH",
"332 71 OFFCURVE",
"311 83 OFFCURVE",
"284 83 CURVE SMOOTH",
"274 83 OFFCURVE",
"267 81 OFFCURVE",
"245 78 CURVE",
"245 193 OFFCURVE",
"230 309 OFFCURVE",
"230 429 CURVE SMOOTH",
"230 470 OFFCURVE",
"231 509 OFFCURVE",
"233 552 CURVE"
);
},
{
closed = 1;
nodes = (
"213 702 OFFCURVE",
"231 713 OFFCURVE",
"238 722 CURVE SMOOTH",
"245 731 OFFCURVE",
"262 751 OFFCURVE",
"290 778 CURVE SMOOTH",
"307 794 OFFCURVE",
"330 818 OFFCURVE",
"330 829 CURVE SMOOTH",
"330 839 OFFCURVE",
"303 856 OFFCURVE",
"280 856 CURVE SMOOTH",
"252 856 OFFCURVE",
"228 811 OFFCURVE",
"183 773 CURVE",
"145 807 OFFCURVE",
"126 856 OFFCURVE",
"76 856 CURVE SMOOTH",
"58 856 OFFCURVE",
"37 839 OFFCURVE",
"37 829 CURVE SMOOTH",
"37 821 OFFCURVE",
"44 814 OFFCURVE",
"59 797 CURVE SMOOTH",
"81 773 OFFCURVE",
"110 742 OFFCURVE",
"123 730 CURVE",
"140 713 OFFCURVE",
"153 702 OFFCURVE",
"185 702 CURVE SMOOTH"
);
}
);
width = 373;
}
);
unicode = 01CF;
},
{
glyphname = Icircumflex;
layers = (
{
layerId = "88A9C6FE-0426-4B07-A0DF-A933171F58B2";
name = Regular;
paths = (
{
closed = 1;
nodes = (
"253 553 LINE",
"307 553 OFFCURVE",
"323 562 OFFCURVE",
"323 608 CURVE SMOOTH",
"323 631 OFFCURVE",
"254 630 OFFCURVE",
"184 630 CURVE SMOOTH",
"108 630 OFFCURVE",
"45 625 OFFCURVE",
"45 586 CURVE SMOOTH",
"45 552 OFFCURVE",
"54 545 OFFCURVE",
"82 545 CURVE SMOOTH",
"90 545 OFFCURVE",
"101 545 OFFCURVE",
"135 547 CURVE",
"133 492 LINE SMOOTH",
"131 442 OFFCURVE",
"130 387 OFFCURVE",
"130 374 CURVE SMOOTH",
"130 319 OFFCURVE",
"132 262 OFFCURVE",
"136 198 CURVE SMOOTH",
"141 80 LINE",
"119 81 OFFCURVE",
"112 82 OFFCURVE",
"108 82 CURVE",
"76 84 OFFCURVE",
"45 85 OFFCURVE",
"45 54 CURVE SMOOTH",
"45 9 OFFCURVE",
"73 0 OFFCURVE",
"193 0 CURVE SMOOTH",
"302 0 OFFCURVE",
"332 8 OFFCURVE",
"332 38 CURVE SMOOTH",
"332 71 OFFCURVE",
"311 83 OFFCURVE",
"284 83 CURVE SMOOTH",
"274 83 OFFCURVE",
"267 81 OFFCURVE",
"245 78 CURVE",
"245 193 OFFCURVE",
"230 309 OFFCURVE",
"230 429 CURVE SMOOTH",
"230 470 OFFCURVE",
"231 509 OFFCURVE",
"233 552 CURVE"
);
},
{
closed = 1;
nodes = (
"152 860 OFFCURVE",
"139 843 OFFCURVE",
"132 834 CURVE SMOOTH",
"125 825 OFFCURVE",
"112 808 OFFCURVE",
"83 784 CURVE SMOOTH",
"65 769 OFFCURVE",
"43 744 OFFCURVE",
"43 733 CURVE SMOOTH",
"43 723 OFFCURVE",
"49 706 OFFCURVE",
"73 706 CURVE SMOOTH",
"114 706 OFFCURVE",
"167 757 OFFCURVE",
"190 790 CURVE",
"218 751 OFFCURVE",
"256 706 OFFCURVE",
"306 706 CURVE SMOOTH",
"324 706 OFFCURVE",
"336 723 OFFCURVE",
"336 733 CURVE SMOOTH",
"336 741 OFFCURVE",
"333 751 OFFCURVE",
"314 765 CURVE SMOOTH",
"291 781 OFFCURVE",
"261 810 OFFCURVE",
"247 830 CURVE SMOOTH",
"234 850 OFFCURVE",
"220 860 OFFCURVE",
"188 860 CURVE SMOOTH"
);
}
);
width = 373;
}
);
unicode = 00CE;
},
{
glyphname = Idblgrave;
layers = (
{
layerId = "88A9C6FE-0426-4B07-A0DF-A933171F58B2";
name = Regular;
paths = (
{
closed = 1;
nodes = (
"253 553 LINE",
"307 553 OFFCURVE",
"323 562 OFFCURVE",
"323 608 CURVE SMOOTH",
"323 631 OFFCURVE",
"254 630 OFFCURVE",
"184 630 CURVE SMOOTH",
"108 630 OFFCURVE",
"45 625 OFFCURVE",
"45 586 CURVE SMOOTH",
"45 552 OFFCURVE",
"54 545 OFFCURVE",
"82 545 CURVE SMOOTH",
"90 545 OFFCURVE",
"101 545 OFFCURVE",
"135 547 CURVE",
"133 492 LINE SMOOTH",
"131 442 OFFCURVE",
"130 387 OFFCURVE",
"130 374 CURVE SMOOTH",
"130 319 OFFCURVE",
"132 262 OFFCURVE",
"136 198 CURVE SMOOTH",
"141 80 LINE",
"119 81 OFFCURVE",
"112 82 OFFCURVE",
"108 82 CURVE",
"76 84 OFFCURVE",
"45 85 OFFCURVE",
"45 54 CURVE SMOOTH",
"45 9 OFFCURVE",
"73 0 OFFCURVE",
"193 0 CURVE SMOOTH",
"302 0 OFFCURVE",
"332 8 OFFCURVE",
"332 38 CURVE SMOOTH",
"332 71 OFFCURVE",
"311 83 OFFCURVE",
"284 83 CURVE SMOOTH",
"274 83 OFFCURVE",
"267 81 OFFCURVE",
"245 78 CURVE",
"245 193 OFFCURVE",
"230 309 OFFCURVE",
"230 429 CURVE SMOOTH",
"230 470 OFFCURVE",
"231 509 OFFCURVE",
"233 552 CURVE"
);
},
{
closed = 1;
nodes = (
"183 864 OFFCURVE",
"167 860 OFFCURVE",
"167 841 CURVE SMOOTH",
"167 820 OFFCURVE",
"216 771 OFFCURVE",
"241 746 CURVE SMOOTH",
"262 725 OFFCURVE",
"272 721 OFFCURVE",
"284 721 CURVE SMOOTH",
"298 721 OFFCURVE",
"311 725 OFFCURVE",
"311 735 CURVE SMOOTH",
"311 744 OFFCURVE",
"309 750 OFFCURVE",
"301 766 CURVE SMOOTH",
"291 785 OFFCURVE",
"279 798 OFFCURVE",
"262 822 CURVE SMOOTH",
"241 852 OFFCURVE",
"237 864 OFFCURVE",
"210 864 CURVE SMOOTH"
);
},
{
closed = 1;
nodes = (
"37 864 OFFCURVE",
"21 860 OFFCURVE",
"21 841 CURVE SMOOTH",
"21 820 OFFCURVE",
"69 771 OFFCURVE",
"94 746 CURVE SMOOTH",
"115 725 OFFCURVE",
"125 721 OFFCURVE",
"138 721 CURVE SMOOTH",
"151 721 OFFCURVE",
"165 725 OFFCURVE",
"165 735 CURVE SMOOTH",
"165 744 OFFCURVE",
"163 750 OFFCURVE",
"155 766 CURVE SMOOTH",
"145 785 OFFCURVE",
"132 798 OFFCURVE",
"115 822 CURVE SMOOTH",
"94 852 OFFCURVE",
"90 864 OFFCURVE",
"64 864 CURVE SMOOTH"
);
}
);
width = 373;
}
);
unicode = 0208;
},
{
glyphname = Idieresis;
layers = (
{
layerId = "88A9C6FE-0426-4B07-A0DF-A933171F58B2";
name = Regular;
paths = (
{
closed = 1;
nodes = (
"253 553 LINE",
"307 553 OFFCURVE",
"323 562 OFFCURVE",
"323 608 CURVE SMOOTH",
"323 631 OFFCURVE",
"254 630 OFFCURVE",
"184 630 CURVE SMOOTH",
"108 630 OFFCURVE",
"45 625 OFFCURVE",
"45 586 CURVE SMOOTH",
"45 552 OFFCURVE",
"54 545 OFFCURVE",
"82 545 CURVE SMOOTH",
"90 545 OFFCURVE",
"101 545 OFFCURVE",
"135 547 CURVE",
"133 492 LINE SMOOTH",
"131 442 OFFCURVE",
"130 387 OFFCURVE",
"130 374 CURVE SMOOTH",
"130 319 OFFCURVE",
"132 262 OFFCURVE",
"136 198 CURVE SMOOTH",
"141 80 LINE",
"119 81 OFFCURVE",
"112 82 OFFCURVE",
"108 82 CURVE",
"76 84 OFFCURVE",
"45 85 OFFCURVE",
"45 54 CURVE SMOOTH",
"45 9 OFFCURVE",
"73 0 OFFCURVE",
"193 0 CURVE SMOOTH",
"302 0 OFFCURVE",
"332 8 OFFCURVE",
"332 38 CURVE SMOOTH",
"332 71 OFFCURVE",
"311 83 OFFCURVE",
"284 83 CURVE SMOOTH",
"274 83 OFFCURVE",
"267 81 OFFCURVE",
"245 78 CURVE",
"245 193 OFFCURVE",
"230 309 OFFCURVE",
"230 429 CURVE SMOOTH",
"230 470 OFFCURVE",
"231 509 OFFCURVE",
"233 552 CURVE"
);
},
{
closed = 1;
nodes = (
"50 834 OFFCURVE",
"49 796 OFFCURVE",
"49 776 CURVE SMOOTH",
"49 763 OFFCURVE",
"55 737 OFFCURVE",
"92 737 CURVE SMOOTH",
"124 737 OFFCURVE",
"150 752 OFFCURVE",
"150 778 CURVE SMOOTH",
"150 817 OFFCURVE",
"113 831 OFFCURVE",
"81 832 CURVE SMOOTH"
);
},
{
closed = 1;
nodes = (
"218 834 OFFCURVE",
"217 796 OFFCURVE",
"217 776 CURVE SMOOTH",
"217 763 OFFCURVE",
"223 737 OFFCURVE",
"260 737 CURVE SMOOTH",
"293 737 OFFCURVE",
"318 752 OFFCURVE",
"318 778 CURVE SMOOTH",
"318 817 OFFCURVE",
"281 831 OFFCURVE",
"250 832 CURVE SMOOTH"
);
}
);
width = 373;
}
);
unicode = 00CF;
},
{
glyphname = Idotaccent;
layers = (
{
layerId = "88A9C6FE-0426-4B07-A0DF-A933171F58B2";
name = Regular;
paths = (
{
closed = 1;
nodes = (
"253 553 LINE",
"307 553 OFFCURVE",
"323 562 OFFCURVE",
"323 608 CURVE SMOOTH",
"323 631 OFFCURVE",
"254 630 OFFCURVE",
"184 630 CURVE SMOOTH",
"108 630 OFFCURVE",
"45 625 OFFCURVE",
"45 586 CURVE SMOOTH",
"45 552 OFFCURVE",
"54 545 OFFCURVE",
"82 545 CURVE SMOOTH",
"90 545 OFFCURVE",
"101 545 OFFCURVE",
"135 547 CURVE",
"133 492 LINE SMOOTH",
"131 442 OFFCURVE",
"130 387 OFFCURVE",
"130 374 CURVE SMOOTH",
"130 319 OFFCURVE",
"132 262 OFFCURVE",
"136 198 CURVE SMOOTH",
"141 80 LINE",
"119 81 OFFCURVE",
"112 82 OFFCURVE",
"108 82 CURVE",
"76 84 OFFCURVE",
"45 85 OFFCURVE",
"45 54 CURVE SMOOTH",
"45 9 OFFCURVE",
"73 0 OFFCURVE",
"193 0 CURVE SMOOTH",
"302 0 OFFCURVE",
"332 8 OFFCURVE",
"332 38 CURVE SMOOTH",
"332 71 OFFCURVE",
"311 83 OFFCURVE",
"284 83 CURVE SMOOTH",
"274 83 OFFCURVE",
"267 81 OFFCURVE",
"245 78 CURVE",
"245 193 OFFCURVE",
"230 309 OFFCURVE",
"230 429 CURVE SMOOTH",
"230 470 OFFCURVE",
"231 509 OFFCURVE",
"233 552 CURVE"
);
},
{
closed = 1;
nodes = (
"243 818 OFFCURVE",
"228 837 OFFCURVE",
"192 837 CURVE SMOOTH",
"161 837 OFFCURVE",
"130 820 OFFCURVE",
"130 777 CURVE SMOOTH",
"130 749 OFFCURVE",
"154 732 OFFCURVE",
"182 732 CURVE SMOOTH",
"207 732 OFFCURVE",
"243 750 OFFCURVE",
"243 787 CURVE SMOOTH"
);
}
);
width = 373;
}
);
unicode = 0130;
},
{
glyphname = Idotbelow;
layers = (
{
layerId = "88A9C6FE-0426-4B07-A0DF-A933171F58B2";
name = Regular;
paths = (
{
closed = 1;
nodes = (
"253 553 LINE",
"307 553 OFFCURVE",
"323 562 OFFCURVE",
"323 608 CURVE SMOOTH",
"323 631 OFFCURVE",
"254 630 OFFCURVE",
"184 630 CURVE SMOOTH",
"108 630 OFFCURVE",
"45 625 OFFCURVE",
"45 586 CURVE SMOOTH",
"45 552 OFFCURVE",
"54 545 OFFCURVE",
"82 545 CURVE SMOOTH",
"90 545 OFFCURVE",
"101 545 OFFCURVE",
"135 547 CURVE",
"133 492 LINE SMOOTH",
"131 442 OFFCURVE",
"130 387 OFFCURVE",
"130 374 CURVE SMOOTH",
"130 319 OFFCURVE",
"132 262 OFFCURVE",
"136 198 CURVE SMOOTH",
"141 80 LINE",
"119 81 OFFCURVE",
"112 82 OFFCURVE",
"108 82 CURVE",
"76 84 OFFCURVE",
"45 85 OFFCURVE",
"45 54 CURVE SMOOTH",
"45 9 OFFCURVE",
"73 0 OFFCURVE",
"193 0 CURVE SMOOTH",
"302 0 OFFCURVE",
"332 8 OFFCURVE",
"332 38 CURVE SMOOTH",
"332 71 OFFCURVE",
"311 83 OFFCURVE",
"284 83 CURVE SMOOTH",
"274 83 OFFCURVE",
"267 81 OFFCURVE",
"245 78 CURVE",
"245 193 OFFCURVE",
"230 309 OFFCURVE",
"230 429 CURVE SMOOTH",
"230 470 OFFCURVE",
"231 509 OFFCURVE",
"233 552 CURVE"
);
},
{
closed = 1;
nodes = (
"246 -77 OFFCURVE",
"233 -59 OFFCURVE",
"198 -59 CURVE SMOOTH",
"168 -59 OFFCURVE",
"139 -75 OFFCURVE",
"139 -116 CURVE SMOOTH",
"139 -142 OFFCURVE",
"161 -158 OFFCURVE",
"188 -158 CURVE SMOOTH",
"212 -158 OFFCURVE",
"246 -141 OFFCURVE",
"246 -106 CURVE SMOOTH"
);
}
);
width = 373;
}
);
unicode = 1ECA;
},
{
glyphname = Igrave;
layers = (
{
layerId = "88A9C6FE-0426-4B07-A0DF-A933171F58B2";
name = Regular;
paths = (
{
closed = 1;
nodes = (
"253 553 LINE",
"307 553 OFFCURVE",
"323 562 OFFCURVE",
"323 608 CURVE SMOOTH",
"323 631 OFFCURVE",
"254 630 OFFCURVE",
"184 630 CURVE SMOOTH",
"108 630 OFFCURVE",
"45 625 OFFCURVE",
"45 586 CURVE SMOOTH",
"45 552 OFFCURVE",
"54 545 OFFCURVE",
"82 545 CURVE SMOOTH",
"90 545 OFFCURVE",
"101 545 OFFCURVE",
"135 547 CURVE",
"133 492 LINE SMOOTH",
"131 442 OFFCURVE",
"130 387 OFFCURVE",
"130 374 CURVE SMOOTH",
"130 319 OFFCURVE",
"132 262 OFFCURVE",
"136 198 CURVE SMOOTH",
"141 80 LINE",
"119 81 OFFCURVE",
"112 82 OFFCURVE",
"108 82 CURVE",
"76 84 OFFCURVE",
"45 85 OFFCURVE",
"45 54 CURVE SMOOTH",
"45 9 OFFCURVE",
"73 0 OFFCURVE",
"193 0 CURVE SMOOTH",
"302 0 OFFCURVE",
"332 8 OFFCURVE",
"332 38 CURVE SMOOTH",
"332 71 OFFCURVE",
"311 83 OFFCURVE",
"284 83 CURVE SMOOTH",
"274 83 OFFCURVE",
"267 81 OFFCURVE",
"245 78 CURVE",
"245 193 OFFCURVE",
"230 309 OFFCURVE",
"230 429 CURVE SMOOTH",
"230 470 OFFCURVE",
"231 509 OFFCURVE",
"233 552 CURVE"
);
},
{
closed = 1;
nodes = (
"95 864 OFFCURVE",
"76 851 OFFCURVE",
"76 832 CURVE SMOOTH",
"76 790 OFFCURVE",
"132 752 OFFCURVE",
"155 738 CURVE SMOOTH",
"177 724 OFFCURVE",
"217 717 OFFCURVE",
"230 717 CURVE SMOOTH",
"244 717 OFFCURVE",
"250 726 OFFCURVE",
"250 737 CURVE SMOOTH",
"250 746 OFFCURVE",
"244 751 OFFCURVE",
"230 763 CURVE",
"216 776 OFFCURVE",
"203 782 OFFCURVE",
"184 821 CURVE SMOOTH",
"168 854 OFFCURVE",
"150 864 OFFCURVE",
"123 864 CURVE SMOOTH"
);
}
);
width = 373;
}
);
unicode = 00CC;
},
{
glyphname = Ihookabove;
layers = (
{
layerId = "88A9C6FE-0426-4B07-A0DF-A933171F58B2";
name = Regular;
paths = (
{
closed = 1;
nodes = (
"253 553 LINE",
"307 553 OFFCURVE",
"323 562 OFFCURVE",
"323 608 CURVE SMOOTH",
"323 631 OFFCURVE",
"254 630 OFFCURVE",
"184 630 CURVE SMOOTH",
"108 630 OFFCURVE",
"45 625 OFFCURVE",
"45 586 CURVE SMOOTH",
"45 552 OFFCURVE",
"54 545 OFFCURVE",
"82 545 CURVE SMOOTH",
"90 545 OFFCURVE",
"101 545 OFFCURVE",
"135 547 CURVE",
"133 492 LINE SMOOTH",
"131 442 OFFCURVE",
"130 387 OFFCURVE",
"130 374 CURVE SMOOTH",
"130 319 OFFCURVE",
"132 262 OFFCURVE",
"136 198 CURVE SMOOTH",
"141 80 LINE",
"119 81 OFFCURVE",
"112 82 OFFCURVE",
"108 82 CURVE",
"76 84 OFFCURVE",
"45 85 OFFCURVE",
"45 54 CURVE SMOOTH",
"45 9 OFFCURVE",
"73 0 OFFCURVE",
"193 0 CURVE SMOOTH",
"302 0 OFFCURVE",
"332 8 OFFCURVE",
"332 38 CURVE SMOOTH",
"332 71 OFFCURVE",
"311 83 OFFCURVE",
"284 83 CURVE SMOOTH",
"274 83 OFFCURVE",
"267 81 OFFCURVE",
"245 78 CURVE",
"245 193 OFFCURVE",
"230 309 OFFCURVE",
"230 429 CURVE SMOOTH",
"230 470 OFFCURVE",
"231 509 OFFCURVE",
"233 552 CURVE"
);
},
{
closed = 1;
nodes = (
"123 826 OFFCURVE",
"152 846 OFFCURVE",
"171 846 CURVE SMOOTH",
"190 846 OFFCURVE",
"212 847 OFFCURVE",
"212 815 CURVE SMOOTH",
"212 782 OFFCURVE",
"169 779 OFFCURVE",
"152 764 CURVE SMOOTH",
"146 759 OFFCURVE",
"136 750 OFFCURVE",
"136 732 CURVE SMOOTH",
"136 723 OFFCURVE",
"142 705 OFFCURVE",
"142 705 CURVE",
"148 684 OFFCURVE",
"167 677 OFFCURVE",
"193 677 CURVE SMOOTH",
"209 677 OFFCURVE",
"215 690 OFFCURVE",
"215 699 CURVE SMOOTH",
"215 707 OFFCURVE",
"187 728 OFFCURVE",
"212 738 CURVE SMOOTH",
"253 755 OFFCURVE",
"281 771 OFFCURVE",
"281 825 CURVE SMOOTH",
"281 848 OFFCURVE",
"268 869 OFFCURVE",
"260 875 CURVE SMOOTH",
"239 891 OFFCURVE",
"215 905 OFFCURVE",
"192 905 CURVE SMOOTH",
"166 905 OFFCURVE",
"90 894 OFFCURVE",
"90 853 CURVE SMOOTH",
"90 838 OFFCURVE",
"102 826 OFFCURVE",
"116 826 CURVE SMOOTH"
);
}
);
width = 373;
}
);
unicode = 1EC8;
},
{
glyphname = Iinvertedbreve;
layers = (
{
layerId = "88A9C6FE-0426-4B07-A0DF-A933171F58B2";
name = Regular;
paths = (
{
closed = 1;
nodes = (
"253 553 LINE",
"307 553 OFFCURVE",
"323 562 OFFCURVE",
"323 608 CURVE SMOOTH",
"323 631 OFFCURVE",
"254 630 OFFCURVE",
"184 630 CURVE SMOOTH",
"108 630 OFFCURVE",
"45 625 OFFCURVE",
"45 586 CURVE SMOOTH",
"45 552 OFFCURVE",
"54 545 OFFCURVE",
"82 545 CURVE SMOOTH",
"90 545 OFFCURVE",
"101 545 OFFCURVE",
"135 547 CURVE",
"133 492 LINE SMOOTH",
"131 442 OFFCURVE",
"130 387 OFFCURVE",
"130 374 CURVE SMOOTH",
"130 319 OFFCURVE",
"132 262 OFFCURVE",
"136 198 CURVE SMOOTH",
"141 80 LINE",
"119 81 OFFCURVE",
"112 82 OFFCURVE",
"108 82 CURVE",
"76 84 OFFCURVE",
"45 85 OFFCURVE",
"45 54 CURVE SMOOTH",
"45 9 OFFCURVE",
"73 0 OFFCURVE",
"193 0 CURVE SMOOTH",
"302 0 OFFCURVE",
"332 8 OFFCURVE",
"332 38 CURVE SMOOTH",
"332 71 OFFCURVE",
"311 83 OFFCURVE",
"284 83 CURVE SMOOTH",
"274 83 OFFCURVE",
"267 81 OFFCURVE",
"245 78 CURVE",
"245 193 OFFCURVE",
"230 309 OFFCURVE",
"230 429 CURVE SMOOTH",
"230 470 OFFCURVE",
"231 509 OFFCURVE",
"233 552 CURVE"
);
},
{
closed = 1;
nodes = (
"294 803 OFFCURVE",
"252 831 OFFCURVE",
"190 831 CURVE SMOOTH",
"102 831 OFFCURVE",
"72 779 OFFCURVE",
"58 749 CURVE SMOOTH",
"54 741 OFFCURVE",
"53 731 OFFCURVE",
"53 726 CURVE SMOOTH",
"53 713 OFFCURVE",
"65 704 OFFCURVE",
"74 704 CURVE SMOOTH",
"87 704 OFFCURVE",
"96 709 OFFCURVE",
"108 723 CURVE SMOOTH",
"129 748 OFFCURVE",
"158 763 OFFCURVE",
"192 763 CURVE SMOOTH",
"231 763 OFFCURVE",
"260 740 OFFCURVE",
"272 727 CURVE",
"283 716 OFFCURVE",
"290 709 OFFCURVE",
"301 709 CURVE SMOOTH",
"318 709 OFFCURVE",
"331 720 OFFCURVE",
"331 728 CURVE SMOOTH",
"331 736 OFFCURVE",
"326 749 OFFCURVE",
"324 753 CURVE"
);
}
);
width = 373;
}
);
unicode = 020A;
},
{
glyphname = Imacron;
layers = (
{
layerId = "88A9C6FE-0426-4B07-A0DF-A933171F58B2";
name = Regular;
paths = (
{
closed = 1;
nodes = (
"253 553 LINE",
"307 553 OFFCURVE",
"323 562 OFFCURVE",
"323 608 CURVE SMOOTH",
"323 631 OFFCURVE",
"254 630 OFFCURVE",
"184 630 CURVE SMOOTH",
"108 630 OFFCURVE",
"45 625 OFFCURVE",
"45 586 CURVE SMOOTH",
"45 552 OFFCURVE",
"54 545 OFFCURVE",
"82 545 CURVE SMOOTH",
"90 545 OFFCURVE",
"101 545 OFFCURVE",
"135 547 CURVE",
"133 492 LINE SMOOTH",
"131 442 OFFCURVE",
"130 387 OFFCURVE",
"130 374 CURVE SMOOTH",
"130 319 OFFCURVE",
"132 262 OFFCURVE",
"136 198 CURVE SMOOTH",
"141 80 LINE",
"119 81 OFFCURVE",
"112 82 OFFCURVE",
"108 82 CURVE",
"76 84 OFFCURVE",
"45 85 OFFCURVE",
"45 54 CURVE SMOOTH",
"45 9 OFFCURVE",
"73 0 OFFCURVE",
"193 0 CURVE SMOOTH",
"302 0 OFFCURVE",
"332 8 OFFCURVE",
"332 38 CURVE SMOOTH",
"332 71 OFFCURVE",
"311 83 OFFCURVE",
"284 83 CURVE SMOOTH",
"274 83 OFFCURVE",
"267 81 OFFCURVE",
"245 78 CURVE",
"245 193 OFFCURVE",
"230 309 OFFCURVE",
"230 429 CURVE SMOOTH",
"230 470 OFFCURVE",
"231 509 OFFCURVE",
"233 552 CURVE"
);
},
{
closed = 1;
nodes = (
"260 720 LINE SMOOTH",
"308 720 OFFCURVE",
"321 727 OFFCURVE",
"321 769 CURVE SMOOTH",
"321 788 OFFCURVE",
"229 787 OFFCURVE",
"168 787 CURVE SMOOTH",
"102 787 OFFCURVE",
"49 783 OFFCURVE",
"49 749 CURVE SMOOTH",
"49 719 OFFCURVE",
"55 714 OFFCURVE",
"78 714 CURVE SMOOTH",
"87 714 OFFCURVE",
"119 717 OFFCURVE",
"149 717 CURVE SMOOTH"
);
}
);
width = 373;
}
);
unicode = 012A;
},
